SplineFontDB: 3.2
FontName: SwordsII
FullName: Swords II
FamilyName: Swords II
Weight: Regular
Copyright: Copyright (c) 2018, Thane Brimhall & Matthew Wills
UComments: "Read Swords Comic! https://swordscomic.com"
FontLog: "0.4 - Add several glyphs for use in Cut the Deck. Move all specialized glyphs to the +ACIA-Supplementary Private Use Area-A+ACIA unicode block.+AAoA-0.3 - Made more glyphs use references. Improve readability of certain glyphs by manually fixing tangents and weights. Redid the entire section of Roman Numerals to be more compact. Added some emoji symbols for use in games.+AAoA-0.2 - Made all glyphs more bold. Improved line height and kerning. Added some Cyrillic and Greek glyphs as well as glyphs with various diacritics. Added Dagger (+ICAA) and Crossed Swords (+JpT+DwAA) because, this is Swords of course. Simplified the $ and % symbols, because the sword versions were simply too much. The old dollar with sword symbol can be found at the generic currency symbol (+AKQA).+AAoA-0.1 - Initial font creation."
Version: 004.000
ItalicAngle: 6
UnderlinePosition: -128
UnderlineWidth: 117
Ascent: 960
Descent: 64
InvalidEm: 0
sfntRevision: 0x00040000
LayerCount: 2
Layer: 0 1 "Back" 1
Layer: 1 1 "Fore" 0
XUID: [1021 237 -1010517986 27960]
StyleMap: 0x0000
FSType: 0
OS2Version: 4
OS2_WeightWidthSlopeOnly: 0
OS2_UseTypoMetrics: 1
CreationTime: 1534776967
ModificationTime: 1689189501
PfmFamily: 33
TTFWeight: 400
TTFWidth: 5
LineGap: 94
VLineGap: 0
Panose: 2 0 5 3 0 0 0 0 0 0
OS2TypoAscent: 960
OS2TypoAOffset: 0
OS2TypoDescent: -64
OS2TypoDOffset: 0
OS2TypoLinegap: 94
OS2WinAscent: 960
OS2WinAOffset: 0
OS2WinDescent: 64
OS2WinDOffset: 0
HheadAscent: 960
HheadAOffset: 0
HheadDescent: -64
HheadDOffset: 0
OS2CapHeight: 960
OS2XHeight: 960
OS2Vendor: 'PfEd'
OS2CodePages: 00000001.00000000
OS2UnicodeRanges: 80000007.00000002.00000000.00000000
MarkAttachClasses: 1
DEI: 91125
ShortTable: cvt  2
  34
  648
EndShort
ShortTable: maxp 16
  1
  0
  116
  138
  5
  0
  0
  2

StartChar: .notdef
Encoding: 1114112 -1 0
Width: 324
VWidth: 1075
GlyphClass: 1
Flags: MW
LayerCount: 2
Fore
SplineSet
32.400390625 0 m 1,0,-1
 32.400390625 720.900390625 l 1,1,-1
 292.5 720.900390625 l 1,2,-1
 292.5 0 l 1,3,-1
 32.400390625 0 l 1,0,-1
65.7001953125 35.099609375 m 1,4,-1
 261 35.099609375 l 1,5,-1
 261 684 l 1,6,-1
 65.7001953125 684 l 1,7,-1
 65.7001953125 35.099609375 l 1,4,-1
EndSplineSet
Validated: 1
EndChar

StartChar: exclam
Encoding: 33 33 4
Width: 295
VWidth: 1075
GlyphClass: 1
Flags: MW
LayerCount: 2
Fore
SplineSet
249.299804688 843.299804688 m 0,0,1
 256.5 835.200195312 256.5 835.200195312 260.099609375 819.450195312 c 128,-1,2
 263.700195312 803.700195312 263.700195312 803.700195312 263.700195312 784.799804688 c 128,-1,3
 263.700195312 765.900390625 263.700195312 765.900390625 262.799804688 751.5 c 0,4,5
 261 711 261 711 234 425.700195312 c 0,6,7
 224.099609375 319.5 224.099609375 319.5 213.299804688 265.950195312 c 128,-1,8
 202.5 212.400390625 202.5 212.400390625 190.799804688 193.5 c 0,9,10
 165.599609375 160.200195312 165.599609375 160.200195312 149.400390625 153.900390625 c 0,11,12
 144.900390625 152.099609375 144.900390625 152.099609375 140.400390625 152.099609375 c 0,13,14
 127.799804688 152.099609375 127.799804688 152.099609375 104.400390625 169.200195312 c 0,15,16
 84.599609375 183.599609375 84.599609375 183.599609375 80.099609375 211.5 c 0,17,18
 77.400390625 227.700195312 77.400390625 227.700195312 77.400390625 255.599609375 c 0,19,20
 77.400390625 405 77.400390625 405 99.900390625 618.299804688 c 0,21,22
 119.700195312 806.400390625 119.700195312 806.400390625 132.299804688 835.200195312 c 0,23,24
 146.700195312 866.700195312 146.700195312 866.700195312 185.400390625 869.400390625 c 2,25,-1
 187.200195312 869.400390625 l 2,26,27
 189 869.400390625 189 869.400390625 190.799804688 869.400390625 c 0,28,29
 225.900390625 869.400390625 225.900390625 869.400390625 249.299804688 843.299804688 c 0,0,1
225 -8.099609375 m 0,30,31
 225 -47.7001953125 225 -47.7001953125 190.799804688 -80.099609375 c 5,32,-1
 190.799804688 -81 l 1,33,34
 157.5 -108.900390625 157.5 -108.900390625 129.599609375 -108.900390625 c 0,35,36
 128.700195312 -108.900390625 128.700195312 -108.900390625 127.799804688 -108.900390625 c 0,37,38
 96.2998046875 -108.900390625 96.2998046875 -108.900390625 64.7998046875 -73.7998046875 c 0,39,40
 32.400390625 -36.900390625 32.400390625 -36.900390625 32.400390625 -0.900390625 c 0,41,42
 32.400390625 45.900390625 32.400390625 45.900390625 83.7001953125 74.7001953125 c 0,43,44
 111.599609375 90 111.599609375 90 135.900390625 90 c 0,45,46
 169.200195312 90 169.200195312 90 198 57.599609375 c 1,47,-1
 198.900390625 57.599609375 l 1,48,49
 225 26.099609375 225 26.099609375 225 -8.099609375 c 0,30,31
EndSplineSet
Validated: 1
EndChar

StartChar: quotedbl
Encoding: 34 34 5
Width: 309
VWidth: 1075
GlyphClass: 1
Flags: MW
LayerCount: 2
Fore
SplineSet
32.400390625 691.200195312 m 0,0,1
 32.400390625 790.200195312 32.400390625 790.200195312 38.7001953125 821.700195312 c 0,2,3
 46.7998046875 860.400390625 46.7998046875 860.400390625 71.099609375 864 c 0,4,5
 80.099609375 864.900390625 80.099609375 864.900390625 85.5 864 c 0,6,7
 108.900390625 858.599609375 108.900390625 858.599609375 121.049804688 817.650390625 c 128,-1,8
 133.200195312 776.700195312 133.200195312 776.700195312 134.099609375 688.5 c 0,9,10
 134.099609375 629.099609375 134.099609375 629.099609375 130.950195312 606.599609375 c 128,-1,11
 127.799804688 584.099609375 127.799804688 584.099609375 114.299804688 571.5 c 0,12,13
 96.2998046875 552.599609375 96.2998046875 552.599609375 81 552.599609375 c 0,14,15
 63.900390625 552.599609375 63.900390625 552.599609375 46.7998046875 580.5 c 0,16,17
 39.599609375 591.299804688 39.599609375 591.299804688 36 617.400390625 c 128,-1,18
 32.400390625 643.5 32.400390625 643.5 32.400390625 691.200195312 c 0,0,1
225.900390625 864.900390625 m 0,19,20
 250.200195312 864.900390625 250.200195312 864.900390625 261 837 c 0,21,22
 272.700195312 811.799804688 272.700195312 811.799804688 277.200195312 713.700195312 c 0,23,24
 278.099609375 685.799804688 278.099609375 685.799804688 278.099609375 659.700195312 c 0,25,26
 278.099609375 608.400390625 278.099609375 608.400390625 270 590.400390625 c 0,27,28
 257.400390625 560.700195312 257.400390625 560.700195312 227.700195312 560.700195312 c 0,29,30
 189 560.700195312 189 560.700195312 178.200195312 595.799804688 c 0,31,32
 169.200195312 621 169.200195312 621 169.200195312 692.099609375 c 0,33,34
 169.200195312 783.900390625 169.200195312 783.900390625 180.900390625 817.200195312 c 0,35,36
 187.200195312 838.799804688 187.200195312 838.799804688 200.25 851.849609375 c 128,-1,37
 213.299804688 864.900390625 213.299804688 864.900390625 225.900390625 864.900390625 c 0,19,20
EndSplineSet
Validated: 1
EndChar

StartChar: numbersign
Encoding: 35 35 6
Width: 736
VWidth: 1075
GlyphClass: 1
Flags: W
LayerCount: 2
Fore
SplineSet
297 621 m 1,0,1
 321 626 321 626 403.200195312 645.299804688 c 1,2,-1
 403.200195312 689.400390625 l 2,3,4
 403 721 403 721 407.700195312 740.25 c 0,5,6
 412 760 412 760 427.049804688 775.349609375 c 0,7,8
 442 791 442 791 456.75 791.099609375 c 0,9,10
 472 791 472 791 484.650390625 776.700195312 c 0,11,12
 498 762 498 762 505.349609375 723.599609375 c 0,13,14
 513 685 513 685 516.599609375 676.799804688 c 1,15,16
 535 684 535 684 585 687.599609375 c 0,17,18
 637 691 637 691 638.099609375 691.200195312 c 0,19,20
 646 691 646 691 651.599609375 690.299804688 c 0,21,22
 672 688 672 688 683.099609375 676.799804688 c 0,23,24
 704 658 704 658 703.799804688 629.549804688 c 0,25,26
 704 604 704 604 689.400390625 588.599609375 c 0,27,28
 668 565 668 565 576 550.799804688 c 0,29,30
 539 545 539 545 532.799804688 537.299804688 c 0,31,32
 526 529 526 529 526.5 525.599609375 c 0,33,34
 526 522 526 522 526.950195312 518.400390625 c 0,35,36
 526.999880664 505.032108349 526.999880664 505.032108349 528.299804688 496.799804688 c 2,37,-1
 533.700195312 462.599609375 l 1,38,-1
 581.400390625 458.099609375 l 2,39,40
 630 454 630 454 632.700195312 452.25 c 0,41,42
 648 447 648 447 662.400390625 427.5 c 1,43,44
 675 403 675 403 675 391.5 c 128,-1,45
 675 380 675 380 669.599609375 368.099609375 c 0,46,47
 660 346 660 346 640.349609375 338.849609375 c 0,48,49
 626.443915826 333.180962012 626.443915826 333.180962012 576 325.799804688 c 2,50,-1
 539.099609375 320.400390625 l 1,51,52
 542 246 542 246 541.799804688 216.900390625 c 0,53,54
 542 143 542 143 502.200195312 122.400390625 c 0,55,56
 492 117 492 117 480.150390625 117 c 0,57,58
 468 117 468 117 450 130.5 c 0,59,60
 430 146 430 146 427.950195312 164.700195312 c 0,61,62
 426.581270178 174.035894566 426.581270178 174.035894566 423 239.400390625 c 2,63,-1
 419.400390625 305.099609375 l 1,64,-1
 390.599609375 302.400390625 l 2,65,66
 372 301 372 301 334.349609375 292.950195312 c 0,67,68
 320 290 320 290 295.200195312 286.200195312 c 1,69,-1
 295.200195312 235.799804688 l 2,70,71
 295 200 295 200 291.599609375 180 c 0,72,73
 288 162 288 162 278.099609375 147.599609375 c 1,74,75
 258 130 258 130 240.299804688 129.599609375 c 0,76,77
 208.790891163 130.015977524 208.790891163 130.015977524 201.599609375 164.700195312 c 0,78,79
 191.700195312 213.47721669 191.700195312 213.47721669 191.700195312 234 c 2,80,-1
 191.700195312 277.200195312 l 1,81,-1
 156.599609375 277.200195312 l 2,82,83
 111 277 111 277 64 311 c 25,84,85
 52.2001953125 326.700195312 52.2001953125 326.700195312 62 341 c 1,86,87
 102 377 102 377 144 387 c 0,88,89
 159 391 159 391 188.099609375 400.5 c 1,90,91
 191.700195312 406.500375563 191.700195312 406.500375563 191.700195312 435.599609375 c 2,92,-1
 191.700195312 467.099609375 l 1,93,-1
 125.099609375 467.099609375 l 2,94,95
 68 467 68 467 54.900390625 469.799804688 c 0,96,97
 32 475 32 475 32.400390625 505.799804688 c 0,98,99
 32 556 32 556 140.400390625 581.400390625 c 1,100,-1
 189 594.900390625 l 1,101,-1
 191.700195312 666 l 2,102,103
 192.793986376 704.709191783 192.793986376 704.709191783 199.349609375 735.299804688 c 0,104,105
 204 757 204 757 228.599609375 771.299804688 c 0,106,107
 238 777 238 777 241.200195312 776.700195312 c 0,108,109
 260 777 260 777 272.25 758.700195312 c 0,110,111
 284 741 284 741 289.349609375 687.599609375 c 0,112,113
 294 634 294 634 297 621 c 1,0,1
297 418.5 m 1,114,115
 379.799804688 436.5 379.799804688 436.5 411.299804688 442.799804688 c 1,116,117
 411.299804688 451.799804688 411.299804688 451.799804688 410.849609375 460.349609375 c 128,-1,118
 410.400390625 468.900390625 410.400390625 468.900390625 411.299804688 477 c 0,119,120
 412.200195312 477 412.200195312 477 412.200195312 487.799804688 c 128,-1,121
 412.200195312 498.599609375 412.200195312 498.599609375 411.299804688 507.599609375 c 1,122,123
 370.799804688 499.5 370.799804688 499.5 349.200195312 494.099609375 c 2,124,-1
 295.200195312 480.599609375 l 1,125,-1
 295.200195312 447.299804688 l 2,126,127
 295.200195312 428.400390625 295.200195312 428.400390625 297 418.5 c 1,114,115
EndSplineSet
Validated: 33
EndChar

StartChar: dollar
Encoding: 36 36 7
Width: 544
VWidth: 967
GlyphClass: 1
Flags: W
LayerCount: 2
Fore
SplineSet
195.299804688 189 m 1,0,1
 200 222 200 222 198.900390625 249.299804688 c 0,2,3
 198.900390625 249.299804688 198.900390625 249.299804688 196 318 c 1,4,5
 196 318 196 318 177.299804688 321.299804688 c 0,6,7
 136 330 136 330 99 363.599609375 c 0,8,9
 66 393 66 393 45.900390625 433.799804688 c 0,10,11
 32 463 32 463 32.400390625 481.5 c 0,12,13
 32 500 32 500 37.7998046875 527.400390625 c 0,14,15
 47 565 47 565 80.099609375 601.200195312 c 0,16,17
 95 617 95 617 157.5 647.099609375 c 0,18,19
 174 655 174 655 189 668.700195312 c 1,20,21
 187 669 187 669 188.549804688 751.049804688 c 0,22,23
 190 827 190 827 248.400390625 827.099609375 c 0,24,25
 278 827 278 827 301.5 792 c 0,26,27
 306 785 306 785 302.400390625 677.700195312 c 0,28,29
 302 667 302 667 303.299804688 666 c 1,30,31
 305 665 305 665 311.400390625 659.700195312 c 0,32,33
 327 649 327 649 339.299804688 645.299804688 c 0,34,35
 392 629 392 629 423 589.5 c 0,36,37
 455 549 455 549 455.400390625 505.799804688 c 0,38,39
 455 469 455 469 448.200195312 456.299804688 c 0,40,41
 442 443 442 443 431.099609375 442.799804688 c 0,42,43
 422 443 422 443 414 450.900390625 c 0,44,45
 405 459 405 459 396 473.400390625 c 0,46,47
 377 506 377 506 357.299804688 521.099609375 c 0,48,49
 331 541 331 541 317.700195312 546.299804688 c 1,50,51
 313 517 313 517 313.200195312 430.200195312 c 1,52,53
 388 430 388 430 423.900390625 409.5 c 0,54,55
 460 390 460 390 481.5 354.599609375 c 0,56,57
 512 303 512 303 512.099609375 261.900390625 c 0,58,59
 512 212 512 212 496.799804688 186.299804688 c 0,60,61
 488 172 488 172 446.400390625 119.700195312 c 0,62,63
 423 91 423 91 356.400390625 79.2001953125 c 0,64,65
 344 77 344 77 337 76 c 1,66,67
 329 65 329 65 312.299804688 1.7998046875 c 0,68,69
 297 -59 297 -59 276 -57 c 0,70,71
 263 -56 263 -56 248.400390625 -39.599609375 c 0,72,73
 238.588855912 -28.9100273927 238.588855912 -28.9100273927 219.599609375 38.7001953125 c 0,74,75
 208 80 208 80 204 89 c 1,76,77
 198 91 198 91 191.700195312 92.7001953125 c 0,78,79
 156 103 156 103 124.200195312 133.200195312 c 0,80,81
 75 180 75 180 68.2998046875 196.200195312 c 0,82,83
 54 228 54 228 53.900390625 268.200195312 c 0,84,85
 54 294 54 294 67.400390625 310.200195312 c 0,86,87
 75 320 75 320 84.5 320.099609375 c 0,88,89
 86 320 86 320 89.900390625 319.200195312 c 0,90,91
 98 316 98 316 107.900390625 298.5 c 0,92,93
 153 211 153 211 195.299804688 189 c 1,0,1
154.799804688 458.099609375 m 0,94,95
 180 432.900390625 180 432.900390625 192.599609375 429.299804688 c 1,96,97
 197.099609375 438.299804688 197.099609375 438.299804688 197.099609375 464.400390625 c 0,98,99
 197.099609375 530.20488738 197.099609375 530.20488738 183.150390625 549.450195312 c 1,100,101
 168.564338066 547.868037613 168.564338066 547.868037613 150.299804688 528.299804688 c 0,102,103
 127.799804688 504.30078125 127.799804688 504.30078125 127.799804688 494.549804688 c 0,104,105
 127.799804688 485.099609375 127.799804688 485.099609375 154.799804688 458.099609375 c 0,94,95
394.200195312 280.799804688 m 0,106,107
 375 306 375 306 343.799804688 310.5 c 0,108,-1
 324 313.200195312 l 1,109,-1
 330 274 l 24,110,111
 330 274 330 274 337.5 193.5 c 1,112,113
 352 194 352 194 365.400390625 201.599609375 c 0,114,115
 374 206 374 206 384.75 217.349609375 c 0,116,117
 400 233 400 233 402.299804688 237.599609375 c 0,118,119
 408 248 408 248 407.700195312 253.799804688 c 0,120,121
 408 261 408 261 394.200195312 280.799804688 c 0,106,107
EndSplineSet
Validated: 33
EndChar

StartChar: percent
Encoding: 37 37 8
Width: 691
VWidth: 1075
GlyphClass: 1
Flags: W
LayerCount: 2
Fore
SplineSet
427.5 603.900390625 m 0,0,1
 507.599609375 695.700195312 507.599609375 695.700195312 543.599609375 695.700195312 c 0,2,3
 555.299804688 695.700195312 555.299804688 695.700195312 561.599609375 686.700195312 c 0,4,5
 581.400390625 661.5 581.400390625 661.5 581.400390625 629.099609375 c 0,6,7
 581.400390625 577.799804688 581.400390625 577.799804688 531.900390625 507.599609375 c 1,8,-1
 531.900390625 506.700195312 l 1,9,10
 519.299804688 484.200195312 519.299804688 484.200195312 363.599609375 299.700195312 c 0,11,12
 326.700195312 255.599609375 326.700195312 255.599609375 300.599609375 218.700195312 c 0,13,14
 289.799804688 203.400390625 289.799804688 203.400390625 263.700195312 180.900390625 c 0,15,16
 236.700195312 156.599609375 236.700195312 156.599609375 215.099609375 142.200195312 c 0,17,18
 164.700195312 108.900390625 164.700195312 108.900390625 149.400390625 100.799804688 c 128,-1,19
 134.099609375 92.7001953125 134.099609375 92.7001953125 124.650390625 92.7001953125 c 128,-1,20
 115.200195312 92.7001953125 115.200195312 92.7001953125 108.900390625 99.900390625 c 128,-1,21
 102.599609375 107.099609375 102.599609375 107.099609375 102.599609375 118.799804688 c 0,22,23
 102.599609375 135.900390625 102.599609375 135.900390625 117.900390625 172.799804688 c 0,24,25
 135.900390625 216.900390625 135.900390625 216.900390625 171.900390625 276.299804688 c 0,26,27
 232.200195312 375.299804688 232.200195312 375.299804688 427.5 603.900390625 c 0,0,1
9 513.900390625 m 0,28,29
 9 527.400390625 9 527.400390625 11.7001953125 541.799804688 c 0,30,31
 18.900390625 597.599609375 18.900390625 597.599609375 45 627.299804688 c 0,32,33
 70.2001953125 657 70.2001953125 657 115.200195312 657 c 0,34,35
 162.900390625 657 162.900390625 657 197.099609375 626.400390625 c 0,36,37
 226.799804688 601.200195312 226.799804688 601.200195312 240.299804688 548.099609375 c 0,38,39
 243 539.099609375 243 539.099609375 243 529.200195312 c 0,40,41
 243 498.599609375 243 498.599609375 220.5 470.700195312 c 0,42,43
 194.400390625 438.299804688 194.400390625 438.299804688 151.200195312 423 c 0,44,45
 135 416.700195312 135 416.700195312 111.599609375 415.799804688 c 0,46,47
 94.5 415.799804688 94.5 415.799804688 70.2001953125 425.700195312 c 0,48,49
 33.2998046875 440.099609375 33.2998046875 440.099609375 18.900390625 468 c 0,50,51
 10.7998046875 484.200195312 10.7998046875 484.200195312 9 513.900390625 c 0,28,29
100.799804688 528.299804688 m 0,52,53
 107.099609375 518.400390625 107.099609375 518.400390625 123.299804688 518.400390625 c 0,54,55
 132.299804688 518.400390625 132.299804688 518.400390625 137.700195312 521.099609375 c 0,56,57
 144 524.700195312 144 524.700195312 145.799804688 531.900390625 c 0,58,59
 148.5 539.099609375 148.5 539.099609375 148.5 546.299804688 c 0,60,61
 148.5 552.599609375 148.5 552.599609375 143.099609375 559.799804688 c 0,62,63
 135 571.5 135 571.5 122.400390625 571.5 c 2,64,-1
 121.5 571.5 l 1,65,-1
 120.599609375 571.5 l 2,66,67
 112.5 571.5 112.5 571.5 108 567 c 0,68,69
 103.5 563.400390625 103.5 563.400390625 100.799804688 555.299804688 c 0,70,71
 94.5 539.099609375 94.5 539.099609375 100.799804688 528.299804688 c 0,52,53
550.799804688 337.5 m 128,-1,73
 583.200195312 337.5 583.200195312 337.5 605.700195312 323.099609375 c 0,74,75
 659.700195312 290.700195312 659.700195312 290.700195312 659.700195312 226.799804688 c 0,76,77
 659.700195312 206.099609375 659.700195312 206.099609375 654.299804688 183.599609375 c 0,78,79
 641.700195312 126.900390625 641.700195312 126.900390625 593.099609375 99.900390625 c 0,80,81
 563.400390625 82.7998046875 563.400390625 82.7998046875 524.700195312 81.900390625 c 0,82,83
 503.099609375 81.900390625 503.099609375 81.900390625 482.400390625 88.2001953125 c 0,84,85
 468.900390625 91.7998046875 468.900390625 91.7998046875 449.099609375 103.5 c 128,-1,86
 429.299804688 115.200195312 429.299804688 115.200195312 415.799804688 132.299804688 c 0,87,88
 394.200195312 158.400390625 394.200195312 158.400390625 394.200195312 189 c 0,89,90
 394.200195312 196.200195312 394.200195312 196.200195312 395.099609375 204.299804688 c 0,91,92
 401.400390625 240.299804688 401.400390625 240.299804688 424.799804688 271.799804688 c 0,93,94
 447.299804688 302.400390625 447.299804688 302.400390625 486 321.299804688 c 0,95,72
 518.400390625 337.5 518.400390625 337.5 550.799804688 337.5 c 128,-1,73
507.599609375 179.099609375 m 0,96,97
 521.099609375 166.5 521.099609375 166.5 531 166.5 c 0,98,99
 543.599609375 166.5 543.599609375 166.5 550.799804688 186.299804688 c 0,100,101
 556.200195312 199.799804688 556.200195312 199.799804688 556.200195312 212.400390625 c 0,102,103
 556.200195312 220.5 556.200195312 220.5 552.599609375 227.700195312 c 0,104,105
 546.299804688 237.599609375 546.299804688 237.599609375 536.400390625 237.599609375 c 0,106,107
 521.099609375 237.599609375 521.099609375 237.599609375 509.400390625 224.099609375 c 0,108,109
 491.400390625 204.299804688 491.400390625 204.299804688 491.400390625 197.099609375 c 0,110,111
 491.400390625 193.5 491.400390625 193.5 507.599609375 179.099609375 c 0,96,97
EndSplineSet
Validated: 1
EndChar

StartChar: ampersand
Encoding: 38 38 9
Width: 640
VWidth: 1075
GlyphClass: 1
Flags: MW
LayerCount: 2
Fore
SplineSet
451.799804688 593.099609375 m 0,0,1
 451.799804688 564.299804688 451.799804688 564.299804688 428.400390625 548.099609375 c 0,2,3
 414.900390625 542.700195312 414.900390625 542.700195312 410.400390625 541.799804688 c 0,4,5
 403.200195312 541.799804688 403.200195312 541.799804688 396 545.400390625 c 0,6,7
 382.5 550.799804688 382.5 550.799804688 356.400390625 576 c 0,8,9
 327.599609375 603.900390625 327.599609375 603.900390625 308.700195312 603.900390625 c 1,10,-1
 307.799804688 603 l 1,11,12
 289.799804688 603 289.799804688 603 254.700195312 585 c 1,13,-1
 254.700195312 584.099609375 l 1,14,15
 203.400390625 558.900390625 203.400390625 558.900390625 203.400390625 517.5 c 0,16,17
 203.400390625 506.700195312 203.400390625 506.700195312 207 494.099609375 c 0,18,19
 208.799804688 486.900390625 208.799804688 486.900390625 223.650390625 464.400390625 c 128,-1,20
 238.5 441.900390625 238.5 441.900390625 274.5 398.700195312 c 0,21,22
 338.400390625 320.400390625 338.400390625 320.400390625 365.400390625 302.400390625 c 0,23,24
 371.700195312 297 371.700195312 297 376.200195312 295.200195312 c 1,25,26
 384.299804688 308.700195312 384.299804688 308.700195312 401.400390625 368.099609375 c 0,27,28
 409.5 394.200195312 409.5 394.200195312 415.799804688 412.200195312 c 128,-1,29
 422.099609375 430.200195312 422.099609375 430.200195312 430.200195312 439.650390625 c 128,-1,30
 438.299804688 449.099609375 438.299804688 449.099609375 449.099609375 449.099609375 c 128,-1,31
 459.900390625 449.099609375 459.900390625 449.099609375 472.5 439.200195312 c 0,32,33
 490.5 425.700195312 490.5 425.700195312 490.5 381.599609375 c 0,34,35
 490.5 324.900390625 490.5 324.900390625 470.700195312 270 c 0,36,37
 459 236.700195312 459 236.700195312 454.5 221.400390625 c 1,38,39
 468 206.099609375 468 206.099609375 516.599609375 164.700195312 c 0,40,41
 584.099609375 102.599609375 584.099609375 102.599609375 597.599609375 78.2998046875 c 0,42,43
 608.400390625 57.599609375 608.400390625 57.599609375 609.299804688 48.599609375 c 0,44,45
 609.299804688 38.7001953125 609.299804688 38.7001953125 598.5 21.599609375 c 1,46,47
 585 7.2001953125 585 7.2001953125 565.200195312 7.2001953125 c 2,48,-1
 564.299804688 7.2001953125 l 2,49,50
 544.5 7.2001953125 544.5 7.2001953125 516.599609375 20.7001953125 c 0,51,52
 462.599609375 44.099609375 462.599609375 44.099609375 382.5 106.200195312 c 1,53,54
 378 104.400390625 378 104.400390625 369.900390625 96.2998046875 c 0,55,56
 343.799804688 70.2001953125 343.799804688 70.2001953125 291.599609375 37.7998046875 c 128,-1,57
 239.400390625 5.400390625 239.400390625 5.400390625 207.900390625 -2.7001953125 c 0,58,59
 188.099609375 -7.2001953125 188.099609375 -7.2001953125 171.900390625 -7.2001953125 c 128,-1,60
 155.700195312 -7.2001953125 155.700195312 -7.2001953125 142.200195312 -3.599609375 c 0,61,62
 83.7001953125 13.5 83.7001953125 13.5 58.0498046875 54.900390625 c 128,-1,63
 32.400390625 96.2998046875 32.400390625 96.2998046875 32.400390625 165.599609375 c 0,64,65
 33.2998046875 263.700195312 33.2998046875 263.700195312 106.200195312 341.099609375 c 2,66,-1
 139.5 376.200195312 l 1,67,-1
 127.799804688 408.599609375 l 2,68,69
 104.400390625 466.200195312 104.400390625 466.200195312 104.400390625 510.299804688 c 0,70,71
 104.400390625 540.900390625 104.400390625 540.900390625 114.299804688 572.400390625 c 0,72,73
 125.099609375 612.900390625 125.099609375 612.900390625 146.700195312 638.099609375 c 128,-1,74
 168.299804688 663.299804688 168.299804688 663.299804688 211.5 684.900390625 c 0,75,76
 261 712.799804688 261 712.799804688 311.400390625 713.700195312 c 0,77,78
 375.299804688 713.700195312 375.299804688 713.700195312 421.200195312 661.5 c 0,79,80
 451.799804688 627.299804688 451.799804688 627.299804688 451.799804688 593.099609375 c 0,0,1
167.400390625 99 m 0,81,82
 189.900390625 99 189.900390625 99 222.299804688 117 c 0,83,84
 256.5 135.900390625 256.5 135.900390625 283.5 159.299804688 c 2,85,-1
 303.299804688 178.200195312 l 1,86,-1
 253.799804688 230.400390625 l 1,87,-1
 203.400390625 286.200195312 l 1,88,-1
 181.799804688 270.900390625 l 2,89,90
 125.099609375 226.799804688 125.099609375 226.799804688 125.099609375 162.900390625 c 0,91,92
 125.099609375 115.200195312 125.099609375 115.200195312 148.5 102.599609375 c 0,93,94
 156.599609375 99 156.599609375 99 167.400390625 99 c 0,81,82
EndSplineSet
Validated: 1
EndChar

StartChar: quotesingle
Encoding: 39 39 10
Width: 171
VWidth: 1075
GlyphClass: 1
Flags: MW
LayerCount: 2
Fore
SplineSet
43.2001953125 557.099609375 m 0,0,1
 33.2998046875 577.799804688 33.2998046875 577.799804688 32.400390625 701.099609375 c 0,2,3
 32.400390625 784.799804688 32.400390625 784.799804688 36.4501953125 810.900390625 c 128,-1,4
 40.5 837 40.5 837 54.4501953125 851.400390625 c 128,-1,5
 68.400390625 865.799804688 68.400390625 865.799804688 77.400390625 868.5 c 0,6,7
 80.099609375 869.400390625 80.099609375 869.400390625 81.900390625 869.400390625 c 0,8,9
 90.900390625 869.400390625 90.900390625 869.400390625 103.5 860.400390625 c 0,10,11
 124.200195312 846.900390625 124.200195312 846.900390625 131.400390625 800.099609375 c 128,-1,12
 138.599609375 753.299804688 138.599609375 753.299804688 139.5 658.799804688 c 0,13,14
 139.5 653.400390625 139.5 653.400390625 139.5 648.900390625 c 0,15,16
 139.5 579.599609375 139.5 579.599609375 125.099609375 558 c 0,17,18
 110.700195312 531.900390625 110.700195312 531.900390625 82.7998046875 531.900390625 c 128,-1,19
 54.900390625 531.900390625 54.900390625 531.900390625 43.2001953125 557.099609375 c 0,0,1
EndSplineSet
Validated: 1
EndChar

StartChar: parenleft
Encoding: 40 40 11
Width: 456
VWidth: 1075
GlyphClass: 1
Flags: MW
LayerCount: 2
Fore
SplineSet
171 356.400390625 m 2,0,1
 171 296 171 296 188.099609375 236.700195312 c 0,2,3
 218 138 218 138 242 110 c 0,4,5
 301 42 301 42 342.799804688 23.599609375 c 0,6,7
 404 -2 404 -2 413.099609375 -21.599609375 c 0,8,9
 416 -28 416 -28 415.799804688 -41.400390625 c 2,10,-1
 415.799804688 -43.2001953125 l 2,11,12
 416 -69 416 -69 396.900390625 -91.7998046875 c 0,13,14
 373 -120 373 -120 335.700195312 -119.700195312 c 0,15,16
 290 -120 290 -120 231.299804688 -84.599609375 c 0,17,18
 176 -51 176 -51 126 18.900390625 c 128,-1,19
 76 89 76 89 54.900390625 163.799804688 c 0,20,21
 35 231 35 231 35.099609375 313.650390625 c 0,22,23
 35 396 35 396 54.900390625 500.400390625 c 0,24,25
 67 561 67 561 108.900390625 638.099609375 c 0,26,27
 151 716 151 716 215.099609375 792.900390625 c 0,28,29
 251 836 251 836 271.799804688 849.599609375 c 0,30,31
 294 864 294 864 315 862.200195312 c 0,32,33
 318 862 318 862 319.5 862.200195312 c 0,34,35
 339 860 339 860 350.099609375 849.599609375 c 0,36,37
 362.700195312 839.246334601 362.700195312 839.246334601 362.700195312 817.200195312 c 2,38,-1
 362.700195312 816.299804688 l 2,39,40
 363 775 363 775 310.5 704.700195312 c 1,41,42
 183 473 183 473 171 358.200195312 c 1,43,-1
 171 357.299804688 l 1,44,-1
 171 356.400390625 l 2,0,1
EndSplineSet
Validated: 33
EndChar

StartChar: parenright
Encoding: 41 41 12
Width: 447
VWidth: 1075
GlyphClass: 1
Flags: MW
LayerCount: 2
Fore
SplineSet
78.7998046875 -38.7001953125 m 4,0,1
 79 -26 79 -26 83.0185957683 -13.3562149589 c 4,2,3
 104 54 104 54 155 84 c 5,4,5
 234 170 234 170 243.858398438 219.915039062 c 4,6,7
 252 260 252 260 253 312 c 4,8,9
 253 348 253 348 249.387695312 393.342773438 c 4,10,11
 241 503 241 503 210.291015625 574.079101562 c 4,12,13
 206 586 206 586 98.1672664835 698.197916345 c 4,14,15
 68 729 68 729 56.3244001639 753.087057411 c 4,16,17
 45 774 45 774 46.400390625 789.299804688 c 4,18,19
 51 846 51 846 89.1565151834 858.099581466 c 4,20,21
 104 863 104 863 157.068594463 836.124557709 c 5,22,23
 157.068594463 836.124557709 157.068594463 836.124557709 157.268012383 836.030309867 c 4,24,25
 231 803 231 803 274.389693692 757.14929714 c 4,26,27
 317 712 317 712 353.606412779 628.022267846 c 4,28,29
 378 572 378 572 386.597866871 521.903516701 c 4,30,31
 395 476 395 476 399.109062736 378.590707547 c 4,32,33
 402 314 402 314 401.799804688 310.5 c 4,34,35
 392 136 392 136 362.306446339 78.7931238728 c 4,36,37
 336 28 336 28 280.908998326 -28.8197699309 c 5,38,39
 202 -102 202 -102 156.372838729 -112.12779462 c 4,40,41
 147 -115 147 -115 139.5 -114.700195312 c 4,42,43
 110 -114 110 -114 90.7224464859 -79.3863616141 c 4,44,45
 79 -59 79 -59 78.7998046875 -38.7001953125 c 4,0,1
EndSplineSet
Validated: 33
EndChar

StartChar: asterisk
Encoding: 42 42 13
Width: 385
VWidth: 1075
GlyphClass: 1
Flags: MW
LayerCount: 2
Fore
SplineSet
81.900390625 501.299804688 m 0,0,1
 72 499 72 499 71.099609375 498.599609375 c 2,2,-1
 70.2001953125 498.599609375 l 2,3,4
 62.3442908511 499.036462871 62.3442908511 499.036462871 52.2001953125 505.799804688 c 2,5,-1
 46.7998046875 509.400390625 l 1,6,-1
 46.7998046875 512.099609375 l 1,7,8
 40 522 40 522 40.5 536.400390625 c 0,9,10
 39.9949397845 567.309681238 39.9949397845 567.309681238 83.7001953125 618.299804688 c 2,11,-1
 116.099609375 656.099609375 l 1,12,-1
 78.2998046875 695.700195312 l 2,13,14
 41 735 41 735 36.4501953125 747.450195312 c 0,15,16
 32 759 32 759 32.400390625 767.700195312 c 0,17,18
 32 786 32 786 47.7001953125 796.5 c 0,19,20
 58 803 58 803 69.2998046875 802.349609375 c 0,21,22
 81 802 81 802 95.400390625 795.599609375 c 0,23,24
 120.077934139 782.960083118 120.077934139 782.960083118 141.299804688 764.099609375 c 2,25,-1
 149.400390625 756.900390625 l 1,26,27
 150 794 150 794 155.80078125 837.200195312 c 0,28,29
 158 857 158 857 163.900390625 864.200195312 c 0,30,31
 177 884 177 884 199 884 c 0,32,33
 204 884 204 884 209.80078125 883.100585938 c 0,34,35
 232 879 232 879 236.80078125 859.25 c 0,36,37
 245 823 245 823 247.5 779.400390625 c 2,38,-1
 248.400390625 760.5 l 1,39,-1
 262.799804688 771.299804688 l 2,40,41
 298 798 298 798 318.150390625 798.299804688 c 0,42,43
 340 798 340 798 348.299804688 780.299804688 c 0,44,45
 353 770 353 770 352.799804688 757.349609375 c 0,46,47
 353 744 353 744 343.799804688 727.200195312 c 0,48,49
 332.046980204 704.092370166 332.046980204 704.092370166 299.700195312 676.799804688 c 2,50,-1
 270.900390625 652.5 l 1,51,-1
 297 621.900390625 l 2,52,53
 333 580 333 580 333 549.900390625 c 0,54,55
 333 528 333 528 319.5 518.400390625 c 0,56,57
 309 510 309 510 291.599609375 510.299804688 c 0,58,59
 277 510 277 510 261.900390625 518.400390625 c 0,60,61
 259 520 259 520 238.5 537.299804688 c 0,62,63
 211 559 211 559 208.799804688 561.599609375 c 0,64,65
 201 570 201 570 195.299804688 573.299804688 c 0,66,67
 189 578 189 578 181.799804688 579.599609375 c 1,68,69
 171 575 171 575 162 567.900390625 c 1,70,71
 161 566 161 566 133.200195312 541.799804688 c 0,72,73
 130 539 130 539 116.099609375 527.400390625 c 0,74,75
 89 503 89 503 81.900390625 501.299804688 c 0,0,1
EndSplineSet
Validated: 33
EndChar

StartChar: plus
Encoding: 43 43 14
Width: 687
VWidth: 1075
GlyphClass: 1
Flags: MW
LayerCount: 2
Fore
SplineSet
409.5 289.799804688 m 2,0,1
 409.5 242.099609375 409.5 242.099609375 405.900390625 224.099609375 c 0,2,3
 402.299804688 205.200195312 402.299804688 205.200195312 389.700195312 192.599609375 c 0,4,5
 369 173.700195312 369 173.700195312 356.400390625 173.700195312 c 128,-1,6
 343.799804688 173.700195312 343.799804688 173.700195312 322.200195312 189 c 0,7,8
 306 199.799804688 306 199.799804688 301.5 220.5 c 0,9,10
 297 238.5 297 238.5 294.299804688 288.900390625 c 2,11,-1
 290.700195312 356.400390625 l 1,12,-1
 243.900390625 356.400390625 l 2,13,14
 169.200195312 357.299804688 169.200195312 357.299804688 130.5 372.599609375 c 0,15,16
 94.5 386.099609375 94.5 386.099609375 94.5 408.599609375 c 0,17,18
 94.5 414.900390625 94.5 414.900390625 97.2001953125 421.200195312 c 0,19,20
 103.5 436.5 103.5 436.5 134.099609375 447.299804688 c 128,-1,21
 164.700195312 458.099609375 164.700195312 458.099609375 231.299804688 463.5 c 2,22,-1
 291.599609375 468.900390625 l 1,23,-1
 287.099609375 543.599609375 l 2,24,25
 284.400390625 572.400390625 284.400390625 572.400390625 284.400390625 597.599609375 c 0,26,27
 284.400390625 600.299804688 284.400390625 600.299804688 284.400390625 603 c 0,28,29
 284.400390625 625.5 284.400390625 625.5 288.900390625 642.599609375 c 0,30,31
 296.099609375 679.5 296.099609375 679.5 320.400390625 688.5 c 0,32,33
 325.799804688 690.299804688 325.799804688 690.299804688 332.099609375 691.200195312 c 0,34,35
 351.900390625 691.200195312 351.900390625 691.200195312 366.75 668.700195312 c 128,-1,36
 381.599609375 646.200195312 381.599609375 646.200195312 391.049804688 602.549804688 c 128,-1,37
 400.5 558.900390625 400.5 558.900390625 401.400390625 505.799804688 c 2,38,-1
 401.400390625 476.099609375 l 1,39,-1
 461.700195312 476.099609375 l 2,40,41
 542.700195312 476.099609375 542.700195312 476.099609375 574.200195312 453.599609375 c 0,42,43
 595.799804688 439.200195312 595.799804688 439.200195312 595.799804688 416.700195312 c 0,44,45
 595.799804688 400.5 595.799804688 400.5 587.700195312 385.200195312 c 0,46,47
 578.700195312 368.099609375 578.700195312 368.099609375 561.599609375 363.599609375 c 0,48,49
 547.200195312 360 547.200195312 360 486.900390625 357.299804688 c 2,50,-1
 409.5 355.5 l 1,51,-1
 409.5 289.799804688 l 2,0,1
EndSplineSet
Validated: 1
EndChar

StartChar: comma
Encoding: 44 44 15
Width: 280
VWidth: 1075
GlyphClass: 1
Flags: MW
LayerCount: 2
Fore
SplineSet
233.099609375 182.700195312 m 0,0,1
 242.099609375 172.799804688 242.099609375 172.799804688 245.25 158.849609375 c 128,-1,2
 248.400390625 144.900390625 248.400390625 144.900390625 248.400390625 132.299804688 c 0,3,4
 248.400390625 107.099609375 248.400390625 107.099609375 238.5 74.7001953125 c 0,5,6
 211.5 -7.2001953125 211.5 -7.2001953125 135 -80.099609375 c 0,7,8
 115.200195312 -99 115.200195312 -99 101.700195312 -107.549804688 c 128,-1,9
 88.2001953125 -116.099609375 88.2001953125 -116.099609375 78.2998046875 -116.099609375 c 0,10,11
 71.099609375 -115.200195312 71.099609375 -115.200195312 63.900390625 -109.799804688 c 128,-1,12
 56.7001953125 -104.400390625 56.7001953125 -104.400390625 46.7998046875 -93.599609375 c 0,13,14
 32.400390625 -78.2998046875 32.400390625 -78.2998046875 32.400390625 -55.7998046875 c 0,15,16
 32.400390625 -43.2001953125 32.400390625 -43.2001953125 37.7998046875 -28.7998046875 c 0,17,18
 49.5 5.400390625 49.5 5.400390625 106.200195312 90 c 0,19,20
 144 145.799804688 144 145.799804688 164.700195312 169.200195312 c 0,21,22
 188.099609375 195.299804688 188.099609375 195.299804688 204.75 195.299804688 c 128,-1,23
 221.400390625 195.299804688 221.400390625 195.299804688 233.099609375 182.700195312 c 0,0,1
EndSplineSet
Validated: 1
EndChar

StartChar: hyphen
Encoding: 45 45 16
Width: 606
VWidth: 1075
GlyphClass: 1
Flags: MW
LayerCount: 2
Fore
SplineSet
43.2001953125 407.700195312 m 0,0,1
 32 424 32 424 32.400390625 439.200195312 c 0,2,3
 32 486 32 486 93.599609375 513.900390625 c 0,4,5
 135 533 135 533 269.099609375 532.799804688 c 0,6,7
 416 533 416 533 465.299804688 528.299804688 c 0,8,9
 514 524 514 524 538.200195312 506.700195312 c 0,10,11
 567 487 567 487 574.200195312 441 c 0,12,13
 575 436 575 436 575.099609375 430.200195312 c 0,14,15
 573 396 573 396 536.299804688 381.099609375 c 0,16,17
 526.444407474 377.16536311 526.444407474 377.16536311 444.5 373.900390625 c 0,18,19
 437 373 437 373 341 373 c 0,20,21
 169 373 169 373 127.799804688 378.900390625 c 0,22,23
 90 384 90 384 69.2998046875 390.599609375 c 0,24,25
 50 397 50 397 43.2001953125 407.700195312 c 0,0,1
EndSplineSet
Validated: 33
EndChar

StartChar: period
Encoding: 46 46 17
Width: 290
VWidth: 1075
GlyphClass: 1
Flags: MW
LayerCount: 2
Fore
SplineSet
72.099609375 21.599609375 m 1,0,1
 42.400390625 60.2998046875 42.400390625 60.2998046875 42.400390625 102.599609375 c 128,-1,2
 42.400390625 144.900390625 42.400390625 144.900390625 75.7001953125 173.700195312 c 0,3,4
 104.5 198.900390625 104.5 198.900390625 145 199.799804688 c 0,5,6
 196.299804688 199.799804688 196.299804688 199.799804688 221.5 160.200195312 c 0,7,8
 241.299804688 129.599609375 241.299804688 129.599609375 241.299804688 94.5 c 0,9,10
 241.299804688 52.2001953125 241.299804688 52.2001953125 213.400390625 19.349609375 c 128,-1,11
 185.5 -13.5 185.5 -13.5 141.400390625 -13.5 c 0,12,13
 103.599609375 -13.5 103.599609375 -13.5 73 20.7001953125 c 2,14,-1
 72.099609375 21.599609375 l 1,0,1
EndSplineSet
Validated: 1
EndChar

StartChar: slash
Encoding: 47 47 18
Width: 617
VWidth: 1075
GlyphClass: 1
Flags: MW
LayerCount: 2
Fore
SplineSet
32.400390625 92.7001953125 m 0,0,1
 32.400390625 128.700195312 32.400390625 128.700195312 69.2998046875 199.799804688 c 0,2,3
 112.5 283.5 112.5 283.5 237.599609375 442.799804688 c 0,4,5
 426.599609375 689.400390625 426.599609375 689.400390625 488.700195312 747 c 0,6,7
 504.900390625 763.200195312 504.900390625 763.200195312 514.349609375 766.349609375 c 128,-1,8
 523.799804688 769.5 523.799804688 769.5 532.799804688 769.5 c 0,9,10
 549.900390625 769.5 549.900390625 769.5 564.299804688 756.900390625 c 0,11,12
 585 738.900390625 585 738.900390625 585 706.5 c 128,-1,13
 585 674.099609375 585 674.099609375 561.150390625 635.400390625 c 128,-1,14
 537.299804688 596.700195312 537.299804688 596.700195312 434.700195312 468 c 0,15,16
 334.799804688 345.599609375 334.799804688 345.599609375 237.599609375 217.799804688 c 0,17,18
 139.5 88.2001953125 139.5 88.2001953125 120.599609375 70.2001953125 c 0,19,20
 98.099609375 49.5 98.099609375 49.5 72.900390625 48.599609375 c 0,21,22
 60.2998046875 48.599609375 60.2998046875 48.599609375 51.2998046875 54 c 0,23,24
 38.7001953125 61.2001953125 38.7001953125 61.2001953125 35.099609375 75.599609375 c 0,25,26
 32.400390625 83.7001953125 32.400390625 83.7001953125 32.400390625 92.7001953125 c 0,0,1
EndSplineSet
Validated: 1
EndChar

StartChar: zero
Encoding: 48 48 19
Width: 575
VWidth: 1075
GlyphClass: 1
Flags: W
LayerCount: 2
Fore
SplineSet
479.700195312 591.299804688 m 0,0,1
 519.299804688 510.299804688 519.299804688 510.299804688 537.299804688 362.700195312 c 0,2,3
 541.799804688 322.200195312 541.799804688 322.200195312 541.799804688 288.900390625 c 0,4,5
 541.799804688 240.299804688 541.799804688 240.299804688 531.900390625 207 c 0,6,7
 511.200195312 141.299804688 511.200195312 141.299804688 475.200195312 99.900390625 c 0,8,9
 434.700195312 53.099609375 434.700195312 53.099609375 384.299804688 27.900390625 c 0,10,11
 325.799804688 0 325.799804688 0 266.400390625 0 c 0,12,13
 207.900390625 0 207.900390625 0 162 26.099609375 c 0,14,15
 76.5 72.900390625 76.5 72.900390625 46.7998046875 189 c 0,16,17
 32.400390625 245.700195312 32.400390625 245.700195312 32.400390625 278.099609375 c 0,18,19
 32.400390625 312.299804688 32.400390625 312.299804688 46.7998046875 389.700195312 c 0,20,21
 66.599609375 493.200195312 66.599609375 493.200195312 108 566.099609375 c 0,22,23
 152.099609375 643.5 152.099609375 643.5 209.700195312 673.200195312 c 0,24,25
 247.5 692.099609375 247.5 692.099609375 303.299804688 692.099609375 c 0,26,27
 428.446622898 692.099609375 428.446622898 692.099609375 479.700195312 591.299804688 c 0,0,1
375.299804688 499.5 m 0,28,29
 347.069323605 548.64211663 347.069323605 548.64211663 273.599609375 540 c 0,30,31
 222.299804688 531 222.299804688 531 196.200195312 490.5 c 0,32,33
 165.599609375 444.599609375 165.599609375 444.599609375 147.599609375 344.700195312 c 0,34,35
 138.599609375 294.299804688 138.599609375 294.299804688 138.599609375 266.400390625 c 0,36,37
 138.599609375 246.599609375 138.599609375 246.599609375 149.400390625 208.799804688 c 0,38,39
 165.599609375 155.700195312 165.599609375 155.700195312 194.400390625 135 c 0,40,41
 218.700195312 117.900390625 218.700195312 117.900390625 258.299804688 117.900390625 c 0,42,43
 294.299804688 117.900390625 294.299804688 117.900390625 342 145.799804688 c 1,44,45
 422.099609375 218.700195312 422.099609375 218.700195312 430.200195312 254.700195312 c 0,46,47
 434.700195312 273.599609375 434.700195312 273.599609375 434.700195312 296.099609375 c 0,48,49
 434.700195312 349.200195312 434.700195312 349.200195312 410.400390625 419.400390625 c 0,50,51
 396 462.599609375 396 462.599609375 375.299804688 499.5 c 0,28,29
EndSplineSet
Validated: 33
EndChar

StartChar: one
Encoding: 49 49 20
Width: 314
VWidth: 1075
GlyphClass: 1
Flags: W
LayerCount: 2
Fore
SplineSet
32.400390625 503.099609375 m 0,0,1
 32.400390625 527.400390625 32.400390625 527.400390625 65.7001953125 569.700195312 c 1,2,-1
 179.099609375 692.099609375 l 1,3,4
 198 702.900390625 198 702.900390625 215.099609375 702.900390625 c 0,5,6
 226.799804688 702.900390625 226.799804688 702.900390625 237.599609375 698.400390625 c 0,7,8
 259.200195312 688.5 259.200195312 688.5 270 664.200195312 c 0,9,10
 279 637.200195312 279 637.200195312 281.700195312 356.400390625 c 0,11,12
 281.700195312 309.599609375 281.700195312 309.599609375 281.700195312 270.900390625 c 0,13,14
 281.700195312 113.400390625 281.700195312 113.400390625 276.299804688 67.5 c 0,15,16
 274.5 56.7001953125 274.5 56.7001953125 271.799804688 52.2001953125 c 0,17,18
 256.5 22.5 256.5 22.5 235.799804688 13.5 c 0,19,20
 227.700195312 10.7998046875 227.700195312 10.7998046875 220.5 10.7998046875 c 0,21,22
 204.299804688 10.7998046875 204.299804688 10.7998046875 189.900390625 22.5 c 0,23,24
 176.400390625 35.099609375 176.400390625 35.099609375 171.900390625 76.5 c 0,25,26
 167.400390625 123.299804688 167.400390625 123.299804688 162 290.700195312 c 0,27,28
 161.099609375 339.299804688 161.099609375 339.299804688 158.849609375 415.799804688 c 128,-1,29
 156.599609375 492.299804688 156.599609375 492.299804688 156.599609375 513.900390625 c 1,30,-1
 141.299804688 500.400390625 l 2,31,32
 104.400390625 467.099609375 104.400390625 467.099609375 78.2998046875 467.099609375 c 0,33,34
 60.2998046875 467.099609375 60.2998046875 467.099609375 49.5 472.5 c 0,35,36
 32.400390625 481.5 32.400390625 481.5 32.400390625 503.099609375 c 0,0,1
EndSplineSet
Validated: 1
EndChar

StartChar: two
Encoding: 50 50 21
Width: 581
VWidth: 1075
GlyphClass: 1
Flags: W
LayerCount: 2
Fore
SplineSet
32.400390625 15.2998046875 m 0,0,1
 32 26 32 26 35.099609375 37.7998046875 c 0,2,3
 43 74 43 74 83.7001953125 138.599609375 c 1,4,5
 242 354 242 354 243 356.400390625 c 0,6,7
 270 396 270 396 277.200195312 434.700195312 c 0,8,9
 286 484 286 484 286.200195312 509.400390625 c 0,10,11
 286 532 286 532 276.299804688 540.900390625 c 0,12,13
 275 542 275 542 262.799804688 543.599609375 c 0,14,15
 260 544 260 544 256.5 542.700195312 c 0,16,17
 236 539 236 539 213.799804688 526.5 c 0,18,19
 198 517 198 517 174.099609375 489.599609375 c 4,20,21
 154 468 154 468 148 447.299804688 c 4,22,23
 139 418 139 418 130 406.799804688 c 4,24,25
 121 397 121 397 99 396.900390625 c 0,26,27
 71 397 71 397 59.400390625 416.700195312 c 0,28,29
 52 429 52 429 51.2998046875 450 c 0,30,31
 51 475 51 475 65.7001953125 513 c 0,32,33
 84 560 84 560 110.700195312 588.599609375 c 0,34,35
 170 652 170 652 255.599609375 666.900390625 c 0,36,37
 268 669 268 669 279.900390625 668.700195312 c 0,38,39
 309 669 309 669 333.900390625 657.900390625 c 0,40,41
 412 624 412 624 412.200195312 495.900390625 c 0,42,43
 412 418 412 418 393.299804688 362.700195312 c 0,44,45
 372 301 372 301 324 232.200195312 c 0,46,47
 310 212 310 212 287.099609375 178.200195312 c 1,48,-1
 359.099609375 178.200195312 l 2,49,50
 455.083872771 177.991103714 455.083872771 177.991103714 485.099609375 168.299804688 c 0,51,52
 517 158 517 158 534.599609375 134.099609375 c 1,53,54
 549 107 549 107 549 80.099609375 c 0,55,56
 549 73 549 73 546.299804688 65.7001953125 c 0,57,58
 538 36 538 36 507.599609375 26.099609375 c 0,59,60
 494 22 494 22 474.299804688 21.599609375 c 0,61,62
 447 22 447 22 427.5 26.099609375 c 0,63,64
 400 32 400 32 364.5 31.5 c 0,65,66
 302 32 302 32 278.099609375 24.2998046875 c 0,67,68
 170 -11 170 -11 90 -23.400390625 c 0,69,70
 86 -24 86 -24 82.7998046875 -24.2998046875 c 0,71,72
 69 -24 69 -24 54.900390625 -16.2001953125 c 0,73,74
 33 -5 33 -5 32.400390625 15.2998046875 c 0,0,1
EndSplineSet
Validated: 33
EndChar

StartChar: three
Encoding: 51 51 22
Width: 583
VWidth: 1075
GlyphClass: 1
Flags: W
LayerCount: 2
Fore
SplineSet
527.400390625 331.200195312 m 0,0,1
 551.700195312 288.900390625 551.700195312 288.900390625 551.700195312 249.299804688 c 0,2,3
 551.700195312 234.900390625 551.700195312 234.900390625 549 222.299804688 c 0,4,5
 540 183.599609375 540 183.599609375 504 132.299804688 c 128,-1,6
 468 81 468 81 439.200195312 63 c 0,7,8
 386.099609375 32.400390625 386.099609375 32.400390625 315 20.7001953125 c 0,9,10
 276.299804688 14.400390625 276.299804688 14.400390625 240.75 14.400390625 c 128,-1,11
 205.200195312 14.400390625 205.200195312 14.400390625 173.700195312 18.900390625 c 0,12,13
 98.099609375 27.900390625 98.099609375 27.900390625 60.2998046875 63 c 0,14,15
 32.400390625 88.2001953125 32.400390625 88.2001953125 32.400390625 117 c 0,16,17
 32.400390625 130.5 32.400390625 130.5 39.599609375 144 c 0,18,19
 49.5 163.799804688 49.5 163.799804688 72 167.400390625 c 0,20,21
 76.5 168.299804688 76.5 168.299804688 92.7001953125 167.849609375 c 128,-1,22
 108.900390625 167.400390625 108.900390625 167.400390625 174.599609375 162 c 0,23,24
 238.5 160.200195312 238.5 160.200195312 255.150390625 160.200195312 c 128,-1,25
 271.799804688 160.200195312 271.799804688 160.200195312 282.599609375 161.099609375 c 0,26,27
 306.900390625 162.900390625 306.900390625 162.900390625 336.599609375 175.5 c 1,28,-1
 336.599609375 176.400390625 l 1,29,30
 359.099609375 185.400390625 359.099609375 185.400390625 371.700195312 197.549804688 c 128,-1,31
 384.299804688 209.700195312 384.299804688 209.700195312 393.299804688 229.5 c 0,32,33
 405 250.200195312 405 250.200195312 407.700195312 258.299804688 c 1,34,35
 405 262.799804688 405 262.799804688 398.700195312 267.299804688 c 0,36,37
 378.900390625 284.400390625 378.900390625 284.400390625 333.900390625 297.900390625 c 0,38,39
 298.799804688 307.799804688 298.799804688 307.799804688 271.799804688 307.799804688 c 0,40,41
 264.599609375 307.799804688 264.599609375 307.799804688 256.5 307.349609375 c 128,-1,42
 248.400390625 306.900390625 248.400390625 306.900390625 240.299804688 306.900390625 c 0,43,44
 211.5 306.900390625 211.5 306.900390625 189 315.900390625 c 0,45,46
 156.599609375 329.400390625 156.599609375 329.400390625 156.599609375 360 c 0,47,48
 156.599609375 367.200195312 156.599609375 367.200195312 162 375.299804688 c 128,-1,49
 167.400390625 383.400390625 167.400390625 383.400390625 178.200195312 395.099609375 c 0,50,51
 197.099609375 414.900390625 197.099609375 414.900390625 225.900390625 436.5 c 0,52,53
 279 477.900390625 279 477.900390625 309.599609375 514.799804688 c 0,54,55
 324 531.900390625 324 531.900390625 328.950195312 541.799804688 c 128,-1,56
 333.900390625 551.700195312 333.900390625 551.700195312 333.900390625 556.200195312 c 128,-1,57
 333.900390625 560.700195312 333.900390625 560.700195312 327.599609375 563.849609375 c 128,-1,58
 321.299804688 567 321.299804688 567 296.099609375 569.700195312 c 0,59,60
 280.799804688 570.599609375 280.799804688 570.599609375 275.400390625 570.599609375 c 0,61,62
 242.099609375 570.599609375 242.099609375 570.599609375 218.700195312 563.400390625 c 0,63,64
 188.099609375 553.5 188.099609375 553.5 148.5 526.5 c 0,65,66
 100.799804688 491.400390625 100.799804688 491.400390625 77.400390625 490.5 c 0,67,68
 69.2998046875 490.5 69.2998046875 490.5 63.900390625 495 c 0,69,70
 51.2998046875 503.099609375 51.2998046875 503.099609375 51.2998046875 522.450195312 c 128,-1,71
 51.2998046875 541.799804688 51.2998046875 541.799804688 68.400390625 578.700195312 c 0,72,73
 93.599609375 634.5 93.599609375 634.5 138.599609375 664.200195312 c 0,74,75
 188.099609375 694.799804688 188.099609375 694.799804688 273.599609375 705.599609375 c 0,76,77
 289.799804688 707.400390625 289.799804688 707.400390625 305.099609375 707.400390625 c 0,78,79
 339.299804688 707.400390625 339.299804688 707.400390625 369 697.5 c 0,80,81
 413.099609375 683.099609375 413.099609375 683.099609375 441 654.299804688 c 1,82,-1
 441 653.400390625 l 1,83,84
 476.099609375 610.200195312 476.099609375 610.200195312 477 561.599609375 c 0,85,86
 477 508.5 477 508.5 433.799804688 450 c 0,87,88
 424.799804688 439.200195312 424.799804688 439.200195312 410.400390625 419.400390625 c 1,89,90
 423.900390625 413.099609375 423.900390625 413.099609375 436.5 410.400390625 c 0,91,92
 436.5 408.599609375 436.5 408.599609375 437.400390625 410.400390625 c 0,93,94
 495 387 495 387 527.400390625 331.200195312 c 0,0,1
EndSplineSet
Validated: 1
EndChar

StartChar: four
Encoding: 52 52 23
Width: 655
VWidth: 1075
GlyphClass: 1
Flags: W
LayerCount: 2
Fore
SplineSet
97.2001953125 265.5 m 0,0,1
 77.400390625 269.099609375 77.400390625 269.099609375 66.599609375 276.299804688 c 128,-1,2
 55.7998046875 283.5 55.7998046875 283.5 45.4501953125 298.799804688 c 128,-1,3
 35.099609375 314.099609375 35.099609375 314.099609375 34.650390625 336.150390625 c 128,-1,4
 34.2001953125 358.200195312 34.2001953125 358.200195312 33.2998046875 382.950195312 c 128,-1,5
 32.400390625 407.700195312 32.400390625 407.700195312 32.400390625 428.849609375 c 128,-1,6
 32.400390625 450 32.400390625 450 34.2001953125 486 c 0,7,8
 36 553.5 36 553.5 38.7001953125 588.599609375 c 0,9,10
 44.099609375 666 44.099609375 666 59.400390625 684 c 0,11,12
 68.400390625 694.799804688 68.400390625 694.799804688 85.5 694.799804688 c 0,13,14
 86.400390625 694.799804688 86.400390625 694.799804688 87.2998046875 694.799804688 c 0,15,16
 106.200195312 694.799804688 106.200195312 694.799804688 118.799804688 680.400390625 c 0,17,18
 128.700195312 670.5 128.700195312 670.5 135 653.400390625 c 0,19,20
 146.700195312 619.200195312 146.700195312 619.200195312 148.5 511.200195312 c 0,21,22
 150.299804688 437.400390625 150.299804688 437.400390625 152.099609375 389.700195312 c 1,23,-1
 298.799804688 389.700195312 l 1,24,25
 301.5 438.299804688 301.5 438.299804688 303.299804688 513 c 0,26,27
 305.099609375 603.900390625 305.099609375 603.900390625 310.950195312 633.599609375 c 128,-1,28
 316.799804688 663.299804688 316.799804688 663.299804688 334.799804688 680.400390625 c 0,29,30
 343.799804688 690.299804688 343.799804688 690.299804688 350.549804688 695.700195312 c 128,-1,31
 357.299804688 701.099609375 357.299804688 701.099609375 364.5 701.099609375 c 0,32,33
 369.900390625 701.099609375 369.900390625 701.099609375 378 695.700195312 c 0,34,35
 387.900390625 689.400390625 387.900390625 689.400390625 396.900390625 682.200195312 c 0,36,37
 416.700195312 664.200195312 416.700195312 664.200195312 422.099609375 639.900390625 c 128,-1,38
 427.5 615.599609375 427.5 615.599609375 428.400390625 522.900390625 c 0,39,40
 431.099609375 459 431.099609375 459 433.799804688 403.200195312 c 1,41,42
 466.200195312 397.799804688 466.200195312 397.799804688 498.599609375 396 c 0,43,44
 566.099609375 389.700195312 566.099609375 389.700195312 593.099609375 369.900390625 c 0,45,46
 622.799804688 348.299804688 622.799804688 348.299804688 622.799804688 304.200195312 c 0,47,48
 622.799804688 267.299804688 622.799804688 267.299804688 594.900390625 252 c 0,49,50
 570.599609375 238.5 570.599609375 238.5 502.200195312 238.5 c 2,51,-1
 441.900390625 238.5 l 1,52,53
 441.900390625 225 441.900390625 225 441.900390625 202.5 c 0,54,55
 441 138.599609375 441 138.599609375 430.200195312 89.099609375 c 0,56,57
 418.5 37.7998046875 418.5 37.7998046875 397.799804688 24.2998046875 c 0,58,59
 378.900390625 9 378.900390625 9 367.200195312 9 c 2,60,-1
 366.299804688 9 l 2,61,62
 353.700195312 9 353.700195312 9 333 26.099609375 c 0,63,64
 318.599609375 37.7998046875 318.599609375 37.7998046875 311.849609375 63 c 128,-1,65
 305.099609375 88.2001953125 305.099609375 88.2001953125 302.400390625 151.200195312 c 0,66,67
 299.700195312 203.400390625 299.700195312 203.400390625 296.099609375 244.799804688 c 1,68,69
 261.900390625 250.200195312 261.900390625 250.200195312 229.5 250.200195312 c 0,70,71
 225 250.200195312 225 250.200195312 219.599609375 250.200195312 c 0,72,73
 130.5 256.5 130.5 256.5 97.2001953125 265.5 c 0,0,1
EndSplineSet
Validated: 1
EndChar

StartChar: five
Encoding: 53 53 24
Width: 614
VWidth: 1075
GlyphClass: 1
Flags: W
LayerCount: 2
Fore
SplineSet
92.7001953125 128.700195312 m 128,-1,1
 92.7001953125 152.099609375 92.7001953125 152.099609375 104.400390625 166.5 c 0,2,3
 114.299804688 178.200195312 114.299804688 178.200195312 130.5 184.5 c 0,4,5
 141.299804688 188.099609375 141.299804688 188.099609375 153 188.099609375 c 0,6,7
 178.200195312 188.099609375 178.200195312 188.099609375 207.900390625 166.5 c 0,8,9
 228.599609375 152.099609375 228.599609375 152.099609375 259.200195312 152.099609375 c 0,10,11
 306.900390625 152.099609375 306.900390625 152.099609375 354.599609375 178.200195312 c 0,12,13
 420.299804688 214.200195312 420.299804688 214.200195312 432.900390625 241.200195312 c 0,14,15
 435.599609375 246.599609375 435.599609375 246.599609375 435.599609375 252 c 0,16,17
 435.599609375 267.299804688 435.599609375 267.299804688 412.200195312 282.599609375 c 1,18,-1
 412.200195312 283.5 l 1,19,20
 394.200195312 297 394.200195312 297 377.099609375 299.700195312 c 128,-1,21
 360 302.400390625 360 302.400390625 316.799804688 302.400390625 c 0,22,23
 306 302.400390625 306 302.400390625 293.400390625 302.400390625 c 0,24,25
 198 300.599609375 198 300.599609375 161.099609375 295.200195312 c 0,26,27
 153 294.299804688 153 294.299804688 146.700195312 294.299804688 c 0,28,29
 126.900390625 294.299804688 126.900390625 294.299804688 117.900390625 300.599609375 c 0,30,31
 111.599609375 305.099609375 111.599609375 305.099609375 106.200195312 315.900390625 c 128,-1,32
 100.799804688 326.700195312 100.799804688 326.700195312 96.2998046875 345.599609375 c 0,33,34
 81.900390625 391.5 81.900390625 391.5 60.75 486.450195312 c 128,-1,35
 39.599609375 581.400390625 39.599609375 581.400390625 34.2001953125 610.200195312 c 0,36,37
 34.2001953125 613.799804688 34.2001953125 613.799804688 34.650390625 616.049804688 c 128,-1,38
 35.099609375 618.299804688 35.099609375 618.299804688 33.75 622.349609375 c 128,-1,39
 32.400390625 626.400390625 32.400390625 626.400390625 32.400390625 630.900390625 c 0,40,41
 32.400390625 639.900390625 32.400390625 639.900390625 37.7998046875 646.200195312 c 0,42,43
 41.400390625 649.799804688 41.400390625 649.799804688 43.2001953125 653.400390625 c 0,44,45
 47.7001953125 661.5 47.7001953125 661.5 57.599609375 666.900390625 c 128,-1,46
 67.5 672.299804688 67.5 672.299804688 76.5 674.549804688 c 128,-1,47
 85.5 676.799804688 85.5 676.799804688 99.900390625 679.5 c 0,48,49
 131.400390625 684.900390625 131.400390625 684.900390625 187.200195312 688.5 c 0,50,51
 249.299804688 692.099609375 249.299804688 692.099609375 319.950195312 694.349609375 c 128,-1,52
 390.599609375 696.599609375 390.599609375 696.599609375 423 696.599609375 c 128,-1,53
 455.400390625 696.599609375 455.400390625 696.599609375 464.400390625 696.599609375 c 0,54,55
 499.5 693.900390625 499.5 693.900390625 522 673.200195312 c 0,56,57
 552.599609375 644.400390625 552.599609375 644.400390625 552.599609375 610.200195312 c 0,58,59
 552.599609375 580.5 552.599609375 580.5 528.299804688 554.400390625 c 0,60,61
 510.299804688 535.5 510.299804688 535.5 477.900390625 532.799804688 c 0,62,63
 443.700195312 530.099609375 443.700195312 530.099609375 357.299804688 530.099609375 c 128,-1,64
 270.900390625 530.099609375 270.900390625 530.099609375 240.299804688 530.099609375 c 0,65,66
 198 529.200195312 198 529.200195312 177.299804688 524.700195312 c 1,67,68
 179.099609375 515.700195312 179.099609375 515.700195312 189 483.299804688 c 0,69,70
 198 450.900390625 198 450.900390625 200.700195312 444.599609375 c 0,71,72
 203.400390625 437.400390625 203.400390625 437.400390625 205.200195312 434.700195312 c 0,73,74
 208.799804688 435.599609375 208.799804688 435.599609375 215.099609375 438.299804688 c 0,75,76
 244.799804688 451.799804688 244.799804688 451.799804688 297 451.799804688 c 0,77,78
 312.299804688 451.799804688 312.299804688 451.799804688 329.400390625 450 c 0,79,80
 405 445.5 405 445.5 455.400390625 426.599609375 c 0,81,82
 527.400390625 398.700195312 527.400390625 398.700195312 558.900390625 349.200195312 c 0,83,84
 582.299804688 312.299804688 582.299804688 312.299804688 582.299804688 264.599609375 c 0,85,86
 582.299804688 245.700195312 582.299804688 245.700195312 580.5 228.599609375 c 0,87,88
 573.299804688 188.099609375 573.299804688 188.099609375 543.599609375 147.599609375 c 0,89,90
 486.900390625 68.400390625 486.900390625 68.400390625 383.400390625 27 c 0,91,92
 329.400390625 5.400390625 329.400390625 5.400390625 279 5.400390625 c 0,93,94
 277.200195312 5.400390625 277.200195312 5.400390625 274.5 5.400390625 c 0,95,96
 230.400390625 5.400390625 230.400390625 5.400390625 198 19.7998046875 c 0,97,98
 160.200195312 38.7001953125 160.200195312 38.7001953125 126 70.2001953125 c 0,99,0
 92.7001953125 105.299804688 92.7001953125 105.299804688 92.7001953125 128.700195312 c 128,-1,1
EndSplineSet
Validated: 1
EndChar

StartChar: six
Encoding: 54 54 25
Width: 575
VWidth: 1075
GlyphClass: 1
Flags: W
LayerCount: 2
Fore
SplineSet
390.599609375 677.700195312 m 4,0,1
 407.700195312 661.5 407.700195312 661.5 407.700195312 641.700195312 c 4,2,3
 407.700195312 608.400390625 407.700195312 608.400390625 362.700195312 579.599609375 c 4,4,5
 323.092949242 554.979673667 323.092949242 554.979673667 281.700195312 511.200195312 c 4,6,7
 224 449 224 449 217.799804688 435.599609375 c 5,8,9
 261 450 261 450 304.200195312 450 c 4,10,11
 382.5 450 382.5 450 436.5 421.200195312 c 4,12,13
 522.224637346 378.33787664 522.224637346 378.33787664 538.200195312 274.5 c 4,14,15
 546.215943492 228.009356369 546.215943492 228.009356369 540 184.5 c 4,16,17
 528.301852191 85.0720898138 528.301852191 85.0720898138 441.900390625 30.599609375 c 4,18,19
 393.299804688 2.7001953125 393.299804688 2.7001953125 299.700195312 2.7001953125 c 4,20,21
 220.5 2.7001953125 220.5 2.7001953125 174.599609375 25.2001953125 c 4,22,23
 95.400390625 63 95.400390625 63 56.7001953125 154.799804688 c 4,24,25
 32.400390625 213.299804688 32.400390625 213.299804688 32.400390625 270 c 4,26,27
 32.400390625 302.400390625 32.400390625 302.400390625 40.5 334.799804688 c 4,28,29
 61.2001953125 418.5 61.2001953125 418.5 112.5 504 c 4,30,31
 232.437088816 693.900390625 232.437088816 693.900390625 343.799804688 693.900390625 c 4,32,33
 372.599609375 693.900390625 372.599609375 693.900390625 390.599609375 677.700195312 c 4,0,1
249 287 m 4,34,35
 155 266 155 266 162.900390625 230.400390625 c 4,36,37
 179 162 179 162 284.400390625 155.700195312 c 4,38,39
 385 150 385 150 385.200195312 223.200195312 c 4,40,41
 385 318 385 318 249 287 c 4,34,35
EndSplineSet
Validated: 33
EndChar

StartChar: seven
Encoding: 55 55 26
Width: 619
VWidth: 1075
GlyphClass: 1
Flags: W
LayerCount: 2
Fore
SplineSet
212.849609375 18.900390625 m 128,-1,1
 192.599609375 38.7001953125 192.599609375 38.7001953125 192.599609375 65.7001953125 c 0,2,3
 192.599609375 72.900390625 192.599609375 72.900390625 198 89.099609375 c 0,4,5
 215.099609375 139.5 215.099609375 139.5 296.549804688 314.099609375 c 128,-1,6
 378 488.700195312 378 488.700195312 397.799804688 533.700195312 c 1,7,8
 355.5 537.299804688 355.5 537.299804688 241.200195312 540.900390625 c 0,9,10
 129.599609375 543.599609375 129.599609375 543.599609375 97.2001953125 549 c 128,-1,11
 64.7998046875 554.400390625 64.7998046875 554.400390625 48.599609375 571.950195312 c 128,-1,12
 32.400390625 589.5 32.400390625 589.5 32.400390625 608.400390625 c 0,13,14
 32.400390625 640.799804688 32.400390625 640.799804688 64.7998046875 656.099609375 c 0,15,16
 88.2001953125 666.900390625 88.2001953125 666.900390625 140.400390625 673.200195312 c 0,17,18
 194.400390625 679.5 194.400390625 679.5 281.25 683.549804688 c 128,-1,19
 368.099609375 687.599609375 368.099609375 687.599609375 396 688.950195312 c 128,-1,20
 423.900390625 690.299804688 423.900390625 690.299804688 441.450195312 690.299804688 c 128,-1,21
 459 690.299804688 459 690.299804688 485.099609375 689.400390625 c 0,22,23
 509.400390625 688.5 509.400390625 688.5 524.25 685.349609375 c 128,-1,24
 539.099609375 682.200195312 539.099609375 682.200195312 553.950195312 674.099609375 c 128,-1,25
 568.799804688 666 568.799804688 666 575.099609375 653.400390625 c 0,26,27
 581.400390625 639.900390625 581.400390625 639.900390625 585.900390625 627.299804688 c 0,28,29
 587.700195312 621 587.700195312 621 587.700195312 613.799804688 c 0,30,31
 587.700195312 590.400390625 587.700195312 590.400390625 569.700195312 545.849609375 c 128,-1,32
 551.700195312 501.299804688 551.700195312 501.299804688 469.799804688 324 c 0,33,34
 432.900390625 244.799804688 432.900390625 244.799804688 404.099609375 191.700195312 c 0,35,36
 340.200195312 73.7998046875 340.200195312 73.7998046875 312.299804688 38.7001953125 c 0,37,38
 295.200195312 17.099609375 295.200195312 17.099609375 279.900390625 8.099609375 c 128,-1,39
 264.599609375 -0.900390625 264.599609375 -0.900390625 252 -0.900390625 c 0,40,0
 233.099609375 -0.900390625 233.099609375 -0.900390625 212.849609375 18.900390625 c 128,-1,1
EndSplineSet
Validated: 1
EndChar

StartChar: eight
Encoding: 56 56 27
Width: 605
VWidth: 1075
GlyphClass: 1
Flags: W
LayerCount: 2
Fore
SplineSet
403.200195312 612.900390625 m 1,0,1
 426.70740854 583.015421713 426.70740854 583.015421713 430.5 548.25 c 0,2,3
 432 530 432 530 429 506 c 0,4,5
 429 506 429 506 413.099609375 433.799804688 c 1,6,7
 443 432 443 432 487.799804688 394.200195312 c 0,8,9
 536 354 536 354 549.900390625 324 c 0,10,11
 573 276 573 276 573.299804688 230.400390625 c 0,12,13
 573 193 573 193 561.599609375 158.400390625 c 0,14,15
 533 77 533 77 450 36 c 0,16,17
 385.835102667 5.02384266676 385.835102667 5.02384266676 278.099609375 2.7001953125 c 0,18,19
 213 3 213 3 176.400390625 20.7001953125 c 0,20,21
 138 40 138 40 117 62.099609375 c 0,22,23
 95 86 95 86 78.75 127.349609375 c 0,24,25
 62 169 62 169 62.099609375 208.799804688 c 0,26,27
 62 259 62 259 94.5 310.5 c 0,28,29
 116 345 116 345 129.599609375 357.299804688 c 1,30,31
 124 361 124 361 110.700195312 369 c 0,32,33
 66.6134689908 393.405152071 66.6134689908 393.405152071 50.849609375 420.75 c 0,34,35
 32 453 32 453 32.400390625 503.099609375 c 0,36,37
 33 552 33 552 55.349609375 599.400390625 c 0,38,39
 77 647 77 647 113.400390625 670.5 c 0,40,41
 150 693 150 693 212.400390625 694.799804688 c 0,42,43
 261.491002693 696.288939854 261.491002693 696.288939854 323.549804688 670.049804688 c 0,44,45
 373 649 373 649 403.200195312 613.799804688 c 1,46,-1
 403.200195312 612.900390625 l 1,0,1
272.700195312 541.799804688 m 0,47,48
 240.299804688 558 240.299804688 558 207.900390625 558 c 0,49,50
 182.700195312 558 182.700195312 558 177.299804688 554.400390625 c 0,51,52
 150 534 150 534 153.900390625 492.75 c 0,53,54
 155.425516315 486.144778736 155.425516315 486.144778736 201.599609375 475.650390625 c 0,55,56
 231.299804688 468.900390625 231.299804688 468.900390625 251.099609375 468.900390625 c 0,57,58
 269.099609375 468.900390625 269.099609375 468.900390625 281.700195312 484.200195312 c 0,59,60
 300.599609375 503.099609375 300.599609375 503.099609375 300.599609375 516.599609375 c 0,61,62
 300.599609375 527.400390625 300.599609375 527.400390625 272.700195312 541.799804688 c 0,47,48
218.700195312 264.599609375 m 0,63,64
 195 236 195 236 197 200 c 0,65,66
 199 159 199 159 269 148 c 0,67,68
 332 139 332 139 362 153 c 0,69,70
 434 189 434 189 433.799804688 228.599609375 c 0,71,72
 434 258 434 258 400.5 281.700195312 c 0,73,74
 340 323 340 323 298 322 c 0,75,76
 266 321 266 321 218.700195312 264.599609375 c 0,63,64
EndSplineSet
Validated: 33
EndChar

StartChar: nine
Encoding: 57 57 28
Width: 522
VWidth: 1075
GlyphClass: 1
Flags: W
LayerCount: 2
Fore
SplineSet
259.200195312 675 m 0,0,1
 313.200195312 694.799804688 313.200195312 694.799804688 370.799804688 694.799804688 c 0,2,3
 431.099609375 694.799804688 431.099609375 694.799804688 455.400390625 669.599609375 c 0,4,5
 465.299804688 658.799804688 465.299804688 658.799804688 472.5 621.450195312 c 128,-1,6
 479.700195312 584.099609375 479.700195312 584.099609375 485.099609375 497.25 c 128,-1,7
 490.5 410.400390625 490.5 410.400390625 490.5 310.5 c 0,8,9
 490.5 90 490.5 90 468.900390625 41.400390625 c 0,10,11
 451.799804688 2.7001953125 451.799804688 2.7001953125 424.799804688 2.7001953125 c 0,12,13
 402.299804688 2.7001953125 402.299804688 2.7001953125 383.400390625 31.5 c 0,14,15
 362.700195312 60.2998046875 362.700195312 60.2998046875 356.400390625 148.5 c 0,16,17
 355.5 163.799804688 355.5 163.799804688 353.700195312 189.450195312 c 128,-1,18
 351.900390625 215.099609375 351.900390625 215.099609375 351 222.299804688 c 1,19,-1
 270.900390625 222.299804688 l 2,20,21
 187.200195312 222.299804688 187.200195312 222.299804688 133.200195312 243.900390625 c 0,22,23
 84.599609375 265.5 84.599609375 265.5 56.7001953125 315.900390625 c 0,24,25
 32.400390625 358.200195312 32.400390625 358.200195312 32.400390625 405 c 0,26,27
 32.400390625 460.799804688 32.400390625 460.799804688 61.2001953125 516.599609375 c 0,28,29
 86.400390625 566.099609375 86.400390625 566.099609375 135 607.5 c 0,30,31
 189 649.799804688 189 649.799804688 259.200195312 675 c 0,0,1
353.700195312 391.5 m 1,32,-1
 353.700195312 488.700195312 l 2,33,34
 353.700195312 552.599609375 353.700195312 552.599609375 351 569.700195312 c 0,35,36
 350.099609375 574.200195312 350.099609375 574.200195312 350.099609375 577.799804688 c 1,37,38
 270.900390625 554.400390625 270.900390625 554.400390625 214.200195312 505.799804688 c 0,39,40
 162 460.799804688 162 460.799804688 159.299804688 422.099609375 c 0,41,42
 159.299804688 417.599609375 159.299804688 417.599609375 159.299804688 416.700195312 c 0,43,44
 159.299804688 401.400390625 159.299804688 401.400390625 162 396.900390625 c 0,45,46
 166.5 391.5 166.5 391.5 189.900390625 382.5 c 0,47,48
 225 369 225 369 245.700195312 369 c 128,-1,49
 266.400390625 369 266.400390625 369 313.200195312 379.799804688 c 2,50,-1
 353.700195312 391.5 l 1,32,-1
EndSplineSet
Validated: 1
EndChar

StartChar: colon
Encoding: 58 58 29
Width: 279
VWidth: 1075
GlyphClass: 1
Flags: MW
LayerCount: 2
Fore
SplineSet
145 650 m 4,0,1
 154.899414062 650.900390625 154.899414062 650.900390625 156.69921875 650.900390625 c 6,2,-1
 158.5 650.900390625 l 6,3,4
 187.299804688 650.900390625 187.299804688 650.900390625 210.69921875 630.200195312 c 4,5,6
 239.5 604.099609375 239.5 604.099609375 239.5 554.599609375 c 4,7,8
 239.5 497.900390625 239.5 497.900390625 212.94921875 462.799804688 c 132,-1,9
 186.399414062 427.700195312 186.399414062 427.700195312 141.399414062 427.700195312 c 4,10,11
 90.099609375 427.700195312 90.099609375 427.700195312 68.5 469.099609375 c 4,12,13
 46.8994140625 504.200195312 46.8994140625 504.200195312 46.8994140625 532.099609375 c 132,-1,14
 46.8994140625 560 46.8994140625 560 68.5 593.299804688 c 4,15,16
 98.19921875 643.700195312 98.19921875 643.700195312 145 650 c 4,0,1
217 199.099609375 m 4,17,18
 237.69921875 173.900390625 237.69921875 173.900390625 244 155.900390625 c 4,19,20
 247.599609375 145.099609375 247.599609375 145.099609375 247.599609375 133.400390625 c 4,21,22
 247.599609375 120.799804688 247.599609375 120.799804688 244.899414062 110 c 4,23,24
 230.5 46.099609375 230.5 46.099609375 180.099609375 15.5 c 4,25,26
 154 -0.7001953125 154 -0.7001953125 129.69921875 -0.7001953125 c 132,-1,27
 105.399414062 -0.7001953125 105.399414062 -0.7001953125 83.7998046875 13.7001953125 c 4,28,29
 54.099609375 33.5 54.099609375 33.5 43.2998046875 54.650390625 c 132,-1,30
 32.5 75.7998046875 32.5 75.7998046875 32.5 120.799804688 c 4,31,32
 32.5 171.200195312 32.5 171.200195312 61.2998046875 203.599609375 c 4,33,34
 91.8994140625 238.700195312 91.8994140625 238.700195312 136.899414062 238.700195312 c 132,-1,35
 181.899414062 238.700195312 181.899414062 238.700195312 217 199.099609375 c 4,17,18
EndSplineSet
Validated: 1
EndChar

StartChar: semicolon
Encoding: 59 59 30
Width: 275
VWidth: 1075
GlyphClass: 1
Flags: MW
LayerCount: 2
Fore
SplineSet
246.25 496.650390625 m 0,0,1
 246.25 449.850585938 246.25 449.850585938 217.44921875 419.25 c 0,2,3
 197.649414062 396.75 197.649414062 396.75 155.349609375 395.850585938 c 0,4,5
 100.44921875 395.850585938 100.44921875 395.850585938 76.1494140625 425.55078125 c 0,6,7
 50.94921875 453.450195312 50.94921875 453.450195312 50.94921875 493.950195312 c 0,8,9
 50.94921875 508.350585938 50.94921875 508.350585938 53.6494140625 524.55078125 c 0,10,11
 65.349609375 585.75 65.349609375 585.75 112.149414062 607.350585938 c 0,12,13
 127.44921875 614.55078125 127.44921875 614.55078125 146.349609375 614.55078125 c 0,14,15
 174.25 614.55078125 174.25 614.55078125 199.44921875 594.30078125 c 128,-1,16
 224.649414062 574.05078125 224.649414062 574.05078125 237.25 545.25 c 0,17,18
 246.25 522.75 246.25 522.75 246.25 496.650390625 c 0,0,1
40.75 158.799804688 m 0,19,20
 41 190 41 190 76.30078125 218.649414062 c 0,21,22
 112 247 112 247 142 247 c 128,-1,23
 172 247 172 247 200.950195312 220.899414062 c 0,24,25
 240 185 240 185 239.650390625 133.599609375 c 0,26,27
 240 100 240 100 221.650390625 43.599609375 c 0,28,29
 201 -22 201 -22 172 -55 c 0,30,31
 134 -99 134 -99 109 -109.900390625 c 0,32,33
 102 -113 102 -113 94.6005859375 -112.599609375 c 0,34,35
 75 -113 75 -113 58.6005859375 -91 c 0,36,37
 52 -82 52 -82 52.30078125 -70.75 c 0,38,39
 52 -60 52 -60 55.900390625 -48.7001953125 c 0,40,41
 60.8843692824 -41.9716807461 60.8843692824 -41.9716807461 90.1005859375 17 c 0,42,43
 101 39 101 39 112.75 60.7001953125 c 1,44,45
 92 62 92 62 66.400390625 96.7001953125 c 0,46,47
 41 131 41 131 40.75 158.799804688 c 0,19,20
EndSplineSet
Validated: 33
EndChar

StartChar: less
Encoding: 60 60 31
Width: 524
VWidth: 1075
GlyphClass: 1
Flags: MW
LayerCount: 2
Fore
SplineSet
325.599609375 206.099609375 m 0,0,1
 407 127 407 127 425.5 103.5 c 0,2,3
 434 93 434 93 433.799804688 50.849609375 c 0,4,5
 434 28 434 28 424.799804688 12.599609375 c 0,6,7
 411 -9 411 -9 381.599609375 -9 c 0,8,9
 334 -9 334 -9 285.299804688 36.900390625 c 0,10,11
 66 244 66 244 34.2001953125 320.400390625 c 0,12,13
 31 328 31 328 35.099609375 341.099609375 c 0,14,15
 54 390 54 390 86.400390625 429.299804688 c 0,16,17
 126 478 126 478 196.200195312 540.900390625 c 0,18,19
 329 660 329 660 396.900390625 697.5 c 0,20,21
 427 714 427 714 435.599609375 709.200195312 c 0,22,23
 436 709 436 709 437.400390625 709.200195312 c 0,24,25
 454 709 454 709 468 699.299804688 c 0,26,27
 493 683 493 683 492.299804688 653.400390625 c 0,28,29
 492 643 492 643 488.700195312 629.099609375 c 0,30,31
 488 625 488 625 469.799804688 602.099609375 c 0,32,33
 447 573 447 573 438.700195312 565.799804688 c 0,34,35
 316 454 316 454 316 454 c 0,36,37
 235 380 235 380 196 348 c 1,38,39
 196 331 196 331 325.599609375 206.099609375 c 0,0,1
EndSplineSet
Validated: 33
EndChar

StartChar: equal
Encoding: 61 61 32
Width: 736
VWidth: 1075
GlyphClass: 1
Flags: MW
LayerCount: 2
Fore
SplineSet
76.5 627.299804688 m 0,0,1
 96 646 96 646 118.799804688 648.900390625 c 0,2,3
 144 652 144 652 202.049804688 652.5 c 128,-1,4
 260 653 260 653 355.5 651.599609375 c 0,5,6
 457 650 457 650 518.400390625 645.299804688 c 0,7,8
 620.97796927 638.139636661 620.97796927 638.139636661 629.099609375 631.799804688 c 0,9,10
 677 602 677 602 676.799804688 550.799804688 c 0,11,12
 677 479 677 479 630.900390625 478.799804688 c 0,13,14
 532.449439088 477.403493114 532.449439088 477.403493114 480 480 c 0,15,16
 282 492 282 492 210 498 c 0,17,18
 83.4509123067 510.584646857 83.4509123067 510.584646857 80.099609375 513.900390625 c 0,19,20
 49 534 49 534 48.599609375 564.75 c 0,21,22
 49 601 49 601 76.5 627.299804688 c 0,0,1
703.799804688 262.799804688 m 0,23,24
 704 241 704 241 692.099609375 219.599609375 c 0,25,26
 671.155331851 179.582108316 671.155331851 179.582108316 608.400390625 172.799804688 c 0,27,28
 600 172 600 172 577.799804688 173.700195312 c 0,29,30
 551 175 551 175 346.950195312 180.900390625 c 128,-1,31
 143 187 143 187 104.400390625 193.5 c 0,32,33
 70 200 70 200 49.5 225 c 0,34,35
 33 245 33 245 32.400390625 270.900390625 c 0,36,37
 32 283 32 283 36 293.400390625 c 0,38,39
 53 342 53 342 88.2001953125 342.900390625 c 0,40,41
 206 345 206 345 213.299804688 345.5 c 0,42,43
 322 342 322 342 423 342 c 0,44,45
 464 342 464 342 539 339 c 0,46,47
 653.281687143 334.428732514 653.281687143 334.428732514 680.400390625 324.900390625 c 0,48,49
 704.156135737 316.553647153 704.156135737 316.553647153 703.799804688 262.799804688 c 0,23,24
EndSplineSet
Validated: 33
EndChar

StartChar: greater
Encoding: 62 62 33
Width: 451
VWidth: 1075
GlyphClass: 1
Flags: MW
LayerCount: 2
Fore
SplineSet
32.400390625 31.5 m 0,0,1
 23 75 23 75 39 94 c 0,2,3
 261 353 261 353 261 353 c 1,4,-1
 155 475 l 24,5,6
 45 595 45 595 42 612 c 0,7,8
 40 623 40 623 38.25 634.049804688 c 0,9,10
 37 640 37 640 36.900390625 645.299804688 c 0,11,12
 37 662 37 662 50.400390625 680.400390625 c 0,13,14
 68 705 68 705 87.2998046875 704.700195312 c 0,15,16
 98 705 98 705 121.5 690.299804688 c 0,17,18
 145 676 145 676 186.299804688 643.5 c 0,19,20
 260 585 260 585 330.299804688 511.200195312 c 1,21,22
 393 438 393 438 406.349609375 404.099609375 c 0,23,24
 420 367 420 367 419.400390625 348.299804688 c 0,25,26
 419 335 419 335 417.5 333 c 0,27,28
 415 329 415 329 411.299804688 321.299804688 c 0,29,30
 394 286 394 286 356 232 c 0,31,32
 356 232 356 232 220.55078125 92.0498046875 c 0,33,34
 148 17 148 17 130.400390625 0.599609375 c 0,35,36
 109 -20 109 -20 84.2001953125 -16.7001953125 c 0,37,38
 62 -14 62 -14 44.099609375 -0.900390625 c 0,39,40
 39 3 39 3 32.400390625 31.5 c 0,0,1
EndSplineSet
Validated: 33
EndChar

StartChar: question
Encoding: 63 63 34
Width: 558
VWidth: 1075
GlyphClass: 1
Flags: MW
LayerCount: 2
Fore
SplineSet
289.799804688 880.799804688 m 2,0,-1
 292.5 880.799804688 l 2,1,2
 394 881 394 881 447.299804688 842.099609375 c 0,3,4
 522 788 522 788 525.599609375 681.900390625 c 0,5,6
 526 670 526 670 526.5 658.5 c 0,7,8
 526 570 526 570 470.700195312 491.099609375 c 0,9,10
 405 398 405 398 304.200195312 367.799804688 c 0,11,12
 265 356 265 356 258.299804688 348.900390625 c 0,13,14
 256 346 256 346 252 333.599609375 c 0,15,16
 249 324 249 324 244.799804688 295.799804688 c 0,17,18
 238 247 238 247 216.900390625 212.099609375 c 0,19,20
 194 172 194 172 162.900390625 171.599609375 c 0,21,22
 142 172 142 172 117 191.400390625 c 0,23,24
 96 207 96 207 92.7001953125 232.799804688 c 0,25,26
 90 252 90 252 90 273.299804688 c 0,27,28
 89 304 89 304 90 319.200195312 c 0,29,30
 93.9558888453 354.723999879 93.9558888453 354.723999879 115 413 c 0,31,32
 128 450 128 450 191 472 c 0,33,34
 191 473 191 473 291 502 c 0,35,36
 319 510 319 510 353 554 c 0,37,38
 379 589 379 589 391 637 c 0,39,40
 397 661 397 661 387 698 c 0,41,42
 381 720 381 720 336 733 c 128,-1,43
 291 746 291 746 220.5 720 c 0,44,45
 155.930655972 696.187192273 155.930655972 696.187192273 148 664 c 0,46,47
 135 617 135 617 118.349609375 596.849609375 c 0,48,49
 108 585 108 585 90.900390625 585.599609375 c 0,50,51
 49 587 49 587 39.150390625 633.299804688 c 0,52,53
 29 684 29 684 32 705 c 0,54,55
 44 779 44 779 104.400390625 822.299804688 c 0,56,57
 187 881 187 881 289.799804688 880.799804688 c 2,0,-1
164.700195312 89.7001953125 m 0,58,59
 189.900390625 89.7001953125 189.900390625 89.7001953125 218.700195312 57.75 c 128,-1,60
 247.5 25.7998046875 247.5 25.7998046875 247.5 -3.900390625 c 128,-1,61
 247.5 -33.599609375 247.5 -33.599609375 216.450195312 -65.099609375 c 128,-1,62
 185.400390625 -96.599609375 185.400390625 -96.599609375 155.700195312 -96.599609375 c 0,63,64
 144 -96.599609375 144 -96.599609375 126 -87.599609375 c 0,65,66
 108.900390625 -78.599609375 108.900390625 -78.599609375 97.2001953125 -66.4501953125 c 128,-1,67
 85.5 -54.2998046875 85.5 -54.2998046875 77.400390625 -36.2998046875 c 128,-1,68
 69.2998046875 -18.2998046875 69.2998046875 -18.2998046875 69.2998046875 -4.349609375 c 128,-1,69
 69.2998046875 9.599609375 69.2998046875 9.599609375 76.9501953125 24 c 128,-1,70
 84.599609375 38.400390625 84.599609375 38.400390625 102.599609375 56.400390625 c 0,71,72
 135.900390625 89.7001953125 135.900390625 89.7001953125 164.700195312 89.7001953125 c 0,58,59
EndSplineSet
Validated: 33
EndChar

StartChar: at
Encoding: 64 64 35
Width: 692
VWidth: 1075
GlyphClass: 1
Flags: MW
LayerCount: 2
Fore
SplineSet
217.799804688 677.700195312 m 0,0,1
 252 698 252 698 275.849609375 702.450195312 c 0,2,3
 367 721 367 721 454.950195312 702.900390625 c 0,4,5
 479 698 479 698 504.900390625 683.099609375 c 0,6,7
 548 659 548 659 567 624.5 c 128,-1,8
 586 590 586 590 589.5 527.400390625 c 0,9,10
 591 499 591 499 576 386 c 1,11,12
 606 437 606 437 649.80078125 437.299804688 c 0,13,14
 698 437 698 437 684 395 c 0,15,16
 643 263 643 263 559 212.299804688 c 0,17,18
 547 205 547 205 522.099609375 205.099609375 c 0,19,20
 507 205 507 205 497.799804688 210.5 c 0,21,22
 478 222 478 222 478 251 c 0,23,24
 478 304 478 304 481 323.899414062 c 1,25,26
 417 263 417 263 372.700195312 243.799804688 c 0,27,28
 361 239 361 239 334 237.5 c 0,29,30
 315 237 315 237 279 257 c 0,31,32
 230 283 230 283 230.099609375 353.700195312 c 0,33,34
 230 400 230 400 261.599609375 448.200195312 c 0,35,36
 282 480 282 480 348 520 c 0,37,38
 392 547 392 547 463 555 c 1,39,40
 428 601 428 601 373 602 c 0,41,42
 329 603 329 603 282.150390625 579.150390625 c 0,43,44
 242 559 242 559 207 516.599609375 c 0,45,46
 173 475 173 475 158.400390625 445.5 c 0,47,48
 138 404 138 404 139.5 347.849609375 c 0,49,50
 140 325 140 325 164.700195312 262.799804688 c 0,51,52
 194 189 194 189 244.799804688 153.900390625 c 0,53,54
 292 121 292 121 389.700195312 109.799804688 c 0,55,56
 450 103 450 103 469.799804688 91.7998046875 c 0,57,58
 495 78 495 78 495 49.5 c 0,59,60
 495 15 495 15 450 -0.900390625 c 0,61,62
 419 -12 419 -12 378 -11.7001953125 c 0,63,64
 310 -12 310 -12 251.099609375 12.599609375 c 0,65,66
 183 41 183 41 146.700195312 78.2998046875 c 0,67,68
 110 117 110 117 79.2001953125 187.200195312 c 0,69,70
 32 294 32 294 32.400390625 358.200195312 c 0,71,72
 32 434 32 434 72.900390625 516.599609375 c 0,73,74
 126 624 126 624 217.799804688 677.700195312 c 0,0,1
324 340 m 0,75,76
 347.347350267 309.807502439 347.347350267 309.807502439 443 396 c 0,77,78
 463 414 463 414 477 448 c 1,79,80
 428 460 428 460 403 450 c 0,81,82
 318 419.903614626 318 419.903614626 318 364 c 0,83,84
 318 350 318 350 324 340 c 0,75,76
EndSplineSet
Validated: 33
EndChar

StartChar: A
Encoding: 65 65 36
Width: 535
VWidth: 1075
GlyphClass: 1
Flags: MW
LayerCount: 2
Fore
SplineSet
117 38.7001953125 m 128,-1,1
 100.799804688 6.2998046875 100.799804688 6.2998046875 80.099609375 6.2998046875 c 0,2,3
 56.7001953125 6.2998046875 56.7001953125 6.2998046875 39.599609375 27 c 0,4,5
 32.400390625 37.7998046875 32.400390625 37.7998046875 32.400390625 62.5498046875 c 128,-1,6
 32.400390625 87.2998046875 32.400390625 87.2998046875 38.7001953125 128.700195312 c 0,7,8
 50.400390625 206.099609375 50.400390625 206.099609375 90 382.5 c 0,9,10
 129.599609375 552.599609375 129.599609375 552.599609375 136.799804688 604.799804688 c 0,11,12
 143.099609375 645.299804688 143.099609375 645.299804688 165.599609375 671.400390625 c 0,13,14
 188.099609375 698.400390625 188.099609375 698.400390625 216.900390625 698.400390625 c 0,15,16
 231.299804688 698.400390625 231.299804688 698.400390625 239.400390625 693.900390625 c 0,17,18
 255.599609375 688.5 255.599609375 688.5 273.599609375 668.700195312 c 128,-1,19
 291.599609375 648.900390625 291.599609375 648.900390625 314.099609375 609.299804688 c 0,20,21
 353.700195312 539.099609375 353.700195312 539.099609375 422.099609375 367.200195312 c 1,22,23
 455.400390625 270.900390625 455.400390625 270.900390625 472.049804688 225 c 128,-1,24
 488.700195312 179.099609375 488.700195312 179.099609375 495.900390625 148.049804688 c 128,-1,25
 503.099609375 117 503.099609375 117 503.099609375 102.599609375 c 0,26,27
 503.099609375 81.900390625 503.099609375 81.900390625 486.900390625 62.099609375 c 0,28,29
 471.599609375 44.099609375 471.599609375 44.099609375 455.400390625 44.099609375 c 0,30,31
 454.5 44.099609375 454.5 44.099609375 453.599609375 44.099609375 c 0,32,33
 440.099609375 44.099609375 440.099609375 44.099609375 427.5 54.900390625 c 0,34,35
 403.200195312 74.7001953125 403.200195312 74.7001953125 367.200195312 142.200195312 c 2,36,-1
 333 210.599609375 l 1,37,38
 319.5 211.5 319.5 211.5 305.099609375 211.5 c 2,39,-1
 250.200195312 207 l 2,40,41
 180.900390625 204.299804688 180.900390625 204.299804688 160.200195312 202.5 c 1,42,43
 155.700195312 189.900390625 155.700195312 189.900390625 147.599609375 144.900390625 c 0,44,0
 133.200195312 71.099609375 133.200195312 71.099609375 117 38.7001953125 c 128,-1,1
231.299804688 337.5 m 0,45,46
 269.099609375 342 269.099609375 342 281.700195312 343.799804688 c 1,47,48
 275.400390625 363.599609375 275.400390625 363.599609375 257.400390625 409.049804688 c 128,-1,49
 239.400390625 454.5 239.400390625 454.5 228.599609375 477.900390625 c 1,50,51
 222.299804688 458.099609375 222.299804688 458.099609375 214.200195312 422.099609375 c 0,52,53
 198.900390625 351.900390625 198.900390625 351.900390625 193.5 333 c 1,54,55
 202.5 333.900390625 202.5 333.900390625 231.299804688 337.5 c 0,45,46
EndSplineSet
Validated: 1
EndChar

StartChar: B
Encoding: 66 66 37
Width: 529
VWidth: 1075
GlyphClass: 1
Flags: MW
LayerCount: 2
Fore
SplineSet
299.700195312 655.200195312 m 0,0,1
 362.700195312 613.799804688 362.700195312 613.799804688 362.700195312 548.099609375 c 0,2,3
 362.700195312 521.099609375 362.700195312 521.099609375 344.700195312 479.700195312 c 0,4,5
 331.200195312 449.099609375 331.200195312 449.099609375 318.599609375 435.599609375 c 1,6,7
 327 431 327 431 371.700195312 406.799804688 c 0,8,9
 449.095836074 363.260541697 449.095836074 363.260541697 469.799804688 332.549804688 c 0,10,11
 498.081879024 290.598265675 498.081879024 290.598265675 496.799804688 226.799804688 c 0,12,13
 496 187 496 187 472.950195312 137.25 c 0,14,15
 464.500588093 121.289630809 464.500588093 121.289630809 399.599609375 60.2998046875 c 0,16,17
 362.121869631 27.9440663512 362.121869631 27.9440663512 283.5 9.900390625 c 0,18,19
 256.5 3.599609375 256.5 3.599609375 227.700195312 3.599609375 c 0,20,21
 195.299804688 3.599609375 195.299804688 3.599609375 163.799804688 10.7998046875 c 0,22,23
 140.400390625 16.2001953125 140.400390625 16.2001953125 125.099609375 28.7998046875 c 0,24,25
 110.700195312 40.5 110.700195312 40.5 98.5498046875 64.349609375 c 128,-1,26
 86.400390625 88.2001953125 86.400390625 88.2001953125 78.2998046875 131.400390625 c 0,27,28
 63 214.200195312 63 214.200195312 45.900390625 385.200195312 c 0,29,30
 40.5 432.900390625 40.5 432.900390625 37.7998046875 457.200195312 c 128,-1,31
 35.099609375 481.5 35.099609375 481.5 34.2001953125 510.75 c 0,32,33
 31.686780242 592.400551183 31.686780242 592.400551183 38.7001953125 611.099609375 c 0,34,35
 47.2800141935 633.978092056 47.2800141935 633.978092056 84.599609375 663.299804688 c 0,36,37
 116.099609375 690.299804688 116.099609375 690.299804688 164.700195312 693.900390625 c 0,38,39
 243 693.900390625 243 693.900390625 299.700195312 655.200195312 c 0,0,1
252 548 m 0,40,41
 222 592 222 592 126 555 c 1,42,43
 127 504 127 504 139 452 c 1,44,45
 208.735416667 458.339583333 208.735416667 458.339583333 225 479 c 0,46,47
 263.134328358 531.298507463 263.134328358 531.298507463 252 548 c 0,40,41
346.5 177.299804688 m 0,48,49
 375 203 375 203 374.400390625 232.200195312 c 0,50,51
 374 254 374 254 360.900390625 265.5 c 0,52,53
 334 289 334 289 291.599609375 304.200195312 c 0,54,55
 249 320 249 320 214.200195312 321.299804688 c 0,56,-1
 164 320 l 1,57,58
 161 224 161 224 202 126 c 1,59,60
 241 114 241 114 288.900390625 135.900390625 c 0,61,62
 312 147 312 147 346.5 177.299804688 c 0,48,49
EndSplineSet
Validated: 545
EndChar

StartChar: C
Encoding: 67 67 38
Width: 533
VWidth: 1075
GlyphClass: 1
Flags: MW
LayerCount: 2
Fore
SplineSet
108 69.2998046875 m 0,0,1
 55.7998046875 114.299804688 55.7998046875 114.299804688 42.2998046875 173.700195312 c 0,2,3
 32.400390625 215.099609375 32.400390625 215.099609375 32.400390625 246.150390625 c 128,-1,4
 32.400390625 277.200195312 32.400390625 277.200195312 45.900390625 345.599609375 c 0,5,6
 76.5 501.299804688 76.5 501.299804688 189.900390625 622.799804688 c 0,7,8
 231.299804688 664.200195312 231.299804688 664.200195312 254.700195312 680.400390625 c 0,9,10
 278.099609375 697.5 278.099609375 697.5 301.5 697.5 c 0,11,12
 342.900390625 697.5 342.900390625 697.5 358.200195312 667.799804688 c 0,13,14
 364.5 655.200195312 364.5 655.200195312 364.5 643.5 c 128,-1,15
 364.5 631.799804688 364.5 631.799804688 359.099609375 622.799804688 c 0,16,17
 350.099609375 605.700195312 350.099609375 605.700195312 299.700195312 553.5 c 0,18,19
 230.400390625 483.299804688 230.400390625 483.299804688 199.349609375 422.549804688 c 128,-1,20
 168.299804688 361.799804688 168.299804688 361.799804688 157.5 283.5 c 0,21,22
 156.599609375 268.200195312 156.599609375 268.200195312 156.599609375 261 c 0,23,24
 156.599609375 257.400390625 156.599609375 257.400390625 156.599609375 254.700195312 c 0,25,26
 156.599609375 224.099609375 156.599609375 224.099609375 163.799804688 208.799804688 c 0,27,28
 173.700195312 188.099609375 173.700195312 188.099609375 214.200195312 170.099609375 c 1,29,-1
 214.200195312 169.200195312 l 1,30,31
 246.599609375 153 246.599609375 153 279.900390625 153 c 0,32,33
 281.700195312 153 281.700195312 153 283.5 153 c 0,34,35
 330.299804688 153 330.299804688 153 378.900390625 183.599609375 c 0,36,37
 422.099609375 212.400390625 422.099609375 212.400390625 450.900390625 212.400390625 c 0,38,39
 481.5 212.400390625 481.5 212.400390625 495 185.400390625 c 0,40,41
 501.299804688 170.099609375 501.299804688 170.099609375 501.299804688 146.700195312 c 0,42,43
 501.299804688 104.400390625 501.299804688 104.400390625 460.349609375 67.5 c 128,-1,44
 419.400390625 30.599609375 419.400390625 30.599609375 355.5 14.400390625 c 0,45,46
 315 4.5 315 4.5 279 4.5 c 0,47,48
 254.700195312 4.5 254.700195312 4.5 234.900390625 9 c 0,49,50
 162.900390625 24.2998046875 162.900390625 24.2998046875 108 69.2998046875 c 0,0,1
EndSplineSet
Validated: 1
EndChar

StartChar: D
Encoding: 68 68 39
Width: 585
VWidth: 1075
GlyphClass: 1
Flags: MW
LayerCount: 2
Fore
SplineSet
117.900390625 692.099609375 m 0,0,1
 133 692 133 692 169.200195312 689.400390625 c 0,2,3
 244 683 244 683 314.099609375 660.599609375 c 0,4,5
 361 645 361 645 385.650390625 631.799804688 c 0,6,7
 416 614 416 614 452.700195312 575.099609375 c 0,8,9
 552 468 552 468 553.5 339.299804688 c 0,10,11
 554 297 554 297 542.700195312 254.700195312 c 0,12,13
 526 195 526 195 452.700195312 121.5 c 1,14,15
 376 50 376 50 297.900390625 22.5 c 0,16,17
 246 4 246 4 192.599609375 0.900390625 c 0,18,19
 177 0 177 0 164.700195312 0 c 0,20,21
 128 0 128 0 113.400390625 10.7998046875 c 0,22,23
 103 18 103 18 94.5 45 c 128,-1,24
 86 72 86 72 79.2001953125 126.900390625 c 0,25,26
 66.3303287818 228.274927231 66.3303287818 228.274927231 49.5 432.900390625 c 2,27,-1
 32.400390625 640.799804688 l 1,28,29
 32 650 32 650 48 663 c 0,30,31
 72 683 72 683 90.7998046875 688.199707031 c 0,32,33
 104 692 104 692 117.900390625 692.099609375 c 0,0,1
181.349609375 374.400390625 m 2,34,35
 205 163 205 163 205 147 c 1,36,37
 307 163 307 163 379 247 c 0,38,39
 392 262 392 262 400.5 299.700195312 c 0,40,41
 402 306 402 306 402.299804688 318.150390625 c 0,42,43
 402 330 402 330 399.599609375 351 c 0,44,45
 393 432 393 432 334.799804688 488.25 c 0,46,47
 269 551 269 551 187.200195312 555.299804688 c 0,48,49
 173 556 173 556 161.099609375 555.299804688 c 1,50,51
 168.224690839 500.597528311 168.224690839 500.597528311 181.349609375 374.400390625 c 2,34,35
EndSplineSet
Validated: 545
EndChar

StartChar: E
Encoding: 69 69 40
Width: 556
VWidth: 1075
GlyphClass: 1
Flags: MW
LayerCount: 2
Fore
SplineSet
246.150390625 17.5498046875 m 0,0,1
 169 2 169 2 134.099609375 1.7998046875 c 0,2,3
 94 2 94 2 72.900390625 32.400390625 c 0,4,5
 56 57 56 57 48.150390625 131.400390625 c 0,6,7
 45 163 45 163 35.099609375 438.299804688 c 0,8,9
 32 529 32 529 36 590.400390625 c 0,10,11
 39 628 39 628 54.4501953125 646.650390625 c 0,12,13
 94 694 94 694 305.099609375 694.799804688 c 0,14,15
 341 695 341 695 363.599609375 690.299804688 c 0,16,17
 412 681 412 681 422.099609375 648.900390625 c 0,18,19
 427 634 427 634 426.599609375 621.900390625 c 0,20,21
 427 577 427 577 389.700195312 565.200195312 c 0,22,23
 374 560 374 560 241 550 c 0,24,-1
 155.700195312 542.700195312 l 1,25,26
 162 434 162 434 167 382 c 1,27,28
 274 395 274 395 318 397 c 0,29,30
 368 400 368 400 390.5 377.5 c 0,31,32
 410 358 410 358 410.400390625 343.799804688 c 0,33,34
 410 334 410 334 404.099609375 322.200195312 c 0,35,36
 391 293 391 293 356.400390625 280.799804688 c 0,37,38
 326 270 326 270 252.900390625 260.099609375 c 0,39,-1
 172.799804688 251.099609375 l 1,40,41
 173 230 173 230 172.799804688 196.200195312 c 0,42,43
 173 160 173 160 172.799804688 144.900390625 c 1,44,45
 307 158 307 158 407.700195312 184.5 c 0,46,47
 436 192 436 192 466.299804688 160.200195312 c 0,48,49
 490 135 490 135 489.700195312 110.700195312 c 0,50,51
 490 93 490 93 477.099609375 78.2998046875 c 0,52,53
 448 45 448 45 404.099609375 40.5 c 0,54,55
 323 33 323 33 246.150390625 17.5498046875 c 0,0,1
EndSplineSet
Validated: 545
EndChar

StartChar: F
Encoding: 70 70 41
Width: 481
VWidth: 1075
GlyphClass: 1
Flags: MW
LayerCount: 2
Fore
SplineSet
68.400390625 652.5 m 0,0,1
 109 680 109 680 249.299804688 690.299804688 c 0,2,3
 387 701 387 701 418.5 675 c 0,4,5
 440 657 440 657 439.200195312 626.400390625 c 0,6,7
 437 575 437 575 393.299804688 557.099609375 c 1,8,9
 393.299804688 557.099609375 393.299804688 557.099609375 160 537 c 1,10,11
 166 448 166 448 181.799804688 376.200195312 c 1,12,13
 373 381 373 381 384.299804688 378.900390625 c 0,14,15
 408 375 408 375 425.700195312 355.5 c 0,16,17
 450 329 450 329 450 306.900390625 c 0,18,19
 450 287 450 287 432.049804688 266.399414062 c 0,20,21
 413 246 413 246 392 243 c 0,22,23
 247 228 247 228 197.099609375 227.700195312 c 1,24,-1
 202.5 125.099609375 l 1,25,26
 204 -1 204 -1 144.900390625 0.900390625 c 0,27,28
 83 3 83 3 70.2001953125 126 c 0,29,30
 68 148 68 148 44.099609375 370.799804688 c 0,31,32
 34 463 34 463 32.400390625 541.799804688 c 0,33,34
 30 627 30 627 68.400390625 652.5 c 0,0,1
EndSplineSet
Validated: 545
EndChar

StartChar: G
Encoding: 71 71 42
Width: 621
VWidth: 1075
GlyphClass: 1
Flags: MW
LayerCount: 2
Fore
SplineSet
347.400390625 278.099609375 m 128,-1,1
 317.700195312 278.099609375 317.700195312 278.099609375 297.900390625 288 c 0,2,3
 269.099609375 301.5 269.099609375 301.5 267.299804688 333 c 0,4,5
 267.299804688 376.200195312 267.299804688 376.200195312 317.700195312 400.5 c 0,6,7
 361.799804688 422.099609375 361.799804688 422.099609375 460.799804688 432.900390625 c 0,8,9
 479.700195312 434.700195312 479.700195312 434.700195312 496.799804688 434.700195312 c 0,10,11
 513 434.700195312 513 434.700195312 521.099609375 433.799804688 c 0,12,13
 538.200195312 431.099609375 538.200195312 431.099609375 560.700195312 413.099609375 c 0,14,15
 579.599609375 394.200195312 579.599609375 394.200195312 585.900390625 379.799804688 c 0,16,17
 589.5 370.799804688 589.5 370.799804688 589.049804688 359.549804688 c 128,-1,18
 588.599609375 348.299804688 588.599609375 348.299804688 587.700195312 337.5 c 0,19,20
 578.948261417 266.517015472 578.948261417 266.517015472 504 164.700195312 c 128,-1,21
 429.161895993 63.0330234167 429.161895993 63.0330234167 354.599609375 24.2998046875 c 0,22,23
 317.700195312 5.400390625 317.700195312 5.400390625 266.400390625 5.400390625 c 128,-1,24
 215.099609375 5.400390625 215.099609375 5.400390625 168.299804688 28.7998046875 c 0,25,26
 90.900390625 64.7998046875 90.900390625 64.7998046875 59.400390625 135.900390625 c 0,27,28
 32.400390625 198 32.400390625 198 32.400390625 291.599609375 c 0,29,30
 32.400390625 303.299804688 32.400390625 303.299804688 32.400390625 315 c 2,31,-1
 32.400390625 315.900390625 l 2,32,33
 35.099609375 369.900390625 35.099609375 369.900390625 42.2998046875 399.599609375 c 128,-1,34
 49.5 429.299804688 49.5 429.299804688 72 472.5 c 0,35,36
 99 531.900390625 99 531.900390625 149.400390625 590.400390625 c 0,37,38
 203.400390625 648.900390625 203.400390625 648.900390625 252.900390625 673.200195312 c 0,39,40
 298.799804688 696.599609375 298.799804688 696.599609375 346.5 696.599609375 c 0,41,42
 364.5 696.599609375 364.5 696.599609375 382.5 693 c 0,43,44
 451.799804688 681.299804688 451.799804688 681.299804688 477 630.900390625 c 0,45,46
 493.200195312 598.5 493.200195312 598.5 494.099609375 576 c 0,47,48
 494.099609375 547.200195312 494.099609375 547.200195312 468.900390625 532.799804688 c 1,49,50
 468.900390625 527.400390625 468.900390625 527.400390625 468 531.900390625 c 1,51,52
 449.099609375 522.900390625 449.099609375 522.900390625 438.299804688 522.900390625 c 0,53,54
 435.599609375 522.900390625 435.599609375 522.900390625 433.799804688 523.799804688 c 0,55,56
 427.5 524.700195312 427.5 524.700195312 418.049804688 531.900390625 c 128,-1,57
 408.599609375 539.099609375 408.599609375 539.099609375 393.299804688 554.400390625 c 0,58,59
 369 578.700195312 369 578.700195312 343.799804688 578.700195312 c 0,60,61
 336.599609375 578.700195312 336.599609375 578.700195312 330.299804688 576.900390625 c 0,62,63
 294.299804688 567.900390625 294.299804688 567.900390625 234.900390625 506.700195312 c 0,64,65
 186.299804688 454.5 186.299804688 454.5 166.5 407.700195312 c 128,-1,66
 146.700195312 360.900390625 146.700195312 360.900390625 146.700195312 298.799804688 c 0,67,68
 146.700195312 294.299804688 146.700195312 294.299804688 146.700195312 290.700195312 c 0,69,70
 146.700195312 236.700195312 146.700195312 236.700195312 159.299804688 203.849609375 c 128,-1,71
 171.900390625 171 171.900390625 171 200.700195312 153.900390625 c 0,72,73
 232.200195312 135 232.200195312 135 258.299804688 135 c 0,74,75
 293.400390625 135 293.400390625 135 339.299804688 176.400390625 c 1,76,77
 339.299804688 185.400390625 339.299804688 185.400390625 340.200195312 176.400390625 c 1,78,79
 387.900390625 216 387.900390625 216 428.400390625 279 c 0,80,81
 431.099609375 283.5 431.099609375 283.5 433.799804688 288 c 1,82,0
 377.099609375 278.099609375 377.099609375 278.099609375 347.400390625 278.099609375 c 128,-1,1
EndSplineSet
Validated: 1
EndChar

StartChar: H
Encoding: 72 72 43
Width: 694
VWidth: 1075
GlyphClass: 1
Flags: MW
LayerCount: 2
Fore
SplineSet
217.799804688 153.900390625 m 2,0,1
 217.799804688 95.400390625 217.799804688 95.400390625 207 63 c 0,2,3
 197.099609375 35.099609375 197.099609375 35.099609375 178.200195312 24.2998046875 c 0,4,5
 161.099609375 18 161.099609375 18 156.599609375 17.099609375 c 0,6,7
 142.200195312 17.099609375 142.200195312 17.099609375 129.599609375 26.099609375 c 0,8,9
 117 36.900390625 117 36.900390625 104.400390625 60.2998046875 c 0,10,11
 99.900390625 67.5 99.900390625 67.5 98.099609375 72 c 0,12,13
 81.900390625 115.200195312 81.900390625 115.200195312 56.7001953125 300.599609375 c 0,14,15
 32.400390625 489.599609375 32.400390625 489.599609375 32.400390625 573.299804688 c 0,16,17
 32.400390625 622.799804688 32.400390625 622.799804688 49.5 645.299804688 c 0,18,19
 63 659.700195312 63 659.700195312 86.400390625 659.700195312 c 0,20,21
 95.400390625 659.700195312 95.400390625 659.700195312 106.200195312 657 c 0,22,23
 137.700195312 648.900390625 137.700195312 648.900390625 154.799804688 610.200195312 c 0,24,25
 170.099609375 569.700195312 170.099609375 569.700195312 185.400390625 462.599609375 c 0,26,27
 190.799804688 430.200195312 190.799804688 430.200195312 193.5 410.400390625 c 0,28,29
 198 380.700195312 198 380.700195312 205.200195312 362.700195312 c 1,30,31
 228.599609375 366.299804688 228.599609375 366.299804688 355.5 374.400390625 c 2,32,-1
 474.299804688 379.799804688 l 1,33,-1
 472.5 399.599609375 l 2,34,35
 469.799804688 425.700195312 469.799804688 425.700195312 445.5 534.599609375 c 0,36,37
 432 603 432 603 432 641.700195312 c 0,38,39
 432 652.5 432 652.5 433.799804688 660.599609375 c 0,40,41
 438.299804688 677.700195312 438.299804688 677.700195312 454.5 686.700195312 c 0,42,43
 467.099609375 693.900390625 467.099609375 693.900390625 485.099609375 694.799804688 c 0,44,45
 489.599609375 695.700195312 489.599609375 695.700195312 495 695.700195312 c 0,46,47
 527.400390625 695.700195312 527.400390625 695.700195312 555.299804688 665.099609375 c 0,48,49
 582.299804688 630.900390625 582.299804688 630.900390625 602.099609375 558.900390625 c 0,50,51
 640.799804688 415.799804688 640.799804688 415.799804688 656.099609375 236.700195312 c 0,52,53
 662.400390625 161.099609375 662.400390625 161.099609375 662.400390625 116.099609375 c 0,54,55
 662.400390625 72.900390625 662.400390625 72.900390625 658.799804688 51.2998046875 c 0,56,57
 654.299804688 31.5 654.299804688 31.5 647.099609375 24.2998046875 c 0,58,59
 630 6.2998046875 630 6.2998046875 603 5.400390625 c 0,60,61
 566.099609375 5.400390625 566.099609375 5.400390625 542.700195312 34.2001953125 c 0,62,63
 522.900390625 63.900390625 522.900390625 63.900390625 505.799804688 152.099609375 c 1,64,65
 501.299804688 204.299804688 501.299804688 204.299804688 496.799804688 237.599609375 c 1,66,67
 488.700195312 243 488.700195312 243 481.5 243 c 2,68,-1
 460.799804688 234 l 1,69,70
 394.200195312 227.700195312 394.200195312 227.700195312 307.799804688 220.5 c 1,71,72
 290.700195312 224.099609375 290.700195312 224.099609375 273.599609375 224.099609375 c 2,73,-1
 217.799804688 214.200195312 l 1,74,-1
 217.799804688 153.900390625 l 2,0,1
EndSplineSet
Validated: 1
EndChar

StartChar: I
Encoding: 73 73 44
Width: 550
VWidth: 1075
GlyphClass: 1
Flags: MW
LayerCount: 2
Fore
SplineSet
69.2998046875 45 m 0,0,1
 68.400390625 51.2998046875 68.400390625 51.2998046875 67.5 57.599609375 c 0,2,3
 67.5 82.7998046875 67.5 82.7998046875 86.400390625 101.700195312 c 0,4,5
 108 124.200195312 108 124.200195312 149.400390625 131.400390625 c 1,6,-1
 150.299804688 131.400390625 l 2,7,8
 153 131.400390625 153 131.400390625 161.099609375 132.299804688 c 0,9,10
 200.700195312 138.599609375 200.700195312 138.599609375 213.299804688 143.099609375 c 0,11,12
 213.299804688 144 213.299804688 144 213.299804688 147.599609375 c 128,-1,13
 213.299804688 151.200195312 213.299804688 151.200195312 211.5 159.299804688 c 0,14,15
 210.599609375 162.900390625 210.599609375 162.900390625 209.700195312 166.5 c 0,16,17
 201.599609375 204.299804688 201.599609375 204.299804688 189 385.200195312 c 0,18,19
 183.599609375 461.700195312 183.599609375 461.700195312 178.200195312 553.5 c 1,20,-1
 148.5 553.5 l 2,21,22
 89.099609375 553.5 89.099609375 553.5 58.5 575.099609375 c 0,23,24
 32.400390625 593.099609375 32.400390625 593.099609375 32.400390625 618.299804688 c 0,25,26
 32.400390625 628.200195312 32.400390625 628.200195312 36.900390625 639 c 0,27,28
 46.7998046875 670.5 46.7998046875 670.5 90.900390625 678.599609375 c 0,29,30
 128.700195312 685.799804688 128.700195312 685.799804688 251.099609375 691.200195312 c 0,31,32
 308.700195312 693 308.700195312 693 342.450195312 693 c 128,-1,33
 376.200195312 693 376.200195312 693 392.400390625 691.200195312 c 0,34,35
 428.400390625 688.5 428.400390625 688.5 443.700195312 677.700195312 c 0,36,37
 474.299804688 655.200195312 474.299804688 655.200195312 474.299804688 614.700195312 c 0,38,39
 474.299804688 581.400390625 474.299804688 581.400390625 448.200195312 566.099609375 c 0,40,41
 430.200195312 555.299804688 430.200195312 555.299804688 350.099609375 553.5 c 1,42,43
 350.099609375 540 350.099609375 540 349.200195312 553.5 c 1,44,-1
 290.700195312 553.5 l 1,45,46
 291.599609375 531 291.599609375 531 293.400390625 531.900390625 c 1,47,48
 310.5 366.299804688 310.5 366.299804688 324 204.299804688 c 2,49,-1
 329.400390625 144.900390625 l 1,50,-1
 397.799804688 144.900390625 l 2,51,52
 446.400390625 144.900390625 446.400390625 144.900390625 465.75 141.299804688 c 128,-1,53
 485.099609375 137.700195312 485.099609375 137.700195312 497.700195312 122.400390625 c 0,54,55
 519.299804688 97.2001953125 519.299804688 97.2001953125 519.299804688 75.599609375 c 128,-1,56
 519.299804688 54 519.299804688 54 497.700195312 30.599609375 c 0,57,58
 481.5 12.599609375 481.5 12.599609375 460.799804688 9.4501953125 c 128,-1,59
 440.099609375 6.2998046875 440.099609375 6.2998046875 364.5 6.2998046875 c 0,60,61
 288 6.2998046875 288 6.2998046875 203.400390625 1.7998046875 c 0,62,63
 173.700195312 0.900390625 173.700195312 0.900390625 146.700195312 0.900390625 c 0,64,65
 117 0.900390625 117 0.900390625 105.299804688 3.599609375 c 0,66,67
 76.5 10.7998046875 76.5 10.7998046875 69.2998046875 45 c 0,0,1
EndSplineSet
Validated: 1
EndChar

StartChar: J
Encoding: 74 74 45
Width: 535
VWidth: 1075
GlyphClass: 1
Flags: MW
LayerCount: 2
Fore
SplineSet
41.400390625 271.799804688 m 0,0,1
 58.5 293.400390625 58.5 293.400390625 77.400390625 293.400390625 c 0,2,3
 88.2001953125 293.400390625 88.2001953125 293.400390625 97.2001953125 288.900390625 c 0,4,5
 121.5 278.099609375 121.5 278.099609375 155.700195312 228.599609375 c 0,6,7
 180.900390625 192.599609375 180.900390625 192.599609375 194.400390625 180 c 0,8,9
 207.900390625 169.200195312 207.900390625 169.200195312 229.5 166.5 c 0,10,11
 242.099609375 164.700195312 242.099609375 164.700195312 253.799804688 164.700195312 c 0,12,13
 288 164.700195312 288 164.700195312 306 181.799804688 c 0,14,15
 332.099609375 210.599609375 332.099609375 210.599609375 342 297 c 0,16,17
 347.400390625 343.799804688 347.400390625 343.799804688 347.400390625 408.599609375 c 0,18,19
 347.400390625 408.599609375 347.400390625 408.599609375 341.099609375 587.700195312 c 0,20,21
 341.099609375 647.099609375 341.099609375 647.099609375 352.799804688 672.299804688 c 0,22,23
 366.299804688 693.900390625 366.299804688 693.900390625 396.900390625 693.900390625 c 0,24,25
 432 693.900390625 432 693.900390625 454.5 661.5 c 0,26,27
 473.400390625 632.700195312 473.400390625 632.700195312 486 578.700195312 c 0,28,29
 503.099609375 503.099609375 503.099609375 503.099609375 504 404.099609375 c 0,30,31
 504 374.400390625 504 374.400390625 502.200195312 342 c 0,32,33
 499.5 263.700195312 499.5 263.700195312 492.299804688 228.599609375 c 128,-1,34
 485.099609375 193.5 485.099609375 193.5 460.799804688 141.299804688 c 0,35,36
 419.400390625 54 419.400390625 54 349.200195312 20.7001953125 c 0,37,38
 307.799804688 0.900390625 307.799804688 0.900390625 260.099609375 0.900390625 c 0,39,40
 225 0.900390625 225 0.900390625 188.099609375 11.7001953125 c 0,41,42
 140.400390625 26.099609375 140.400390625 26.099609375 99 74.7001953125 c 0,43,44
 58.5 123.299804688 58.5 123.299804688 43.2001953125 180 c 0,45,46
 32.400390625 224.099609375 32.400390625 224.099609375 32.400390625 240.299804688 c 0,47,48
 32.400390625 258.299804688 32.400390625 258.299804688 41.400390625 271.799804688 c 0,0,1
EndSplineSet
Validated: 1
EndChar

StartChar: K
Encoding: 75 75 46
Width: 648
VWidth: 1075
GlyphClass: 1
Flags: MW
LayerCount: 2
Fore
SplineSet
616.5 51.2998046875 m 0,0,1
 616.5 21.599609375 616.5 21.599609375 598.5 5.400390625 c 0,2,3
 580.5 -9 580.5 -9 547.200195312 -9 c 0,4,5
 522 -9 522 -9 483.299804688 15.2998046875 c 0,6,7
 470.700195312 23.400390625 470.700195312 23.400390625 353.700195312 114.299804688 c 0,8,9
 270.900390625 178.200195312 270.900390625 178.200195312 205.200195312 219.599609375 c 1,10,11
 204.299804688 210.599609375 204.299804688 210.599609375 202.5 146.700195312 c 0,12,13
 202.5 144.900390625 202.5 144.900390625 202.5 143.099609375 c 0,14,15
 202.5 83.7001953125 202.5 83.7001953125 197.099609375 59.400390625 c 0,16,17
 192.599609375 38.7001953125 192.599609375 38.7001953125 175.5 25.2001953125 c 0,18,19
 155.700195312 8.099609375 155.700195312 8.099609375 141.299804688 8.099609375 c 0,20,21
 132.299804688 8.099609375 132.299804688 8.099609375 116.099609375 16.2001953125 c 0,22,23
 90.900390625 27.900390625 90.900390625 27.900390625 82.7998046875 51.2998046875 c 0,24,25
 68.400390625 92.7001953125 68.400390625 92.7001953125 64.7998046875 147.599609375 c 0,26,27
 58.5 256.5 58.5 256.5 49.5 366.299804688 c 2,28,-1
 32.400390625 640.799804688 l 2,29,30
 34.2001953125 658.799804688 34.2001953125 658.799804688 57.599609375 672.299804688 c 0,31,32
 76.5 679.5 76.5 679.5 93.599609375 682.200195312 c 0,33,34
 94.5 682.200195312 94.5 682.200195312 96.2998046875 682.200195312 c 0,35,36
 109.799804688 682.200195312 109.799804688 682.200195312 120.599609375 673.200195312 c 0,37,38
 152.099609375 648 152.099609375 648 162.900390625 613.799804688 c 0,39,40
 176.400390625 565.200195312 176.400390625 565.200195312 191.700195312 411.299804688 c 1,41,42
 244.799804688 456.299804688 244.799804688 456.299804688 298.799804688 520.200195312 c 1,43,44
 398.700195312 623.700195312 398.700195312 623.700195312 440.099609375 647.099609375 c 0,45,46
 469.799804688 663.299804688 469.799804688 663.299804688 491.400390625 663.299804688 c 0,47,48
 492.299804688 663.299804688 492.299804688 663.299804688 494.099609375 663.299804688 c 0,49,50
 511.200195312 663.299804688 511.200195312 663.299804688 523.799804688 657 c 0,51,52
 551.700195312 644.400390625 551.700195312 644.400390625 551.700195312 626.400390625 c 0,53,54
 551.700195312 587.700195312 551.700195312 587.700195312 504.900390625 527.400390625 c 0,55,56
 479.700195312 495 479.700195312 495 430.200195312 443.700195312 c 0,57,58
 324.900390625 335.700195312 324.900390625 335.700195312 322.200195312 333 c 1,59,-1
 402.299804688 276.299804688 l 2,60,61
 530.099609375 185.400390625 530.099609375 185.400390625 557.099609375 157.5 c 0,62,63
 590.400390625 124.200195312 590.400390625 124.200195312 603 98.099609375 c 0,64,65
 616.5 71.099609375 616.5 71.099609375 616.5 51.2998046875 c 0,0,1
EndSplineSet
Validated: 1
EndChar

StartChar: L
Encoding: 76 76 47
Width: 542
VWidth: 1075
GlyphClass: 1
Flags: MW
LayerCount: 2
Fore
SplineSet
52.2001953125 647.099609375 m 4,0,1
 70.2001953125 666 70.2001953125 666 90.900390625 666 c 4,2,3
 91.7998046875 666 91.7998046875 666 92.7001953125 666 c 4,4,5
 123.299804688 666 123.299804688 666 134.099609375 638.099609375 c 4,6,7
 145.799804688 607.5 145.799804688 607.5 151.200195312 394.200195312 c 4,8,9
 151.200195312 377.099609375 151.200195312 377.099609375 151.200195312 363.599609375 c 6,10,-1
 153 121.5 l 5,11,12
 199.799804688 128.700195312 199.799804688 128.700195312 294.299804688 144.900390625 c 4,13,14
 391.5 159.299804688 391.5 159.299804688 412.200195312 159.299804688 c 4,15,16
 465.299804688 159.299804688 465.299804688 159.299804688 487.799804688 135 c 132,-1,17
 510.299804688 110.700195312 510.299804688 110.700195312 511.200195312 89.099609375 c 4,18,19
 511.200195312 63 511.200195312 63 480.599609375 38.7001953125 c 132,-1,20
 450 14.400390625 450 14.400390625 424.799804688 14.400390625 c 4,21,22
 397.799804688 14.400390625 397.799804688 14.400390625 264.599609375 -6.2998046875 c 4,23,24
 134.099609375 -25.2001953125 134.099609375 -25.2001953125 103.5 -25.2001953125 c 4,25,26
 68.400390625 -25.2001953125 68.400390625 -25.2001953125 50.400390625 9.900390625 c 4,27,28
 42.2998046875 26.099609375 42.2998046875 26.099609375 36.900390625 100.799804688 c 4,29,30
 32.400390625 180 32.400390625 180 32.400390625 340.200195312 c 4,31,32
 32.400390625 598.5 32.400390625 598.5 46.7998046875 637.200195312 c 4,33,34
 48.599609375 643.5 48.599609375 643.5 52.2001953125 647.099609375 c 4,0,1
EndSplineSet
Validated: 1
EndChar

StartChar: M
Encoding: 77 77 48
Width: 852
VWidth: 1087
GlyphClass: 1
Flags: MW
LayerCount: 2
Fore
SplineSet
102.599609375 18 m 0,0,1
 80.099609375 18 80.099609375 18 69.2998046875 27 c 0,2,3
 61.2001953125 34.2001953125 61.2001953125 34.2001953125 58.5 45.900390625 c 0,4,5
 56.7001953125 56.7001953125 56.7001953125 56.7001953125 54.900390625 87.2998046875 c 0,6,7
 49.5 167.400390625 49.5 167.400390625 49.5 362.700195312 c 0,8,9
 49.5 477.900390625 49.5 477.900390625 52.2001953125 524.700195312 c 0,10,11
 54.900390625 567 54.900390625 567 62.099609375 585 c 0,12,13
 71.099609375 608.400390625 71.099609375 608.400390625 99.900390625 617.400390625 c 0,14,15
 113.400390625 621.900390625 113.400390625 621.900390625 127.799804688 621.900390625 c 0,16,17
 144.900390625 621.900390625 144.900390625 621.900390625 163.799804688 615.599609375 c 0,18,19
 176.400390625 611.099609375 176.400390625 611.099609375 198 593.099609375 c 0,20,21
 222.299804688 573.299804688 222.299804688 573.299804688 261 533.700195312 c 0,22,23
 332.099609375 461.700195312 332.099609375 461.700195312 388.799804688 388.799804688 c 0,24,25
 402.299804688 370.799804688 402.299804688 370.799804688 411.299804688 360.900390625 c 1,26,27
 421.200195312 376.200195312 421.200195312 376.200195312 437.400390625 406.799804688 c 0,28,29
 481.5 488.700195312 481.5 488.700195312 534.599609375 566.099609375 c 0,30,31
 568.799804688 615.599609375 568.799804688 615.599609375 589.5 636.299804688 c 0,32,33
 608.400390625 657 608.400390625 657 625.5 662.400390625 c 0,34,35
 635.400390625 666 635.400390625 666 647.099609375 666 c 0,36,37
 668.700195312 666 668.700195312 666 688.5 657 c 0,38,39
 716.400390625 644.400390625 716.400390625 644.400390625 727.200195312 620.099609375 c 0,40,41
 747.900390625 576 747.900390625 576 780.299804688 344.700195312 c 0,42,43
 801.900390625 193.5 801.900390625 193.5 802.799804688 92.7001953125 c 0,44,45
 802.799804688 64.7998046875 802.799804688 64.7998046875 795.599609375 49.5 c 0,46,47
 790.200195312 37.7998046875 790.200195312 37.7998046875 780.299804688 32.400390625 c 0,48,49
 772.200195312 27 772.200195312 27 754.200195312 24.2998046875 c 0,50,51
 743.400390625 23.400390625 743.400390625 23.400390625 742.5 23.400390625 c 0,52,53
 702.503118771 23.400390625 702.503118771 23.400390625 679.5 70.2001953125 c 0,54,55
 653 123 653 123 622.799804688 350.099609375 c 24,56,57
 622.799804688 350.099609375 622.799804688 350.099609375 612.900390625 410.400390625 c 1,58,59
 596.700195312 387.900390625 596.700195312 387.900390625 575.099609375 349.200195312 c 0,60,61
 529.200195312 270 529.200195312 270 497.700195312 237.599609375 c 0,62,63
 460.799804688 198 460.799804688 198 417.599609375 198 c 0,64,65
 386.099609375 198 386.099609375 198 356.400390625 218.700195312 c 0,66,67
 321.299804688 243 321.299804688 243 260.099609375 315.900390625 c 0,68,69
 250.200195312 327.599609375 250.200195312 327.599609375 229.5 352.799804688 c 0,70,71
 191.700195312 398.700195312 191.700195312 398.700195312 171 424.799804688 c 1,72,-1
 163.799804688 280.799804688 l 2,73,74
 153 60.2998046875 153 60.2998046875 147.599609375 44.099609375 c 0,75,76
 145.799804688 38.7001953125 145.799804688 38.7001953125 143.099609375 35.099609375 c 0,77,78
 132.299804688 18 132.299804688 18 105.299804688 18 c 0,79,80
 104.400390625 18 104.400390625 18 102.599609375 18 c 0,0,1
EndSplineSet
Validated: 1
EndChar

StartChar: N
Encoding: 78 78 49
Width: 735
VWidth: 1075
GlyphClass: 1
Flags: MW
LayerCount: 2
Fore
SplineSet
621.900390625 0 m 0,0,1
 598 0 598 0 560.700195312 24.2998046875 c 0,2,3
 524 49 524 49 383.400390625 186.299804688 c 0,4,5
 300 267 300 267 191.700195312 361.799804688 c 0,6,-1
 162.900390625 387 l 1,7,-1
 166.5 239.400390625 l 0,8,9
 171 79 171 79 162 49.5 c 0,10,11
 155 25 155 25 144 18 c 0,12,13
 131 10 131 10 109.799804688 9 c 0,14,15
 76 9 76 9 62.099609375 47.7001953125 c 0,16,17
 50 82 50 82 50.400390625 168.299804688 c 0,18,19
 50 253 50 253 39.599609375 400.5 c 0,20,21
 34 483 34 483 32.400390625 548.099609375 c 0,22,23
 32 580 32 580 50.400390625 598.5 c 0,24,25
 72 621 72 621 107.099609375 621 c 0,26,27
 128 621 128 621 143.099609375 613.799804688 c 0,28,29
 184 594 184 594 214 567 c 24,30,31
 363 430 363 430 504 285.299804688 c 0,32,33
 519 270 519 270 540 249.299804688 c 1,34,-1
 515.700195312 496.799804688 l 0,35,36
 513 539 513 539 513 567.900390625 c 0,37,38
 513 610 513 610 519.299804688 624.599609375 c 0,39,40
 537 662 537 662 566.099609375 667.799804688 c 0,41,42
 597 674 597 674 624.599609375 646.200195312 c 0,43,44
 650 620 650 620 654.299804688 585 c 0,45,46
 687 328 687 328 702 108 c 0,47,48
 704 79 704 79 677.700195312 27.900390625 c 0,49,50
 663 -0 663 -0 621.900390625 0 c 0,0,1
EndSplineSet
Validated: 33
EndChar

StartChar: O
Encoding: 79 79 50
Width: 703
VWidth: 1075
GlyphClass: 1
Flags: W
LayerCount: 2
Fore
SplineSet
224.099609375 671.400390625 m 0,0,1
 268.200195312 693.900390625 268.200195312 693.900390625 321.299804688 693.900390625 c 0,2,3
 495.900390625 693.900390625 495.900390625 693.900390625 620.099609375 507.599609375 c 0,4,5
 645.299804688 468.900390625 645.299804688 468.900390625 656.099609375 439.200195312 c 0,6,7
 666.761900365 409.880823172 666.761900365 409.880823172 671.400390625 335.700195312 c 0,8,9
 671.400390625 279 671.400390625 279 651.599609375 222.299804688 c 0,10,11
 628.200195312 151.200195312 628.200195312 151.200195312 585.900390625 103.5 c 1,12,13
 528.299804688 46.7998046875 528.299804688 46.7998046875 418.5 18.900390625 c 0,14,15
 355.5 2.7001953125 355.5 2.7001953125 303.299804688 2.7001953125 c 0,16,17
 262.799804688 2.7001953125 262.799804688 2.7001953125 232.200195312 11.7001953125 c 0,18,19
 176.400390625 28.7998046875 176.400390625 28.7998046875 120.599609375 90 c 0,20,21
 67.5 151.200195312 67.5 151.200195312 49.9501953125 215.549804688 c 128,-1,22
 32.400390625 279.900390625 32.400390625 279.900390625 32.400390625 342 c 0,23,24
 32.400390625 483.299804688 32.400390625 483.299804688 128.700195312 592.200195312 c 0,25,26
 180 649.799804688 180 649.799804688 224.099609375 671.400390625 c 0,0,1
148.5 373.5 m 0,27,28
 139.668389689 294.005923276 139.668389689 294.005923276 171.900390625 237.599609375 c 0,29,30
 208.799804688 173.700195312 208.799804688 173.700195312 261.900390625 155.700195312 c 0,31,32
 284.400390625 148.5 284.400390625 148.5 311.400390625 148.5 c 0,33,34
 348.299804688 148.5 348.299804688 148.5 393.299804688 162 c 0,35,36
 459.900390625 183.599609375 459.900390625 183.599609375 495 244.799804688 c 0,37,38
 529.238208622 304.057253481 529.238208622 304.057253481 513 366.299804688 c 0,39,40
 503.099609375 407.700195312 503.099609375 407.700195312 453.599609375 465.299804688 c 128,-1,41
 404.099609375 522.900390625 404.099609375 522.900390625 370.799804688 534.599609375 c 0,42,43
 340.200195312 545.400390625 340.200195312 545.400390625 307.799804688 545.400390625 c 0,44,45
 278.099609375 545.400390625 278.099609375 545.400390625 248.400390625 534.599609375 c 0,46,47
 217.799804688 523.799804688 217.799804688 523.799804688 199.799804688 502.200195312 c 0,48,49
 156.599609375 452.700195312 156.599609375 452.700195312 148.5 373.5 c 0,27,28
EndSplineSet
Validated: 545
EndChar

StartChar: P
Encoding: 80 80 51
Width: 533
VWidth: 1075
GlyphClass: 1
Flags: MW
LayerCount: 2
Fore
SplineSet
466.200195312 579.599609375 m 0,0,1
 504 520 504 520 501.299804688 461.700195312 c 0,2,3
 498.031601491 388.660644517 498.031601491 388.660644517 454.5 331.650390625 c 0,4,5
 408.858661443 268.757568897 408.858661443 268.757568897 348.299804688 246.599609375 c 0,6,7
 292 226 292 226 198 223 c 1,8,9
 198 223 198 223 211.5 115.200195312 c 1,10,11
 212 65 212 65 191.700195312 30.599609375 c 0,12,13
 177.179156807 6.2998046875 177.179156807 6.2998046875 153 6.2998046875 c 0,14,15
 123.831533804 5.6751730523 123.831533804 5.6751730523 108 41.849609375 c 0,16,17
 98 65 98 65 86.400390625 109.799804688 c 0,18,19
 64 203 64 203 51.2998046875 316.799804688 c 0,20,21
 31.952589526 487.80822029 31.952589526 487.80822029 32.400390625 527.400390625 c 0,22,23
 32 572 32 572 44.5498046875 598.049804688 c 0,24,25
 90.2322986251 693.26675593 90.2322986251 693.26675593 233.099609375 699.299804688 c 0,26,27
 304 699 304 699 362.700195312 670.5 c 0,28,29
 428 639 428 639 466.200195312 579.599609375 c 0,0,1
356.400390625 444.599609375 m 0,30,31
 357 448 357 448 357.299804688 452.700195312 c 0,32,33
 356.789649267 519.573760705 356.789649267 519.573760705 295.30078125 545.799804688 c 0,34,35
 228.407196488 574.63698738 228.407196488 574.63698738 153.900390625 546.299804688 c 1,36,37
 154 524 154 524 157 509 c 0,38,39
 161 483 161 483 173.700195312 398.700195312 c 0,40,41
 177 377 177 377 183 352 c 1,42,43
 258 351 258 351 270 354 c 0,44,45
 343 372 343 372 356.400390625 444.599609375 c 0,30,31
EndSplineSet
Validated: 545
EndChar

StartChar: Q
Encoding: 81 81 52
Width: 586
VWidth: 1075
GlyphClass: 1
Flags: MW
LayerCount: 2
Fore
SplineSet
512.099609375 435.599609375 m 24,0,1
 526 381 526 381 524.700195312 324.900390625 c 0,2,3
 522 221 522 221 511 195 c 0,4,5
 511 195 511 195 486 142.200195312 c 1,6,7
 499 128 499 128 551.700195312 35.099609375 c 0,8,9
 554 31 554 31 554.400390625 10.7998046875 c 0,10,11
 554 -21 554 -21 529.19921875 -37.19921875 c 0,12,13
 504 -55 504 -55 477 -34.2001953125 c 0,14,15
 477 -34.2001953125 477 -34.2001953125 397.799804688 30.599609375 c 1,16,17
 353 3 353 3 289.799804688 3.599609375 c 0,18,19
 230 4 230 4 171.900390625 29.7001953125 c 0,20,21
 120 53 120 53 83 104 c 0,22,23
 31.5529142529 173.255692352 31.5529142529 173.255692352 22.900390625 212.399414062 c 0,24,25
 0 320 0 320 31 450 c 0,26,27
 42.6296789567 502.140002648 42.6296789567 502.140002648 89 582 c 0,28,29
 143 677 143 677 243 676.799804688 c 0,30,31
 269 677 269 677 315 667.799804688 c 0,32,33
 356 660 356 660 376.200195312 644.400390625 c 0,34,35
 417 614 417 614 457.200195312 549 c 0,36,37
 500 481 500 481 512.099609375 436.5 c 24,38,-1
 512.099609375 435.599609375 l 24,0,1
282.599609375 539.099609375 m 0,39,40
 201 539 201 539 168.299804688 464.400390625 c 0,41,42
 145 412 145 412 139.5 393.299804688 c 0,43,44
 119 318 119 318 137.700195312 260.099609375 c 0,45,46
 141 250 141 250 161.099609375 214.200195312 c 0,47,48
 171 197 171 197 187.200195312 179.099609375 c 0,49,50
 199 166 199 166 216.900390625 154.799804688 c 0,51,52
 242 139 242 139 276.299804688 135.900390625 c 0,53,54
 298 134 298 134 308.700195312 136.799804688 c 1,55,56
 305 147 305 147 297.900390625 156.599609375 c 0,57,58
 263 203 263 203 262.799804688 237.599609375 c 0,59,60
 263 258 263 258 272.700195312 271.799804688 c 0,61,62
 288 295 288 295 312 295 c 0,63,64
 337 295 337 295 360 270 c 0,65,66
 395 232 395 232 395 232 c 1,67,68
 414 351 414 351 395 418 c 0,69,70
 387 447 387 447 352.799804688 489.599609375 c 0,71,72
 312 539 312 539 282.599609375 539.099609375 c 0,39,40
EndSplineSet
Validated: 545
EndChar

StartChar: R
Encoding: 82 82 53
Width: 615
VWidth: 1075
GlyphClass: 1
Flags: MW
LayerCount: 2
Fore
SplineSet
144.900390625 688.5 m 0,0,1
 169 694 169 694 220.5 693.900390625 c 0,2,3
 331 694 331 694 406.799804688 635.849609375 c 0,4,5
 483 577 483 577 483.299804688 490.5 c 0,6,7
 483 446 483 446 467.099609375 416.25 c 0,8,9
 451 387 451 387 398.700195312 331.200195312 c 1,10,11
 399 332 399 332 397.799804688 331.200195312 c 0,12,13
 364 297 364 297 352.799804688 282.599609375 c 1,14,15
 367 275 367 275 431.099609375 236.700195312 c 0,16,17
 514 187 514 187 538.200195312 167.400390625 c 0,18,19
 566 144 566 144 576 122.400390625 c 0,20,21
 583 106 583 106 583.200195312 95.400390625 c 0,22,23
 583 79 583 79 568.799804688 55.7998046875 c 0,24,25
 550 27 550 27 517.5 27 c 0,26,27
 478.027982605 27 478.027982605 27 373.049804688 88.650390625 c 0,28,29
 272.311912348 147.399543326 272.311912348 147.399543326 259.650390625 153.450195312 c 0,30,31
 206 175 206 175 193.5 177.299804688 c 1,32,33
 194 160 194 160 193.5 126.900390625 c 0,34,35
 194 62 194 62 172.799804688 31.5 c 0,36,37
 152.599255509 3.27783392179 152.599255509 3.27783392179 136.799804688 2.7001953125 c 0,38,39
 120.936749007 3.30993089453 120.936749007 3.30993089453 100.799804688 27 c 0,40,41
 87 45 87 45 74.7001953125 103.5 c 0,42,43
 62 162 62 162 50.400390625 279.900390625 c 0,44,45
 34 456 34 456 32.400390625 567 c 0,46,47
 31.4126354997 633.608423666 31.4126354997 633.608423666 80 666 c 0,48,49
 99 679 99 679 144.900390625 688.5 c 0,0,1
321.299804688 494.099609375 m 0,50,51
 319.705503581 515.751749151 319.705503581 515.751749151 291.599609375 537.299804688 c 0,52,53
 258.299804688 562.5 258.299804688 562.5 216 562.5 c 0,54,55
 207.900390625 562.5 207.900390625 562.5 160.200195312 559.799804688 c 1,56,-1
 164.700195312 499.5 l 0,57,58
 171.900390625 401.400390625 171.900390625 401.400390625 183.599609375 342 c 1,59,60
 193.5 346.5 193.5 346.5 205.200195312 352.799804688 c 0,61,62
 244.799804688 374.400390625 244.799804688 374.400390625 285.299804688 425.700195312 c 0,63,64
 322.33907352 474.656440453 322.33907352 474.656440453 321.299804688 494.099609375 c 0,50,51
EndSplineSet
Validated: 33
EndChar

StartChar: S
Encoding: 83 83 54
Width: 593
VWidth: 1075
GlyphClass: 1
Flags: MW
LayerCount: 2
Fore
SplineSet
536.400390625 351 m 0,0,1
 560 301 560 301 560.700195312 244.799804688 c 0,2,3
 561 218 561 218 555.299804688 190.799804688 c 0,4,5
 537 112 537 112 469.799804688 64.7998046875 c 0,6,7
 437 42 437 42 373.5 20.7001953125 c 0,8,9
 317 2 317 2 280.799804688 1.7998046875 c 0,10,11
 245 2 245 2 192.599609375 25.2001953125 c 0,12,13
 116 60 116 60 79.2001953125 109.799804688 c 0,14,15
 42 160 42 160 42.2998046875 215.099609375 c 0,16,17
 42 263 42 263 66.599609375 278.099609375 c 0,18,19
 76 284 76 284 85.5 284.400390625 c 0,20,21
 102 284 102 284 120.599609375 262.799804688 c 0,22,23
 173 203 173 203 189.900390625 190.799804688 c 0,24,25
 218 170 218 170 239.400390625 162 c 0,26,27
 269 151 269 151 280.799804688 151.200195312 c 0,28,29
 296 151 296 151 323.099609375 162 c 0,30,31
 379 183 379 183 396.900390625 201.599609375 c 0,32,33
 416 221 416 221 415.799804688 249.299804688 c 0,34,35
 416 271 416 271 410.400390625 285.299804688 c 0,36,37
 407 296 407 296 387.900390625 315.700195312 c 0,38,39
 364 342 364 342 333 355.299804688 c 0,40,41
 302 368 302 368 216.900390625 385 c 0,42,43
 145 399 145 399 91.7998046875 426.599609375 c 0,44,45
 75 435 75 435 44.099609375 471.599609375 c 0,46,47
 32.400390625 485.523473757 32.400390625 485.523473757 32.400390625 541.799804688 c 2,48,-1
 32.400390625 542.700195312 l 2,49,50
 32 621 32 621 114.299804688 665.099609375 c 0,51,52
 160 689 160 689 216.900390625 695.200195312 c 0,53,54
 245 698 245 698 274 698 c 128,-1,55
 303 698 303 698 330.299804688 691.599609375 c 0,56,57
 395 676 395 676 426.599609375 637.599609375 c 0,58,59
 445 616 445 616 445.5 589.900390625 c 0,60,61
 446.077062719 571.549345337 446.077062719 571.549345337 433.799804688 553.900390625 c 0,62,63
 413 525 413 525 367.412109375 539.677734375 c 0,64,65
 308.607556717 560.2340913 308.607556717 560.2340913 247 561.5 c 0,66,67
 232 562 232 562 171 533.700195312 c 1,68,69
 239 511 239 511 255.599609375 507.900390625 c 0,70,71
 342 490 342 490 433.799804688 450.799804688 c 0,72,73
 504 422 504 422 536.400390625 351 c 0,0,1
EndSplineSet
Validated: 33
EndChar

StartChar: T
Encoding: 84 84 55
Width: 697
VWidth: 1075
GlyphClass: 1
Flags: MW
LayerCount: 2
Fore
SplineSet
321.299804688 229.5 m 128,-1,1
 308.700195312 399.599609375 308.700195312 399.599609375 308.700195312 486 c 0,2,3
 308.700195312 504 308.700195312 504 308.700195312 535.5 c 1,4,5
 275.400390625 527.400390625 275.400390625 527.400390625 243 527.400390625 c 0,6,7
 230.400390625 527.400390625 230.400390625 527.400390625 217.799804688 528.299804688 c 0,8,9
 182.700195312 525.599609375 182.700195312 525.599609375 155.700195312 525.599609375 c 0,10,11
 101.700195312 525.599609375 101.700195312 525.599609375 79.2001953125 535.5 c 0,12,13
 32.400390625 556.200195312 32.400390625 556.200195312 32.400390625 592.200195312 c 0,14,15
 32.400390625 625.5 32.400390625 625.5 75.599609375 646.200195312 c 0,16,17
 100.799804688 657.900390625 100.799804688 657.900390625 250.200195312 675.900390625 c 0,18,19
 400.5 693.900390625 400.5 693.900390625 505.799804688 695.700195312 c 0,20,21
 531 696.599609375 531 696.599609375 550.799804688 696.599609375 c 0,22,23
 585 696.599609375 585 696.599609375 599.400390625 694.799804688 c 0,24,25
 622.799804688 691.200195312 622.799804688 691.200195312 640.799804688 673.200195312 c 0,26,27
 666 650.700195312 666 650.700195312 666 619.200195312 c 128,-1,28
 666 587.700195312 666 587.700195312 642.599609375 566.099609375 c 0,29,30
 623.700195312 549 623.700195312 549 588.599609375 543.599609375 c 0,31,32
 552.599609375 538.200195312 552.599609375 538.200195312 450.900390625 535.5 c 0,33,34
 442.799804688 535.5 442.799804688 535.5 438.299804688 535.5 c 1,35,36
 444.599609375 423.900390625 444.599609375 423.900390625 450 319.5 c 0,37,38
 452.700195312 264.599609375 452.700195312 264.599609375 455.400390625 204.299804688 c 0,39,40
 457.200195312 159.299804688 457.200195312 159.299804688 457.200195312 122.849609375 c 128,-1,41
 457.200195312 86.400390625 457.200195312 86.400390625 454.950195312 65.7001953125 c 128,-1,42
 452.700195312 45 452.700195312 45 444.599609375 28.7998046875 c 128,-1,43
 436.5 12.599609375 436.5 12.599609375 423 8.099609375 c 0,44,45
 412.200195312 3.599609375 412.200195312 3.599609375 397.799804688 2.7001953125 c 0,46,47
 353.700195312 3.599609375 353.700195312 3.599609375 341.099609375 37.7998046875 c 0,48,0
 333.900390625 59.400390625 333.900390625 59.400390625 321.299804688 229.5 c 128,-1,1
EndSplineSet
Validated: 1
EndChar

StartChar: U
Encoding: 85 85 56
Width: 629
VWidth: 1075
GlyphClass: 1
Flags: MW
LayerCount: 2
Fore
SplineSet
286.200195312 18 m 0,0,1
 115.200195312 63.900390625 115.200195312 63.900390625 53.099609375 315 c 0,2,3
 32.400390625 405.900390625 32.400390625 405.900390625 32.400390625 498.599609375 c 0,4,5
 32.400390625 520.200195312 32.400390625 520.200195312 33.2998046875 541.799804688 c 0,6,7
 36.900390625 603 36.900390625 603 48.599609375 633.599609375 c 0,8,9
 63.930643163 667.799804688 63.930643163 667.799804688 96.75 667.799804688 c 0,10,11
 131.727580567 667.799804688 131.727580567 667.799804688 145.799804688 590.400390625 c 0,12,13
 151.200195312 557.099609375 151.200195312 557.099609375 153 504 c 0,14,15
 166.5 286.200195312 166.5 286.200195312 262.799804688 200.700195312 c 0,16,17
 309.599609375 162 309.599609375 162 344.700195312 162 c 0,18,19
 386.015191076 162 386.015191076 162 418.5 225 c 0,20,21
 435.599609375 258.299804688 435.599609375 258.299804688 441 293.400390625 c 0,22,23
 446.400390625 331.200195312 446.400390625 331.200195312 446.400390625 467.099609375 c 0,24,25
 446.400390625 601.200195312 446.400390625 601.200195312 450 635.400390625 c 0,26,27
 453.599609375 667.799804688 453.599609375 667.799804688 474.299804688 680.400390625 c 0,28,29
 497.700195312 695.700195312 497.700195312 695.700195312 511.200195312 695.700195312 c 0,30,31
 568.721616924 695.700195312 568.721616924 695.700195312 588.599609375 581.400390625 c 4,32,33
 596.700195312 527.400390625 596.700195312 527.400390625 596.700195312 431.099609375 c 0,34,35
 596.700195312 412.200195312 596.700195312 412.200195312 596.700195312 392.400390625 c 0,36,37
 594.900390625 292.5 594.900390625 292.5 588.599609375 251.099609375 c 0,38,39
 582.299804688 212.400390625 582.299804688 212.400390625 565.200195312 177.299804688 c 0,40,41
 539.862188309 113.955844603 539.862188309 113.955844603 499.5 71.099609375 c 0,42,43
 457.142069492 26.1243117098 457.142069492 26.1243117098 412.200195312 14.400390625 c 0,44,45
 372.599609375 3.599609375 372.599609375 3.599609375 354.150390625 3.599609375 c 128,-1,46
 335.700195312 3.599609375 335.700195312 3.599609375 286.200195312 18 c 0,0,1
EndSplineSet
Validated: 1
EndChar

StartChar: V
Encoding: 86 86 57
Width: 735
VWidth: 1075
GlyphClass: 1
Flags: MW
LayerCount: 2
Fore
SplineSet
470.700195312 19.7998046875 m 128,-1,1
 439.200195312 -0.900390625 439.200195312 -0.900390625 418.5 -0.900390625 c 0,2,3
 411.299804688 -0.900390625 411.299804688 -0.900390625 398.700195312 5.400390625 c 0,4,5
 387 11.7001953125 387 11.7001953125 367.200195312 25.2001953125 c 0,6,7
 324.900390625 51.2998046875 324.900390625 51.2998046875 288.900390625 96.2998046875 c 128,-1,8
 252.900390625 141.299804688 252.900390625 141.299804688 156.599609375 289.799804688 c 0,9,10
 66.599609375 431.099609375 66.599609375 431.099609375 44.099609375 489.599609375 c 0,11,12
 32.400390625 520.200195312 32.400390625 520.200195312 32.400390625 542.700195312 c 0,13,14
 32.400390625 569.700195312 32.400390625 569.700195312 47.7001953125 585.900390625 c 0,15,16
 66.599609375 606.599609375 66.599609375 606.599609375 84.599609375 606.599609375 c 0,17,18
 91.7998046875 606.599609375 91.7998046875 606.599609375 98.099609375 603.900390625 c 0,19,20
 112.5 597.599609375 112.5 597.599609375 140.400390625 566.099609375 c 0,21,22
 169.200195312 534.599609375 169.200195312 534.599609375 217.799804688 464.400390625 c 0,23,24
 260.099609375 405.900390625 260.099609375 405.900390625 359.099609375 261 c 0,25,26
 381.599609375 234 381.599609375 234 404.099609375 198.900390625 c 1,27,28
 439.200195312 296.099609375 439.200195312 296.099609375 474.299804688 390.599609375 c 0,29,30
 553.5 605.700195312 553.5 605.700195312 577.799804688 642.599609375 c 0,31,32
 599.400390625 674.099609375 599.400390625 674.099609375 630 679.5 c 0,33,34
 637.200195312 681.299804688 637.200195312 681.299804688 644.400390625 681.299804688 c 0,35,36
 666.900390625 681.299804688 666.900390625 681.299804688 683.099609375 664.200195312 c 0,37,38
 702.900390625 643.5 702.900390625 643.5 702.900390625 607.5 c 0,39,40
 702.900390625 585.900390625 702.900390625 585.900390625 663.75 464.849609375 c 128,-1,41
 624.599609375 343.799804688 624.599609375 343.799804688 578.700195312 218.700195312 c 0,42,43
 531 93.599609375 531 93.599609375 514.799804688 65.7001953125 c 0,44,0
 502.200195312 40.5 502.200195312 40.5 470.700195312 19.7998046875 c 128,-1,1
EndSplineSet
Validated: 1
EndChar

StartChar: W
Encoding: 87 87 58
Width: 735
VWidth: 1075
GlyphClass: 1
Flags: MW
LayerCount: 2
Fore
SplineSet
32.400390625 616.5 m 0,0,1
 32.400390625 632.700195312 32.400390625 632.700195312 39.599609375 642.599609375 c 0,2,3
 49.5 653.400390625 49.5 653.400390625 70.2001953125 656.099609375 c 0,4,5
 73.7998046875 657 73.7998046875 657 76.5 657 c 0,6,7
 88.2001953125 657 88.2001953125 657 97.2001953125 651.599609375 c 0,8,9
 108 645.299804688 108 645.299804688 117.900390625 636.299804688 c 1,10,11
 163.799804688 537.299804688 163.799804688 537.299804688 165.599609375 531.900390625 c 0,12,13
 181.799804688 474.299804688 181.799804688 474.299804688 223.200195312 263.700195312 c 1,14,-1
 236.700195312 213.299804688 l 1,15,-1
 255.599609375 242.099609375 l 1,16,17
 305.099609375 335.700195312 305.099609375 335.700195312 360 335.700195312 c 0,18,19
 385.200195312 335.700195312 385.200195312 335.700195312 415.799804688 314.099609375 c 0,20,21
 438.299804688 297 438.299804688 297 486 241.200195312 c 0,22,23
 516.599609375 206.099609375 516.599609375 206.099609375 544.5 183.599609375 c 1,24,25
 550.799804688 199.799804688 550.799804688 199.799804688 554.400390625 239.400390625 c 0,26,27
 565.200195312 389.700195312 565.200195312 389.700195312 565.200195312 392.400390625 c 0,28,29
 574.200195312 539.099609375 574.200195312 539.099609375 582.299804688 576 c 0,30,31
 588.599609375 608.400390625 588.599609375 608.400390625 608.400390625 627.299804688 c 128,-1,32
 628.200195312 646.200195312 628.200195312 646.200195312 635.400390625 647.099609375 c 0,33,34
 637.200195312 647.099609375 637.200195312 647.099609375 639.900390625 647.099609375 c 0,35,36
 649.799804688 647.099609375 649.799804688 647.099609375 666.900390625 638.099609375 c 0,37,38
 694.799804688 622.799804688 694.799804688 622.799804688 701.099609375 576.900390625 c 0,39,40
 702.900390625 559.799804688 702.900390625 559.799804688 702.900390625 523.799804688 c 0,41,42
 702.900390625 468 702.900390625 468 695.700195312 378.900390625 c 0,43,44
 680.400390625 157.5 680.400390625 157.5 666 101.700195312 c 0,45,46
 649.799804688 36.900390625 649.799804688 36.900390625 610.200195312 19.7998046875 c 0,47,48
 587.700195312 9.900390625 587.700195312 9.900390625 567.900390625 9.900390625 c 0,49,50
 540.900390625 9.900390625 540.900390625 9.900390625 529.200195312 17.099609375 c 0,51,52
 477 52.2001953125 477 52.2001953125 424.799804688 106.200195312 c 2,53,-1
 357.299804688 178.200195312 l 1,54,55
 344.700195312 156.599609375 344.700195312 156.599609375 332.099609375 117.900390625 c 1,56,57
 292.5 42.2998046875 292.5 42.2998046875 261.900390625 22.5 c 0,58,59
 240.299804688 8.099609375 240.299804688 8.099609375 217.799804688 8.099609375 c 0,60,61
 208.799804688 8.099609375 208.799804688 8.099609375 187.200195312 14.400390625 c 0,62,63
 173.700195312 18.900390625 173.700195312 18.900390625 165.599609375 30.599609375 c 0,64,65
 153 49.5 153 49.5 144 75.599609375 c 0,66,67
 126 130.5 126 130.5 81.900390625 309.599609375 c 0,68,69
 32.400390625 509.400390625 32.400390625 509.400390625 32.400390625 616.5 c 0,0,1
EndSplineSet
Validated: 1
EndChar

StartChar: X
Encoding: 88 88 59
Width: 665
VWidth: 1075
GlyphClass: 1
Flags: MW
LayerCount: 2
Fore
SplineSet
178.200195312 47.7001953125 m 0,0,1
 141 11 141 11 108.900390625 10.7998046875 c 0,2,3
 78 11 78 11 58.5 29.7001953125 c 0,4,5
 38 50 38 50 39.599609375 75.599609375 c 0,6,7
 40 82 40 82 45 93.599609375 c 128,-1,8
 50 105 50 105 67.5 132.75 c 0,9,10
 85 160 85 160 117 203.400390625 c 0,11,-1
 202.5 314.099609375 l 1,12,13
 200 323 200 323 182.700195312 346.049804688 c 0,14,15
 179 351 179 351 127.799804688 411.299804688 c 0,16,17
 52 500 52 500 38.7001953125 535.5 c 0,18,19
 32 552 32 552 32.400390625 566.099609375 c 0,20,21
 32 592 32 592 52.2001953125 610.650390625 c 0,22,23
 72 629 72 629 92.7001953125 629.099609375 c 0,24,25
 106 629 106 629 120.599609375 621.900390625 c 0,26,27
 153 606 153 606 226.799804688 536.400390625 c 0,28,29
 287 479 287 479 309.599609375 460.799804688 c 1,30,31
 340 493 340 493 392.400390625 559.799804688 c 0,32,33
 427 604 427 604 452.700195312 632.700195312 c 0,34,35
 479 662 479 662 489.599609375 671.400390625 c 128,-1,36
 500 681 500 681 506.700195312 683.099609375 c 0,37,38
 546 698 546 698 567.900390625 690.299804688 c 0,39,40
 602 679 602 679 608.400390625 646.200195312 c 0,41,42
 616 607 616 607 596 582 c 0,43,44
 585 568 585 568 499 456 c 0,45,46
 442 381 442 381 418.700195312 350.099609375 c 1,47,48
 465 298 465 298 511 246 c 0,49,50
 581 165 581 165 607.30078125 123.149414062 c 0,51,52
 636 78 636 78 632.700195312 48.599609375 c 0,53,54
 630 23 630 23 618.299804688 13.5 c 0,55,56
 611 7 611 7 578.700195312 3.599609375 c 0,57,58
 546 -0 546 -0 518.400390625 18 c 0,59,60
 474 47 474 47 417.599609375 111.599609375 c 0,61,62
 349 190 349 190 317.700195312 213.299804688 c 1,63,64
 313 209 313 209 278.099609375 162 c 0,65,66
 231 99 231 99 178.200195312 47.7001953125 c 0,0,1
EndSplineSet
Validated: 545
EndChar

StartChar: Y
Encoding: 89 89 60
Width: 710
VWidth: 1075
GlyphClass: 1
Flags: MW
LayerCount: 2
Fore
SplineSet
400.5 0 m 0,0,1
 380.700195312 0 380.700195312 0 357.299804688 15.2998046875 c 0,2,3
 337.5 27 337.5 27 332.099609375 51.2998046875 c 0,4,5
 327.599609375 75.599609375 327.599609375 75.599609375 324.900390625 149.400390625 c 0,6,7
 322.200195312 227.700195312 322.200195312 227.700195312 317.700195312 245.700195312 c 0,8,9
 312.299804688 263.700195312 312.299804688 263.700195312 293.400390625 281.700195312 c 0,10,11
 266.400390625 306.900390625 266.400390625 306.900390625 145.799804688 454.5 c 0,12,13
 99.900390625 508.5 99.900390625 508.5 76.5 540 c 0,14,15
 32.400390625 611.099609375 32.400390625 611.099609375 32.400390625 643.5 c 0,16,17
 32.400390625 660.599609375 32.400390625 660.599609375 58.5 671.400390625 c 0,18,19
 69.2998046875 676.799804688 69.2998046875 676.799804688 81.900390625 676.799804688 c 0,20,21
 105.299804688 676.799804688 105.299804688 676.799804688 134.099609375 657 c 0,22,23
 175.5 626.400390625 175.5 626.400390625 269.099609375 522 c 1,24,-1
 372.599609375 417.599609375 l 1,25,-1
 458.099609375 531.900390625 l 2,26,27
 532.799804688 637.200195312 532.799804688 637.200195312 565.200195312 666.900390625 c 0,28,29
 596.700195312 693 596.700195312 693 628.200195312 693 c 0,30,31
 657 693 657 693 668.700195312 681.299804688 c 0,32,33
 674.099609375 674.099609375 674.099609375 674.099609375 677.700195312 648 c 0,34,35
 678.599609375 647.099609375 678.599609375 647.099609375 677.700195312 646.200195312 c 0,36,37
 677.700195312 643.5 677.700195312 643.5 677.700195312 641.700195312 c 0,38,39
 677.700195312 613.799804688 677.700195312 613.799804688 660.599609375 576.900390625 c 0,40,41
 643.5 544.5 643.5 544.5 576.900390625 447.299804688 c 2,42,-1
 471.599609375 294.299804688 l 1,43,-1
 470.700195312 179.099609375 l 2,44,45
 469.799804688 83.7001953125 469.799804688 83.7001953125 459.900390625 45.900390625 c 0,46,47
 449.099609375 9 449.099609375 9 410.400390625 0.900390625 c 0,48,49
 405 0 405 0 400.5 0 c 0,0,1
EndSplineSet
Validated: 1
EndChar

StartChar: Z
Encoding: 90 90 61
Width: 710
VWidth: 1075
GlyphClass: 1
Flags: MW
LayerCount: 2
Fore
SplineSet
499 164 m 0,0,1
 583 164 583 164 610 158.5 c 128,-1,2
 637 153 637 153 654.299804688 136.799804688 c 0,3,4
 676 116 676 116 675.900390625 84.599609375 c 0,5,6
 676 32 676 32 625.049804688 20.25 c 0,7,8
 608 16 608 16 573.299804688 13.5 c 0,9,10
 524 9 524 9 496.349609375 8.5498046875 c 0,11,12
 409 7 409 7 384.299804688 6.2998046875 c 0,13,14
 345 5 345 5 232.700195312 4.099609375 c 0,15,16
 165 4 165 4 156.200195312 5.44921875 c 0,17,18
 72 22 72 22 89 88 c 0,19,20
 111 173 111 173 444 548 c 1,21,22
 361 545 361 545 168 545 c 0,23,24
 56 545 56 545 56.400390625 612.900390625 c 0,25,26
 56 665 56 665 129.299804688 681.299804688 c 0,27,28
 172 691 172 691 222 692.099609375 c 0,29,30
 391 695 391 695 453.599609375 693.900390625 c 0,31,32
 520 693 520 693 564.299804688 683.099609375 c 0,33,34
 590 677 590 677 608 657.5 c 128,-1,35
 626 638 626 638 630.900390625 623.700195312 c 0,36,37
 648.658082752 571.881565215 648.658082752 571.881565215 539 439 c 0,38,39
 447 327 447 327 329 161 c 1,40,41
 414 164 414 164 499 164 c 0,0,1
EndSplineSet
Validated: 545
EndChar

StartChar: backslash
Encoding: 92 92 62
Width: 542
VWidth: 1075
GlyphClass: 1
Flags: MW
LayerCount: 2
Fore
SplineSet
47.900390625 728.400390625 m 4,0,1
 61 735 61 735 74 734.700195312 c 4,2,3
 88 735 88 735 97.849609375 728.400390625 c 4,4,5
 115 718 115 718 125.299804688 702.299804688 c 4,6,7
 252.149414062 531.887695312 252.149414062 531.887695312 371.200195312 356.400390625 c 4,8,9
 402 311 402 311 437.799804688 251.099609375 c 4,10,11
 461 211 461 211 479.650390625 173.700195312 c 4,12,13
 502 130 502 130 506.200195312 116.099609375 c 4,14,15
 515 90 515 90 515.200195312 68.400390625 c 4,16,17
 515 54 515 54 509.799804688 41.400390625 c 4,18,19
 504 28 504 28 494.5 16.2001953125 c 4,20,21
 481 2 481 2 472 -5.400390625 c 4,22,23
 461 -14 461 -14 453.099609375 -13.5 c 4,24,25
 442 -14 442 -14 416.200195312 4.5 c 4,26,27
 398.057617188 17.310546875 398.057617188 17.310546875 360.400390625 70.650390625 c 4,28,29
 279 186 279 186 204.700195312 313.200195312 c 4,30,31
 85.515625 510.509765625 85.515625 510.509765625 80.2998046875 520.5 c 4,32,33
 20 636 20 636 16.400390625 683.400390625 c 4,34,35
 16 689 16 689 17.2998046875 694.200195312 c 4,36,37
 23 717 23 717 47.900390625 728.400390625 c 4,0,1
EndSplineSet
Validated: 33
EndChar

StartChar: underscore
Encoding: 95 95 63
Width: 736
VWidth: 1075
GlyphClass: 1
Flags: MW
LayerCount: 2
Fore
SplineSet
32.400390625 17.099609375 m 0,0,1
 32.400390625 44.099609375 32.400390625 44.099609375 66.599609375 65.7001953125 c 0,2,3
 91.7998046875 82.7998046875 91.7998046875 82.7998046875 144.900390625 89.099609375 c 0,4,5
 200.700195312 95.400390625 200.700195312 95.400390625 444.599609375 109.799804688 c 0,6,7
 520.200195312 115.200195312 520.200195312 115.200195312 568.799804688 115.200195312 c 0,8,9
 603 115.200195312 603 115.200195312 624.599609375 112.5 c 0,10,11
 681.299804688 104.400390625 681.299804688 104.400390625 696.599609375 72 c 0,12,13
 703.799804688 55.7998046875 703.799804688 55.7998046875 703.799804688 37.7998046875 c 0,14,15
 703.799804688 27 703.799804688 27 702 16.2001953125 c 0,16,17
 694.799804688 -16.2001953125 694.799804688 -16.2001953125 673.200195312 -27.900390625 c 0,18,19
 663.299804688 -33.2998046875 663.299804688 -33.2998046875 603 -36.900390625 c 0,20,21
 540 -41.400390625 540 -41.400390625 418.049804688 -44.099609375 c 128,-1,22
 296.099609375 -46.7998046875 296.099609375 -46.7998046875 210.599609375 -46.7998046875 c 128,-1,23
 125.099609375 -46.7998046875 125.099609375 -46.7998046875 99.900390625 -41.400390625 c 0,24,25
 46.7998046875 -29.7001953125 46.7998046875 -29.7001953125 35.099609375 2.7001953125 c 0,26,27
 32.400390625 9.900390625 32.400390625 9.900390625 32.400390625 17.099609375 c 0,0,1
EndSplineSet
Validated: 1
EndChar

StartChar: a
Encoding: 97 97 64
Width: 535
VWidth: 1075
GlyphClass: 1
Flags: MW
LayerCount: 2
Fore
SplineSet
117 38.7001953125 m 128,-1,1
 100.799804688 6.2998046875 100.799804688 6.2998046875 80.099609375 6.2998046875 c 0,2,3
 56.7001953125 6.2998046875 56.7001953125 6.2998046875 39.599609375 27 c 0,4,5
 32.400390625 37.7998046875 32.400390625 37.7998046875 32.400390625 62.5498046875 c 128,-1,6
 32.400390625 87.2998046875 32.400390625 87.2998046875 38.7001953125 127.799804688 c 0,7,8
 50.400390625 204.299804688 50.400390625 204.299804688 90 380.700195312 c 0,9,10
 129.599609375 549.900390625 129.599609375 549.900390625 136.799804688 602.099609375 c 0,11,12
 143.099609375 644.400390625 143.099609375 644.400390625 165.599609375 671.400390625 c 128,-1,13
 188.099609375 698.400390625 188.099609375 698.400390625 216.900390625 698.400390625 c 0,14,15
 231.299804688 698.400390625 231.299804688 698.400390625 239.400390625 693.900390625 c 0,16,17
 255.599609375 687.599609375 255.599609375 687.599609375 273.599609375 667.349609375 c 128,-1,18
 291.599609375 647.099609375 291.599609375 647.099609375 314.099609375 605.700195312 c 0,19,20
 353.700195312 535.5 353.700195312 535.5 422.099609375 364.5 c 1,21,22
 455.400390625 269.099609375 455.400390625 269.099609375 472.049804688 223.650390625 c 128,-1,23
 488.700195312 178.200195312 488.700195312 178.200195312 495.900390625 147.599609375 c 128,-1,24
 503.099609375 117 503.099609375 117 503.099609375 102.599609375 c 0,25,26
 503.099609375 81.900390625 503.099609375 81.900390625 486.900390625 62.099609375 c 0,27,28
 470.700195312 44.099609375 470.700195312 44.099609375 453.599609375 44.099609375 c 0,29,30
 440.099609375 44.099609375 440.099609375 44.099609375 427.5 54 c 0,31,32
 403.200195312 73.7998046875 403.200195312 73.7998046875 367.200195312 141.299804688 c 2,33,-1
 333 209.700195312 l 1,34,35
 320.400390625 210.599609375 320.400390625 210.599609375 307.799804688 210.599609375 c 2,36,-1
 250.200195312 206.099609375 l 2,37,38
 180.900390625 203.400390625 180.900390625 203.400390625 160.200195312 200.700195312 c 1,39,40
 155.700195312 188.099609375 155.700195312 188.099609375 147.599609375 144 c 0,41,0
 133.200195312 71.099609375 133.200195312 71.099609375 117 38.7001953125 c 128,-1,1
231.299804688 337.5 m 0,42,43
 269.099609375 342 269.099609375 342 281.700195312 343.799804688 c 1,44,45
 275.400390625 363.599609375 275.400390625 363.599609375 257.400390625 409.049804688 c 128,-1,46
 239.400390625 454.5 239.400390625 454.5 228.599609375 477.900390625 c 1,47,48
 222.299804688 458.099609375 222.299804688 458.099609375 214.200195312 422.099609375 c 0,49,50
 198.900390625 351.900390625 198.900390625 351.900390625 193.5 333 c 1,51,52
 202.5 333.900390625 202.5 333.900390625 231.299804688 337.5 c 0,42,43
EndSplineSet
Validated: 1
EndChar

StartChar: i
Encoding: 105 105 72
Width: 260
VWidth: 1075
GlyphClass: 1
Flags: MW
LayerCount: 2
Fore
SplineSet
104.400390625 690.299804688 m 0,0,1
 125.099609375 690.299804688 125.099609375 690.299804688 141.299804688 675.900390625 c 0,2,3
 165.599609375 651.599609375 165.599609375 651.599609375 176.400390625 593.099609375 c 0,4,5
 189.900390625 516.599609375 189.900390625 516.599609375 198.900390625 369 c 0,6,7
 210.911059731 169.62237154 210.911059731 169.62237154 207 118.799804688 c 0,8,9
 205.200195312 59.400390625 205.200195312 59.400390625 199.799804688 37.7998046875 c 0,10,11
 186.255156252 -0.900390625 186.255156252 -0.900390625 145.799804688 -0.900390625 c 0,12,13
 128.0075987 -0.900390625 128.0075987 -0.900390625 108.900390625 19.7998046875 c 0,14,15
 90.900390625 36.900390625 90.900390625 36.900390625 84.599609375 59.400390625 c 0,16,17
 78.2998046875 83.7001953125 78.2998046875 83.7001953125 72.900390625 135.900390625 c 0,18,19
 69.2998046875 172.799804688 69.2998046875 172.799804688 58.5 342 c 0,20,21
 47.7001953125 512.099609375 47.7001953125 512.099609375 46.7998046875 592.200195312 c 0,22,23
 46.7998046875 646.200195312 46.7998046875 646.200195312 51.2998046875 660.599609375 c 0,24,25
 62.4378814596 690.299804688 62.4378814596 690.299804688 104.400390625 690.299804688 c 0,0,1
EndSplineSet
Validated: 33
EndChar

StartChar: braceleft
Encoding: 123 123 90
Width: 680
VWidth: 1075
GlyphClass: 1
Flags: MW
LayerCount: 2
Fore
SplineSet
239.400390625 709 m 4,0,1
 239 815 239 815 260.099609375 863 c 4,2,3
 282 914 282 914 348.299804688 942.200195312 c 4,4,5
 407 967 407 967 450 967.400390625 c 4,6,7
 501 967 501 967 530.099609375 934.099609375 c 4,8,9
 553 908 553 908 552.599609375 886.400390625 c 4,10,11
 553 841 553 841 466.200195312 830.599609375 c 4,12,13
 428 826 428 826 422.099609375 825.200195312 c 4,14,15
 409 822 409 822 396.900390625 815.299804688 c 4,16,17
 385 808 385 808 380.700195312 800.900390625 c 4,18,19
 377 795 377 795 372.599609375 772.099609375 c 4,20,21
 369 750 369 750 367.200195312 726.200195312 c 4,22,23
 365 702 365 702 365.400390625 659.5 c 4,24,25
 365 599 365 599 363.599609375 571.299804688 c 4,26,27
 362 543 362 543 353.700195312 527.200195312 c 4,28,29
 344 507 344 507 323.099609375 490.299804688 c 4,30,31
 317 485 317 485 237.599609375 443.5 c 5,32,33
 324 375 324 375 336.599609375 231.700195312 c 29,34,35
 337 195 337 195 338.400390625 173.200195312 c 4,36,37
 340 154 340 154 345.599609375 140.799804688 c 4,38,39
 352 127 352 127 359.099609375 121 c 4,40,41
 369 114 369 114 384.299804688 109.299804688 c 4,42,43
 403 104 403 104 424.799804688 102.099609375 c 4,44,45
 447 100 447 100 487.799804688 97.599609375 c 4,46,47
 556 95 556 95 584.099609375 87.7001953125 c 4,48,49
 610 81 610 81 630 58 c 4,50,51
 649 35 649 35 648.900390625 15.7001953125 c 4,52,53
 649 9 649 9 639 -14 c 4,54,55
 629 -39 629 -39 570.599609375 -61 c 4,56,57
 552 -68 552 -68 486.900390625 -65.5 c 4,58,59
 471 -65 471 -65 452.700195312 -63.7001953125 c 4,60,61
 363 -58 363 -58 269.099609375 -14.900390625 c 4,62,63
 237 0 237 0 228.599609375 15.25 c 4,64,65
 220 31 220 31 210.599609375 83.2001953125 c 4,66,67
 203 126 203 126 195.299804688 193 c 4,68,-1
 190.799804688 232 l 4,69,70
 189 248 189 248 182.700195312 273.400390625 c 4,71,72
 177 296 177 296 173.700195312 303.099609375 c 4,73,74
 170 310 170 310 155.700195312 322.900390625 c 4,75,76
 142 335 142 335 129.599609375 343.599609375 c 4,77,78
 96 367 96 367 90.900390625 369.700195312 c 4,79,80
 32 405 32 405 32.400390625 445.299804688 c 4,81,82
 32 479 32 479 72.900390625 511 c 4,83,84
 109 540 109 540 239.400390625 586.599609375 c 5,85,-1
 239.400390625 709 l 4,0,1
EndSplineSet
Validated: 33
EndChar

StartChar: braceright
Encoding: 125 125 91
Width: 569
VWidth: 967
GlyphClass: 1
Flags: MW
LayerCount: 2
Fore
SplineSet
28.7998046875 21.5 m 0,0,1
 29 36 29 36 36.900390625 48.5 c 0,2,3
 56 82 56 82 117.900390625 82.7001953125 c 0,4,5
 139 83 139 83 166.5 88.5498046875 c 0,6,7
 193.139029282 94.2434483158 193.139029282 94.2434483158 214.200195312 103.400390625 c 2,8,-1
 234.900390625 112.400390625 l 2,9,10
 237 113 237 113 243 118.25 c 0,11,12
 248 122 248 122 249.299804688 125 c 0,13,14
 251 132 251 132 251.099609375 138.950195312 c 128,-1,15
 251 146 251 146 250.200195312 151.549804688 c 0,16,17
 247 167 247 167 246.599609375 178.099609375 c 0,18,19
 234 282 234 282 229 318 c 0,20,21
 221 376 221 376 262 404 c 1,22,23
 262 404 262 404 341 458 c 1,24,25
 248 475 248 475 216.5 494 c 0,26,27
 193 509 193 509 187.200195312 538.099609375 c 0,28,29
 186 544 186 544 184.5 557.900390625 c 0,30,31
 184 563 184 563 183.599609375 582.650390625 c 0,32,33
 183 602 183 602 182.700195312 613.700195312 c 0,34,35
 183 625 183 625 183.599609375 654.200195312 c 0,36,37
 184 688 184 688 183.150390625 710.450195312 c 0,38,39
 183 732 183 732 178.650390625 750.5 c 0,40,41
 175 768 175 768 170.099609375 777.049804688 c 0,42,43
 166 786 166 786 155.700195312 793.25 c 0,44,45
 146 801 146 801 131.400390625 805.400390625 c 0,46,47
 120 809 120 809 94.9501953125 816.200195312 c 0,48,49
 70 823 70 823 54 838.700195312 c 0,50,51
 34 857 34 857 34.2001953125 879.200195312 c 0,52,53
 34 894 34 894 43.650390625 909.799804688 c 0,54,55
 53 925 53 925 74.7001953125 934.549804688 c 0,56,57
 96 944 96 944 122.400390625 944 c 0,58,59
 230 944 230 944 288.900390625 867.5 c 0,60,61
 333 810 333 810 333 725.299804688 c 0,62,63
 333 721 333 721 328.5 668.599609375 c 0,64,65
 326 637 326 637 325.799804688 628.099609375 c 0,66,67
 326 601 326 601 333 592.099609375 c 0,68,69
 338 587 338 587 353.700195312 582.200195312 c 0,70,71
 370 578 370 578 405 577.700195312 c 0,72,73
 469 578 469 578 504 555.200195312 c 0,74,75
 542 531 542 531 541.799804688 487.700195312 c 0,76,77
 542 455 542 455 513.900390625 425.599609375 c 0,78,79
 482 391 482 391 408.599609375 360.799804688 c 0,80,81
 372 346 372 346 365.400390625 336.5 c 0,82,83
 363 333 363 333 362.700195312 327.049804688 c 0,84,85
 363 321 363 321 363.599609375 314.900390625 c 0,86,87
 382 233 382 233 381.599609375 154.700195312 c 0,88,89
 382 96 382 96 369.900390625 67.400390625 c 0,90,91
 350 17 350 17 295.200195312 -13.150390625 c 0,92,93
 240 -43 240 -43 165.599609375 -49.599609375 c 0,94,95
 134 -52 134 -52 117 -52.2998046875 c 0,96,97
 101 -52 101 -52 91.7998046875 -51.400390625 c 0,98,99
 69 -48 69 -48 53.099609375 -29.7998046875 c 0,100,101
 29 -4 29 -4 28.7998046875 21.5 c 0,0,1
EndSplineSet
Validated: 33
EndChar

StartChar: asciitilde
Encoding: 126 126 92
Width: 496
VWidth: 1075
GlyphClass: 1
Flags: MW
LayerCount: 2
Fore
SplineSet
193 478 m 0,0,1
 187 477 187 477 177 471 c 0,2,3
 147 456 147 456 142 450.700195312 c 0,4,5
 112 427 112 427 82 429.299804688 c 0,6,7
 73 430 73 430 67.599609375 434.700195312 c 0,8,9
 56 445 56 445 59.5 457.200195312 c 0,10,11
 60 459 60 459 63.099609375 480.599609375 c 0,12,13
 64 489 64 489 84.599609375 514.900390625 c 0,14,15
 95 528 95 528 117 545.5 c 0,16,17
 174 588 174 588 212.400390625 587.799804688 c 0,18,19
 224 588 224 588 233.099609375 583.299804688 c 0,20,21
 260 570 260 570 279 544.599609375 c 0,22,23
 290 530 290 530 300.599609375 523 c 0,24,25
 310 517 310 517 327.599609375 514.900390625 c 0,26,27
 338 514 338 514 342.900390625 514 c 0,28,29
 361 514 361 514 365.400390625 515.799804688 c 0,30,31
 373 519 373 519 390.599609375 535.599609375 c 0,32,33
 410 555 410 555 414 556.299804688 c 0,34,35
 416 557 416 557 418.5 557.200195312 c 0,36,37
 425 557 425 557 433.799804688 550 c 0,38,39
 446 541 446 541 446.400390625 509.5 c 0,40,41
 446 479 446 479 435.599609375 462.700195312 c 0,42,43
 417 433 417 433 378 419.5 c 0,44,45
 342 407 342 407 320 411 c 0,46,47
 283.961646567 416.439751462 283.961646567 416.439751462 236.799804688 462.599609375 c 0,48,49
 218 481 218 481 193 478 c 0,0,1
EndSplineSet
Validated: 33
EndChar

StartChar: sterling
Encoding: 163 163 94
Width: 645
VWidth: 870
GlyphClass: 1
Flags: MW
LayerCount: 2
Fore
SplineSet
554.400390625 39.2998046875 m 0,0,1
 571 57 571 57 588.599609375 57.2998046875 c 0,2,3
 597 57 597 57 604.799804688 53.7001953125 c 0,4,5
 626 43 626 43 626.400390625 15.900390625 c 0,6,7
 626 -24 626 -24 580.5 -48 c 0,8,9
 546 -66 546 -66 503.099609375 -66 c 0,10,11
 452 -66 452 -66 414.900390625 -39.900390625 c 0,12,13
 387 -20 387 -20 364.5 14.099609375 c 0,14,15
 350 36 350 36 315.900390625 52.349609375 c 0,16,17
 282 69 282 69 245.700195312 69 c 0,18,19
 174 69 174 69 104.400390625 2.400390625 c 0,20,21
 82 -19 82 -19 67.5 -29.099609375 c 128,-1,22
 53 -39 53 -39 43.2001953125 -39 c 0,23,24
 33 -39 33 -39 27.900390625 -33.599609375 c 0,25,26
 19 -26 19 -26 18.900390625 -11.099609375 c 0,27,28
 19 18 19 18 68.400390625 98.7001953125 c 0,29,30
 79 116 79 116 91.7998046875 133.799804688 c 0,31,32
 154 220 154 220 189 301.200195312 c 0,33,34
 213 358 213 358 212.900390625 389 c 1,35,36
 198 387 198 387 187 383 c 0,37,38
 158 374 158 374 124 348.799804688 c 0,39,40
 89.7520405402 323.68488216 89.7520405402 323.68488216 76.30078125 320 c 0,41,42
 69 318 69 318 61 324 c 0,43,44
 54.748446987 327.572316007 54.748446987 327.572316007 52.2001953125 343.5 c 0,45,46
 48 367 48 367 62.099609375 386.25 c 0,47,48
 73 402 73 402 98.099609375 423.599609375 c 0,49,50
 140 460 140 460 177.299804688 468.599609375 c 0,51,52
 197 473 197 473 201.599609375 477.599609375 c 128,-1,53
 206 482 206 482 206.099609375 496.049804688 c 128,-1,54
 206 510 206 510 198.450195312 528.900390625 c 0,55,56
 193 542 193 542 180 558.599609375 c 0,57,58
 129 623 129 623 128.700195312 691.799804688 c 0,59,60
 129 746 129 746 159.299804688 785.400390625 c 0,61,62
 186 820 186 820 227.700195312 832.200195312 c 0,63,64
 246 838 246 838 267.299804688 837.599609375 c 0,65,66
 289 838 289 838 314.549804688 828.599609375 c 0,67,68
 340 820 340 820 356.400390625 800.700195312 c 0,69,70
 374 780 374 780 389.700195312 744.450195312 c 0,71,72
 406 709 406 709 411.299804688 698.099609375 c 0,73,74
 418 686 418 686 425.700195312 680.099609375 c 17,75,76
 429 682 429 682 448.200195312 687.299804688 c 0,77,78
 473 694 473 694 482.400390625 681.900390625 c 0,79,80
 487 676 487 676 486 666.599609375 c 0,81,82
 475 603 475 603 417.599609375 600 c 0,83,84
 391 599 391 599 376 609 c 1,85,86
 345 628 345 628 326 674 c 0,87,88
 302 729 302 729 278 733 c 0,89,90
 254 736 254 736 238 719 c 0,91,92
 215 695 215 695 263 605 c 0,93,94
 271 590 271 590 308.700195312 497.400390625 c 0,95,96
 320 470 320 470 334.349609375 454.200195312 c 0,97,98
 348 438 348 438 371.700195312 424.5 c 0,99,100
 418 400 418 400 427.5 404.700195312 c 0,101,102
 435 409 435 409 447.299804688 427.200195312 c 0,103,104
 472 461 472 461 499.5 461.400390625 c 0,105,106
 522 461 522 461 531.900390625 434.400390625 c 0,107,108
 534 429 534 429 533.700195312 423.599609375 c 0,109,110
 534 398 534 398 496.799804688 357 c 0,111,112
 469 326 469 326 452.700195312 319.200195312 c 0,113,114
 442 315 442 315 428.400390625 314.700195312 c 0,115,116
 415 315 415 315 398.25 316.950195312 c 0,117,118
 382 319 382 319 360 329.099609375 c 0,119,120
 335 340 335 340 325.799804688 352.5 c 1,121,122
 313 311 313 311 309.599609375 296.700195312 c 0,123,124
 299 247 299 247 280.799804688 198.599609375 c 1,125,126
 293 195 293 195 313.200195312 191.400390625 c 0,127,128
 364 183 364 183 396.900390625 154.5 c 0,129,130
 434 122 434 122 450.900390625 73.5 c 0,131,132
 455 61 455 61 465.75 51 c 0,133,134
 474 43 474 43 489.599609375 36.599609375 c 0,135,136
 518 25 518 25 530.099609375 24.900390625 c 128,-1,137
 542 25 542 25 554.400390625 39.2998046875 c 0,0,1
EndSplineSet
Validated: 33
EndChar

StartChar: yen
Encoding: 165 165 96
Width: 529
VWidth: 870
GlyphClass: 1
Flags: MW
LayerCount: 2
Fore
SplineSet
336.599609375 165.599609375 m 2,0,1
 339.299804688 126 339.299804688 126 339.299804688 67.5 c 0,2,3
 339.299804688 36 339.299804688 36 338.400390625 24.2998046875 c 0,4,5
 334.799804688 -6.2998046875 334.799804688 -6.2998046875 317.700195312 -44.099609375 c 0,6,7
 296.099609375 -83.7001953125 296.099609375 -83.7001953125 277.200195312 -94.5 c 0,8,9
 270 -98.099609375 270 -98.099609375 261.900390625 -98.099609375 c 0,10,11
 243.900390625 -98.099609375 243.900390625 -98.099609375 230.400390625 -78.2998046875 c 0,12,13
 202.5 -41.400390625 202.5 -41.400390625 193.5 12.599609375 c 0,14,15
 187.200195312 54.900390625 187.200195312 54.900390625 187.200195312 106.200195312 c 0,16,17
 187.200195312 117.900390625 187.200195312 117.900390625 187.200195312 129.599609375 c 0,18,19
 187.200195312 170.099609375 187.200195312 170.099609375 187.200195312 172.799804688 c 2,20,-1
 191.700195312 257.400390625 l 1,21,-1
 166.5 263.700195312 l 2,22,23
 155.700195312 266.400390625 155.700195312 266.400390625 144 265.5 c 0,24,25
 133.200195312 265.5 133.200195312 265.5 124.200195312 260.099609375 c 0,26,27
 111.599609375 251.099609375 111.599609375 251.099609375 99 251.099609375 c 128,-1,28
 86.400390625 251.099609375 86.400390625 251.099609375 78.2998046875 261.900390625 c 0,29,30
 72 270 72 270 72 278.099609375 c 0,31,32
 72 285.299804688 72 285.299804688 74.7001953125 291.599609375 c 0,33,34
 80.099609375 302.400390625 80.099609375 302.400390625 100.799804688 318.599609375 c 0,35,36
 120.599609375 334.799804688 120.599609375 334.799804688 136.799804688 338.400390625 c 0,37,38
 144.900390625 340.200195312 144.900390625 340.200195312 154.799804688 340.200195312 c 128,-1,39
 164.700195312 340.200195312 164.700195312 340.200195312 177.299804688 337.5 c 0,40,41
 189 334.799804688 189 334.799804688 196.200195312 334.799804688 c 1,42,43
 197.099609375 342 197.099609375 342 197.099609375 396.900390625 c 0,44,45
 197.099609375 409.5 197.099609375 409.5 195.299804688 416.700195312 c 1,46,47
 190.799804688 418.5 190.799804688 418.5 187.200195312 418.5 c 0,48,49
 182.700195312 418.5 182.700195312 418.5 181.799804688 418.5 c 0,50,51
 161.099609375 418.5 161.099609375 418.5 127.799804688 405 c 0,52,53
 105.299804688 396 105.299804688 396 90 396 c 128,-1,54
 74.7001953125 396 74.7001953125 396 69.2998046875 408.599609375 c 0,55,56
 68.400390625 412.200195312 68.400390625 412.200195312 68.400390625 416.700195312 c 0,57,58
 68.400390625 425.700195312 68.400390625 425.700195312 75.599609375 436.5 c 0,59,60
 83.7001953125 448.200195312 83.7001953125 448.200195312 99.900390625 463.5 c 0,61,62
 136.799804688 499.5 136.799804688 499.5 176.400390625 501.299804688 c 0,63,64
 188.099609375 501.299804688 188.099609375 501.299804688 194.400390625 504 c 1,65,66
 197.099609375 512.099609375 197.099609375 512.099609375 197.099609375 535.5 c 0,67,68
 197.099609375 559.799804688 197.099609375 559.799804688 188.099609375 580.950195312 c 128,-1,69
 179.099609375 602.099609375 179.099609375 602.099609375 150.299804688 645.299804688 c 0,70,71
 101.700195312 716.400390625 101.700195312 716.400390625 64.7998046875 735.299804688 c 0,72,73
 41.400390625 747.900390625 41.400390625 747.900390625 32.400390625 756.900390625 c 0,74,75
 18.900390625 769.5 18.900390625 769.5 18.900390625 780.299804688 c 0,76,77
 18.900390625 784.799804688 18.900390625 784.799804688 20.7001953125 787.5 c 0,78,79
 28.7998046875 806.400390625 28.7998046875 806.400390625 53.099609375 806.400390625 c 0,80,81
 59.400390625 806.400390625 59.400390625 806.400390625 66.599609375 804.599609375 c 0,82,83
 92.7001953125 800.099609375 92.7001953125 800.099609375 121.5 786.599609375 c 0,84,85
 151.200195312 773.099609375 151.200195312 773.099609375 180.900390625 750.599609375 c 0,86,87
 210.599609375 727.200195312 210.599609375 727.200195312 224.099609375 702.900390625 c 0,88,89
 232.200195312 690.299804688 232.200195312 690.299804688 239.400390625 682.200195312 c 1,90,91
 245.700195312 688.5 245.700195312 688.5 264.599609375 691.200195312 c 0,92,93
 267.299804688 691.200195312 267.299804688 691.200195312 284.400390625 688.5 c 0,94,95
 297 686.700195312 297 686.700195312 301.5 688.5 c 128,-1,96
 306 690.299804688 306 690.299804688 312.299804688 700.200195312 c 0,97,98
 332.099609375 734.400390625 332.099609375 734.400390625 387.900390625 764.099609375 c 0,99,100
 433.799804688 789.299804688 433.799804688 789.299804688 462.599609375 789.299804688 c 0,101,102
 470.700195312 789.299804688 470.700195312 789.299804688 477 787.5 c 0,103,104
 495.900390625 782.099609375 495.900390625 782.099609375 503.099609375 775.799804688 c 0,105,106
 510.299804688 768.599609375 510.299804688 768.599609375 510.299804688 760.5 c 0,107,108
 510.299804688 748.799804688 510.299804688 748.799804688 496.799804688 739.799804688 c 0,109,110
 487.799804688 734.400390625 487.799804688 734.400390625 468.900390625 728.099609375 c 0,111,112
 450 722.700195312 450 722.700195312 419.400390625 694.799804688 c 128,-1,113
 388.799804688 666.900390625 388.799804688 666.900390625 359.099609375 623.700195312 c 0,114,115
 345.599609375 604.799804688 345.599609375 604.799804688 340.200195312 586.349609375 c 128,-1,116
 334.799804688 567.900390625 334.799804688 567.900390625 334.799804688 542.700195312 c 2,117,-1
 334.799804688 508.5 l 1,118,119
 378 512.099609375 378 512.099609375 385.200195312 512.099609375 c 0,120,121
 404.099609375 512.099609375 404.099609375 512.099609375 416.700195312 505.799804688 c 0,122,123
 430.200195312 500.400390625 430.200195312 500.400390625 454.5 476.099609375 c 0,124,125
 468 461.700195312 468 461.700195312 476.099609375 444.599609375 c 0,126,127
 484.200195312 428.400390625 484.200195312 428.400390625 484.200195312 419.400390625 c 0,128,129
 484.200195312 415.799804688 484.200195312 415.799804688 483.299804688 413.099609375 c 0,130,131
 480.599609375 402.299804688 480.599609375 402.299804688 474.299804688 396 c 0,132,133
 465.299804688 386.099609375 465.299804688 386.099609375 451.799804688 386.099609375 c 0,134,135
 425.700195312 386.099609375 425.700195312 386.099609375 400.5 416.700195312 c 0,136,137
 387.900390625 432 387.900390625 432 379.799804688 434.700195312 c 0,138,139
 377.099609375 435.599609375 377.099609375 435.599609375 371.700195312 435.599609375 c 0,140,141
 367.200195312 435.599609375 367.200195312 435.599609375 358.200195312 433.799804688 c 0,142,143
 342.900390625 430.200195312 342.900390625 430.200195312 337.5 426.599609375 c 0,144,145
 334.799804688 422.099609375 334.799804688 422.099609375 334.799804688 401.400390625 c 2,146,-1
 334.799804688 333.900390625 l 1,147,-1
 362.700195312 339.299804688 l 2,148,149
 375.299804688 342 375.299804688 342 388.799804688 342 c 0,150,151
 400.5 342 400.5 342 409.5 339.299804688 c 0,152,153
 424.799804688 333.900390625 424.799804688 333.900390625 446.400390625 312.299804688 c 0,154,155
 471.599609375 287.099609375 471.599609375 287.099609375 471.599609375 267.299804688 c 0,156,157
 471.599609375 261 471.599609375 261 468.900390625 254.700195312 c 0,158,159
 462.599609375 238.5 462.599609375 238.5 450 238.5 c 0,160,161
 446.400390625 238.5 446.400390625 238.5 443.700195312 239.400390625 c 0,162,163
 420.299804688 246.599609375 420.299804688 246.599609375 411.299804688 248.400390625 c 2,164,-1
 355.5 261 l 1,165,-1
 331.200195312 261 l 1,166,-1
 336.599609375 165.599609375 l 2,0,1
EndSplineSet
Validated: 1
EndChar

StartChar: copyright
Encoding: 169 169 97
Width: 688
VWidth: 1075
GlyphClass: 1
Flags: MW
LayerCount: 2
Fore
SplineSet
669.599609375 419.400390625 m 0,0,1
 669.599609375 396.900390625 669.599609375 396.900390625 667.799804688 373.5 c 0,2,3
 653.400390625 178.200195312 653.400390625 178.200195312 478.799804688 81 c 0,4,5
 445.5 62.099609375 445.5 62.099609375 423 56.7001953125 c 0,6,7
 394.200195312 49.5 394.200195312 49.5 342 49.5 c 128,-1,8
 289.799804688 49.5 289.799804688 49.5 264.599609375 57.599609375 c 0,9,10
 207 74.7001953125 207 74.7001953125 153.900390625 116.099609375 c 0,11,12
 98.099609375 159.299804688 98.099609375 159.299804688 69.2998046875 207.900390625 c 0,13,14
 50.400390625 239.400390625 50.400390625 239.400390625 34.650390625 301.950195312 c 128,-1,15
 18.900390625 364.5 18.900390625 364.5 18.900390625 401.400390625 c 0,16,17
 18.900390625 499.5 18.900390625 499.5 49.5 567 c 0,18,19
 84.599609375 644.400390625 84.599609375 644.400390625 138.599609375 696.599609375 c 0,20,21
 173.700195312 730.799804688 173.700195312 730.799804688 243 752.400390625 c 0,22,23
 274.5 762.299804688 274.5 762.299804688 381.599609375 765 c 0,24,25
 384.299804688 765 384.299804688 765 387.900390625 765 c 0,26,27
 466.200195312 765 466.200195312 765 524.700195312 736.200195312 c 0,28,29
 549 724.5 549 724.5 583.200195312 679.5 c 0,30,31
 618.299804688 632.700195312 618.299804688 632.700195312 634.5 596.700195312 c 0,32,33
 669.599609375 519.299804688 669.599609375 519.299804688 669.599609375 419.400390625 c 0,0,1
119.700195312 421.200195312 m 0,34,35
 119.700195312 414.900390625 119.700195312 414.900390625 119.700195312 408.599609375 c 0,36,37
 119.700195312 366.299804688 119.700195312 366.299804688 122.400390625 349.650390625 c 128,-1,38
 125.099609375 333 125.099609375 333 139.5 301.5 c 0,39,40
 164.700195312 245.700195312 164.700195312 245.700195312 195.299804688 220.5 c 0,41,42
 237.599609375 183.599609375 237.599609375 183.599609375 289.799804688 170.099609375 c 0,43,44
 312.299804688 164.700195312 312.299804688 164.700195312 334.799804688 164.700195312 c 0,45,46
 381.599609375 164.700195312 381.599609375 164.700195312 425.700195312 189.900390625 c 0,47,48
 491.400390625 227.700195312 491.400390625 227.700195312 517.5 269.099609375 c 0,49,50
 546.299804688 316.799804688 546.299804688 316.799804688 549 391.5 c 0,51,52
 549.900390625 404.099609375 549.900390625 404.099609375 549.900390625 414.900390625 c 0,53,54
 549.900390625 471.599609375 549.900390625 471.599609375 538.200195312 509.400390625 c 0,55,56
 523.799804688 557.099609375 523.799804688 557.099609375 490.950195312 593.549804688 c 128,-1,57
 458.099609375 630 458.099609375 630 428.849609375 643.950195312 c 128,-1,58
 399.599609375 657.900390625 399.599609375 657.900390625 339.299804688 660.599609375 c 0,59,60
 327.599609375 661.5 327.599609375 661.5 318.150390625 661.5 c 128,-1,61
 308.700195312 661.5 308.700195312 661.5 286.200195312 659.700195312 c 1,62,-1
 286.200195312 660.599609375 l 1,63,64
 235.799804688 655.200195312 235.799804688 655.200195312 208.799804688 628.200195312 c 0,65,66
 175.5 595.799804688 175.5 595.799804688 144.900390625 528.299804688 c 0,67,68
 128.700195312 492.299804688 128.700195312 492.299804688 124.200195312 473.400390625 c 128,-1,69
 119.700195312 454.5 119.700195312 454.5 119.700195312 421.200195312 c 0,34,35
342.900390625 604.799804688 m 0,70,71
 387 604.799804688 387 604.799804688 418.5 577.799804688 c 0,72,73
 444.599609375 555.299804688 444.599609375 555.299804688 444.599609375 531 c 0,74,75
 444.599609375 522.900390625 444.599609375 522.900390625 441.900390625 514.799804688 c 0,76,77
 434.700195312 495 434.700195312 495 413.099609375 495 c 0,78,79
 405 495 405 495 392.400390625 497.700195312 c 0,80,81
 350.099609375 504 350.099609375 504 340.650390625 504 c 128,-1,82
 331.200195312 504 331.200195312 504 325.799804688 503.099609375 c 0,83,84
 309.599609375 500.400390625 309.599609375 500.400390625 292.5 477 c 0,85,86
 265.5 441.900390625 265.5 441.900390625 265.5 414 c 0,87,88
 265.5 397.799804688 265.5 397.799804688 272.700195312 382.5 c 0,89,90
 291.599609375 343.799804688 291.599609375 343.799804688 334.799804688 333.900390625 c 0,91,92
 340.200195312 333 340.200195312 333 344.700195312 333 c 128,-1,93
 349.200195312 333 349.200195312 333 352.799804688 334.799804688 c 0,94,95
 361.799804688 338.400390625 361.799804688 338.400390625 383.400390625 353.700195312 c 0,96,97
 419.400390625 381.599609375 419.400390625 381.599609375 436.5 381.599609375 c 0,98,99
 457.200195312 381.599609375 457.200195312 381.599609375 468 358.200195312 c 0,100,101
 474.299804688 343.799804688 474.299804688 343.799804688 475.200195312 329.400390625 c 0,102,103
 475.200195312 297 475.200195312 297 443.700195312 264.599609375 c 0,104,105
 399.599609375 219.599609375 399.599609375 219.599609375 338.400390625 219.599609375 c 0,106,107
 315.900390625 219.599609375 315.900390625 219.599609375 273.599609375 242.099609375 c 0,108,109
 237.599609375 261.900390625 237.599609375 261.900390625 217.799804688 286.200195312 c 0,110,111
 202.5 305.099609375 202.5 305.099609375 184.5 351 c 0,112,113
 173.700195312 377.099609375 173.700195312 377.099609375 173.700195312 404.099609375 c 2,114,-1
 173.700195312 405 l 2,115,116
 173.700195312 421.200195312 173.700195312 421.200195312 177.299804688 438.299804688 c 0,117,118
 186.299804688 483.299804688 186.299804688 483.299804688 208.349609375 520.200195312 c 128,-1,119
 230.400390625 557.099609375 230.400390625 557.099609375 267.299804688 580.950195312 c 128,-1,120
 304.200195312 604.799804688 304.200195312 604.799804688 342.900390625 604.799804688 c 0,70,71
EndSplineSet
Validated: 1
EndChar

StartChar: degree
Encoding: 176 176 98
Width: 318
VWidth: 1075
GlyphClass: 1
Flags: MW
LayerCount: 2
Fore
SplineSet
18.900390625 714.599609375 m 0,0,1
 18.900390625 722.700195312 18.900390625 722.700195312 20.7001953125 730.799804688 c 0,2,3
 35.099609375 795.599609375 35.099609375 795.599609375 74.7001953125 829.799804688 c 0,4,5
 115.200195312 864 115.200195312 864 164.700195312 864 c 0,6,7
 204.299804688 864 204.299804688 864 243 842.400390625 c 0,8,9
 280.799804688 819.900390625 280.799804688 819.900390625 293.400390625 772.200195312 c 0,10,11
 299.700195312 749.700195312 299.700195312 749.700195312 300.599609375 726.299804688 c 0,12,13
 300.599609375 702.900390625 300.599609375 702.900390625 293.400390625 677.700195312 c 0,14,15
 279 629.099609375 279 629.099609375 240.299804688 603 c 0,16,17
 214.200195312 585.900390625 214.200195312 585.900390625 171.900390625 585.900390625 c 0,18,19
 71.5617784778 585.900390625 71.5617784778 585.900390625 33.2998046875 660.599609375 c 4,20,21
 18.900390625 689.400390625 18.900390625 689.400390625 18.900390625 714.599609375 c 0,0,1
143.099609375 760.5 m 0,22,23
 130.5 760.5 130.5 760.5 124.200195312 755.099609375 c 0,24,25
 111.599609375 743.400390625 111.599609375 743.400390625 111.599609375 727.200195312 c 128,-1,26
 111.599609375 711 111.599609375 711 123.299804688 702.900390625 c 0,27,28
 147.599609375 693 147.599609375 693 156.599609375 693 c 0,29,30
 169.200195312 693 169.200195312 693 180 699.299804688 c 0,31,32
 192.599609375 707.400390625 192.599609375 707.400390625 193.5 727.200195312 c 0,33,34
 193.5 739.799804688 193.5 739.799804688 185.400390625 746.099609375 c 0,35,36
 172.799804688 757.799804688 172.799804688 757.799804688 152.099609375 760.5 c 0,37,38
 146.700195312 760.5 146.700195312 760.5 143.099609375 760.5 c 0,22,23
EndSplineSet
Validated: 1
EndChar

StartChar: quotedblleft
Encoding: 8220 8220 105
Width: 463
VWidth: 1075
GlyphClass: 1
Flags: MW
LayerCount: 2
Fore
SplineSet
380.700195312 877.5 m 0,0,1
 419.400390625 875.700195312 419.400390625 875.700195312 438.299804688 829.799804688 c 0,2,3
 445.5 810.900390625 445.5 810.900390625 445.5 792 c 0,4,5
 445.5 769.5 445.5 769.5 435.599609375 746.099609375 c 0,6,7
 415.799804688 699.299804688 415.799804688 699.299804688 380.700195312 699.299804688 c 2,8,-1
 379.799804688 699.299804688 l 2,9,10
 373.5 699.299804688 373.5 699.299804688 371.700195312 697.5 c 0,11,12
 371.700195312 696.599609375 371.700195312 696.599609375 370.799804688 695.700195312 c 0,13,14
 370.799804688 681.299804688 370.799804688 681.299804688 388.349609375 636.299804688 c 128,-1,15
 405.900390625 591.299804688 405.900390625 591.299804688 405.900390625 571.5 c 0,16,17
 405.900390625 564.299804688 405.900390625 564.299804688 403.200195312 558.900390625 c 0,18,19
 395.099609375 531.900390625 395.099609375 531.900390625 369.900390625 531.900390625 c 0,20,21
 352.799804688 531.900390625 352.799804688 531.900390625 336.599609375 546.299804688 c 0,22,23
 313.200195312 566.099609375 313.200195312 566.099609375 289.799804688 612.900390625 c 128,-1,24
 266.400390625 659.700195312 266.400390625 659.700195312 262.799804688 699.299804688 c 0,25,26
 261 714.599609375 261 714.599609375 260.099609375 729.900390625 c 0,27,28
 260.099609375 774 260.099609375 774 278.099609375 810.900390625 c 0,29,30
 302.400390625 862.200195312 302.400390625 862.200195312 349.200195312 873 c 0,31,32
 369 877.5 369 877.5 373.5 877.5 c 128,-1,33
 378 877.5 378 877.5 380.700195312 877.5 c 0,0,1
120.599609375 858.599609375 m 0,34,35
 156.599609375 858.599609375 156.599609375 858.599609375 179.099609375 837 c 128,-1,36
 201.599609375 815.400390625 201.599609375 815.400390625 201.599609375 780.299804688 c 0,37,38
 201.599609375 750.599609375 201.599609375 750.599609375 175.950195312 719.099609375 c 128,-1,39
 150.299804688 687.599609375 150.299804688 687.599609375 122.400390625 687.599609375 c 0,40,41
 118.799804688 687.599609375 118.799804688 687.599609375 118.799804688 686.700195312 c 0,42,43
 117.900390625 684.900390625 117.900390625 684.900390625 117.900390625 684 c 0,44,45
 117.900390625 664.200195312 117.900390625 664.200195312 135 623.700195312 c 0,46,47
 153 584.099609375 153 584.099609375 153 559.799804688 c 2,48,-1
 153 558.900390625 l 2,49,50
 153 541.799804688 153 541.799804688 144 529.200195312 c 0,51,52
 134.099609375 517.5 134.099609375 517.5 122.400390625 517.950195312 c 128,-1,53
 110.700195312 518.400390625 110.700195312 518.400390625 99.4501953125 525.599609375 c 128,-1,54
 88.2001953125 532.799804688 88.2001953125 532.799804688 74.7001953125 549 c 0,55,56
 42.2998046875 587.700195312 42.2998046875 587.700195312 30.599609375 622.799804688 c 128,-1,57
 18.900390625 657.900390625 18.900390625 657.900390625 18.900390625 700.200195312 c 0,58,59
 18.900390625 774 18.900390625 774 47.25 816.299804688 c 128,-1,60
 75.599609375 858.599609375 75.599609375 858.599609375 120.599609375 858.599609375 c 0,34,35
EndSplineSet
Validated: 1
EndChar

StartChar: quotedblright
Encoding: 8221 8221 106
Width: 463
VWidth: 1075
GlyphClass: 1
Flags: MW
LayerCount: 2
Fore
SplineSet
302.400390625 872.099609375 m 0,0,1
 305.099609375 872.099609375 305.099609375 872.099609375 306.900390625 872.099609375 c 0,2,3
 323.099609375 872.099609375 323.099609375 872.099609375 342.900390625 857.700195312 c 0,4,5
 366.299804688 840.599609375 366.299804688 840.599609375 384.299804688 805.5 c 0,6,7
 409.5 758.700195312 409.5 758.700195312 423.900390625 688.5 c 0,8,9
 432 648 432 648 432 621.900390625 c 0,10,11
 432 602.099609375 432 602.099609375 427.5 589.5 c 0,12,13
 408.599609375 530.099609375 408.599609375 530.099609375 370.799804688 519.299804688 c 0,14,15
 362.700195312 517.5 362.700195312 517.5 355.5 517.5 c 0,16,17
 325.799804688 517.5 325.799804688 517.5 300.599609375 549.900390625 c 0,18,19
 277.200195312 579.599609375 277.200195312 579.599609375 277.200195312 612.450195312 c 128,-1,20
 277.200195312 645.299804688 277.200195312 645.299804688 300.599609375 672.299804688 c 0,21,22
 318.599609375 691.200195312 318.599609375 691.200195312 318.599609375 710.099609375 c 128,-1,23
 318.599609375 729 318.599609375 729 292.5 786.599609375 c 0,24,25
 279.900390625 817.200195312 279.900390625 817.200195312 279.900390625 837 c 0,26,27
 280.799804688 842.400390625 280.799804688 842.400390625 280.799804688 846.900390625 c 0,28,29
 284.400390625 869.400390625 284.400390625 869.400390625 302.400390625 872.099609375 c 0,0,1
53.099609375 846.900390625 m 0,30,31
 55.7998046875 846.900390625 55.7998046875 846.900390625 58.5 846.900390625 c 0,32,33
 71.099609375 846.900390625 71.099609375 846.900390625 89.099609375 840.599609375 c 0,34,35
 117.900390625 829.799804688 117.900390625 829.799804688 144.450195312 796.049804688 c 128,-1,36
 171 762.299804688 171 762.299804688 183.599609375 720.900390625 c 0,37,38
 196.200195312 678.599609375 196.200195312 678.599609375 198.900390625 635.400390625 c 0,39,40
 198.900390625 628.200195312 198.900390625 628.200195312 198.900390625 622.799804688 c 0,41,42
 198.900390625 587.700195312 198.900390625 587.700195312 187.200195312 561.599609375 c 0,43,44
 171.900390625 531.900390625 171.900390625 531.900390625 154.799804688 520.200195312 c 0,45,46
 135.900390625 509.400390625 135.900390625 509.400390625 107.099609375 509.400390625 c 0,47,48
 106.200195312 509.400390625 106.200195312 509.400390625 102.599609375 509.400390625 c 0,49,50
 70.2001953125 510.299804688 70.2001953125 510.299804688 60.2998046875 525.599609375 c 0,51,52
 46.7998046875 541.799804688 46.7998046875 541.799804688 46.7998046875 568.799804688 c 0,53,54
 46.7998046875 575.099609375 46.7998046875 575.099609375 47.7001953125 581.400390625 c 0,55,56
 51.2998046875 617.400390625 51.2998046875 617.400390625 70.2001953125 645.299804688 c 0,57,58
 89.099609375 670.5 89.099609375 670.5 89.099609375 691.200195312 c 0,59,60
 89.099609375 693.900390625 89.099609375 693.900390625 89.099609375 696.599609375 c 0,61,62
 86.400390625 719.099609375 86.400390625 719.099609375 54.900390625 763.200195312 c 0,63,64
 31.5 797.400390625 31.5 797.400390625 31.5 821.700195312 c 0,65,66
 31.5 845.099609375 31.5 845.099609375 53.099609375 846.900390625 c 0,30,31
EndSplineSet
Validated: 1
EndChar

StartChar: quoteright
Encoding: 8217 8217 107
Width: 141
VWidth: 1075
GlyphClass: 1
Flags: MW
LayerCount: 2
Fore
SplineSet
39.150390625 863.549804688 m 128,-1,1
 53.099609375 878.400390625 53.099609375 878.400390625 60.2998046875 880.200195312 c 0,2,3
 63.900390625 881.099609375 63.900390625 881.099609375 67.5 881.099609375 c 0,4,5
 75.599609375 881.099609375 75.599609375 881.099609375 88.2001953125 871.200195312 c 0,6,7
 106.200195312 858.599609375 106.200195312 858.599609375 113.400390625 816.299804688 c 128,-1,8
 120.599609375 774 120.599609375 774 122.400390625 689.400390625 c 0,9,10
 122.400390625 684 122.400390625 684 122.400390625 679.5 c 0,11,12
 122.400390625 616.5 122.400390625 616.5 110.700195312 595.799804688 c 0,13,14
 95.400390625 570.599609375 95.400390625 570.599609375 67.5 570.599609375 c 128,-1,15
 39.599609375 570.599609375 39.599609375 570.599609375 28.7998046875 595.799804688 c 0,16,17
 19.7998046875 614.700195312 19.7998046875 614.700195312 18.900390625 727.200195312 c 0,18,19
 18.900390625 802.799804688 18.900390625 802.799804688 22.0498046875 825.75 c 128,-1,0
 25.2001953125 848.700195312 25.2001953125 848.700195312 39.150390625 863.549804688 c 128,-1,1
EndSplineSet
Validated: 1
EndChar

StartChar: ordfeminine
Encoding: 170 170 118
Width: 287
VWidth: 1075
Flags: MW
LayerCount: 2
Fore
SplineSet
124.650390625 853.200195312 m 128,-1,1
 127.799804688 853.200195312 127.799804688 853.200195312 142.200195312 851.400390625 c 0,2,3
 170.099609375 842.400390625 170.099609375 842.400390625 183.599609375 815.400390625 c 0,4,5
 203.400390625 776.700195312 203.400390625 776.700195312 222.299804688 719.099609375 c 0,6,7
 243 657.900390625 243 657.900390625 246.599609375 648.900390625 c 0,8,9
 255.599609375 626.400390625 255.599609375 626.400390625 255.599609375 616.5 c 0,10,11
 255.599609375 609.299804688 255.599609375 609.299804688 252.900390625 600.299804688 c 0,12,13
 249.299804688 585 249.299804688 585 236.700195312 571.5 c 0,14,15
 226.799804688 561.599609375 226.799804688 561.599609375 216.900390625 561.599609375 c 128,-1,16
 207 561.599609375 207 561.599609375 199.349609375 569.25 c 0,17,18
 194.010723303 574.589567661 194.010723303 574.589567661 167.400390625 621.900390625 c 1,19,20
 154 621 154 621 142.200195312 621 c 1,21,22
 124.200195312 620.099609375 124.200195312 620.099609375 112.5 619.200195312 c 0,23,24
 111.599609375 615.599609375 111.599609375 615.599609375 110.700195312 611.099609375 c 0,25,26
 106.200195312 579.599609375 106.200195312 579.599609375 99 564.299804688 c 0,27,28
 90 546.299804688 90 546.299804688 75.599609375 545.400390625 c 0,29,30
 53.099609375 545.400390625 53.099609375 545.400390625 42.2998046875 562.5 c 0,31,32
 32.400390625 578.700195312 32.400390625 578.700195312 32.400390625 593.099609375 c 2,33,34
 32.400390625 593.099609375 32.400390625 593.099609375 54 707.400390625 c 0,35,36
 60.2998046875 747.900390625 60.2998046875 747.900390625 74.7001953125 798.299804688 c 0,37,38
 83.7001953125 830.700195312 83.7001953125 830.700195312 92.7001953125 841.5 c 0,39,40
 96.2998046875 846 96.2998046875 846 100.799804688 847.799804688 c 0,41,0
 121.5 853.200195312 121.5 853.200195312 124.650390625 853.200195312 c 128,-1,1
154 697 m 5,42,43
 144 716 144 716 134 735 c 1,44,45
 127 714 127 714 120 693 c 5,46,47
 134 692 134 692 154 697 c 5,42,43
EndSplineSet
Validated: 33
EndChar

StartChar: exclamdown
Encoding: 161 161 120
Width: 264
VWidth: 1075
Flags: MW
LayerCount: 2
Fore
SplineSet
45.900390625 333.900390625 m 0,0,1
 62.099609375 526.5 62.099609375 526.5 86.400390625 566.099609375 c 0,2,3
 111.599609375 600.299804688 111.599609375 600.299804688 127.799804688 606.599609375 c 0,4,5
 133.200195312 608.400390625 133.200195312 608.400390625 138.599609375 608.400390625 c 0,6,7
 154.799804688 608.400390625 154.799804688 608.400390625 175.5 590.400390625 c 0,8,9
 195.299804688 576 195.299804688 576 200.700195312 549 c 0,10,11
 203.400390625 534.599609375 203.400390625 534.599609375 203.400390625 502.200195312 c 0,12,13
 203.400390625 494.099609375 203.400390625 494.099609375 203.400390625 485.099609375 c 0,14,15
 203.400390625 354.599609375 203.400390625 354.599609375 183.599609375 142.200195312 c 0,16,17
 165.599609375 -50.400390625 165.599609375 -50.400390625 153.900390625 -74.7001953125 c 0,18,19
 139.5 -108 139.5 -108 97.2001953125 -109.799804688 c 0,20,21
 95.400390625 -109.799804688 95.400390625 -109.799804688 92.7001953125 -109.799804688 c 0,22,23
 55.7998046875 -109.799804688 55.7998046875 -109.799804688 33.2998046875 -83.7001953125 c 0,24,25
 18.900390625 -66.599609375 18.900390625 -66.599609375 18.900390625 -18 c 128,-1,26
 18.900390625 30.599609375 18.900390625 30.599609375 45.900390625 333.900390625 c 0,0,1
50.400390625 768.599609375 m 0,27,28
 50.400390625 807.299804688 50.400390625 807.299804688 83.7001953125 839.700195312 c 1,29,-1
 84.599609375 839.700195312 l 1,30,31
 118.799804688 869.400390625 118.799804688 869.400390625 148.5 869.400390625 c 0,32,33
 180.900390625 869.400390625 180.900390625 869.400390625 212.400390625 834.299804688 c 0,34,35
 245.700195312 798.299804688 245.700195312 798.299804688 245.700195312 761.400390625 c 0,36,37
 245.700195312 714.599609375 245.700195312 714.599609375 195.299804688 685.799804688 c 0,38,39
 166.5 669.599609375 166.5 669.599609375 141.299804688 669.599609375 c 0,40,41
 136.799804688 669.599609375 136.799804688 669.599609375 132.299804688 670.5 c 0,42,43
 104.400390625 674.099609375 104.400390625 674.099609375 77.400390625 702 c 0,44,45
 50.400390625 734.400390625 50.400390625 734.400390625 50.400390625 768.599609375 c 0,27,28
EndSplineSet
Validated: 1
EndChar

StartChar: uni042A
Encoding: 1066 1066 122
Width: 780
VWidth: 911
Flags: MW
LayerCount: 2
Fore
SplineSet
393.299804688 363.599609375 m 1,0,1
 391.5 321.299804688 391.5 321.299804688 391.5 236.700195312 c 2,2,-1
 391.5 110.700195312 l 1,3,-1
 398.700195312 111.599609375 l 2,4,5
 431.099609375 115.200195312 431.099609375 115.200195312 457.200195312 125.099609375 c 128,-1,6
 483.299804688 135 483.299804688 135 517.950195312 157.5 c 128,-1,7
 552.599609375 180 552.599609375 180 567.900390625 196.200195312 c 0,8,9
 603 236.700195312 603 236.700195312 613.799804688 290.700195312 c 0,10,11
 616.5 303.299804688 616.5 303.299804688 616.5 306.900390625 c 128,-1,12
 616.5 310.5 616.5 310.5 616.5 311.400390625 c 0,13,14
 615.599609375 316.799804688 615.599609375 316.799804688 609.299804688 329.849609375 c 128,-1,15
 603 342.900390625 603 342.900390625 597.599609375 347.849609375 c 128,-1,16
 592.200195312 352.799804688 592.200195312 352.799804688 574.200195312 361.799804688 c 0,17,18
 538.200195312 379.799804688 538.200195312 379.799804688 495.900390625 379.799804688 c 0,19,20
 466.200195312 379.799804688 466.200195312 379.799804688 434.700195312 372.599609375 c 128,-1,21
 403.200195312 365.400390625 403.200195312 365.400390625 393.299804688 363.599609375 c 1,0,1
97.2001953125 722.700195312 m 0,22,23
 234 739.799804688 234 739.799804688 285.299804688 739.799804688 c 1,24,25
 286.200195312 717.299804688 286.200195312 717.299804688 287.099609375 739.799804688 c 1,26,27
 337.5 739.799804688 337.5 739.799804688 362.25 724.5 c 128,-1,28
 387 709.200195312 387 709.200195312 393.299804688 669.599609375 c 0,29,30
 396 653.400390625 396 653.400390625 396 630.900390625 c 0,31,32
 396 625.5 396 625.5 396 619.200195312 c 0,33,34
 396 588.599609375 396 588.599609375 394.200195312 512.099609375 c 1,35,36
 422.099609375 521.099609375 422.099609375 521.099609375 474.299804688 523.799804688 c 0,37,38
 492.299804688 524.700195312 492.299804688 524.700195312 508.5 524.700195312 c 0,39,40
 543.599609375 524.700195312 543.599609375 524.700195312 567 520.200195312 c 0,41,42
 599.400390625 513.900390625 599.400390625 513.900390625 641.700195312 492.299804688 c 0,43,44
 680.400390625 471.599609375 680.400390625 471.599609375 700.200195312 450.900390625 c 128,-1,45
 720 430.200195312 720 430.200195312 735.299804688 395.099609375 c 0,46,47
 745.200195312 370.799804688 745.200195312 370.799804688 747 359.099609375 c 128,-1,48
 748.799804688 347.400390625 748.799804688 347.400390625 748.799804688 334.799804688 c 128,-1,49
 748.799804688 322.200195312 748.799804688 322.200195312 747.900390625 306.900390625 c 0,50,51
 744.299804688 225 744.299804688 225 701.099609375 158.400390625 c 128,-1,52
 657.900390625 91.7998046875 657.900390625 91.7998046875 574.200195312 50.400390625 c 0,53,54
 520.200195312 23.400390625 520.200195312 23.400390625 488.700195312 14.400390625 c 128,-1,55
 457.200195312 5.400390625 457.200195312 5.400390625 407.700195312 1.7998046875 c 0,56,57
 389.700195312 0.900390625 389.700195312 0.900390625 368.099609375 0.900390625 c 128,-1,58
 346.5 0.900390625 346.5 0.900390625 326.700195312 4.5 c 0,59,60
 295.200195312 9.900390625 295.200195312 9.900390625 280.799804688 22.5 c 0,61,62
 266.400390625 33.2998046875 266.400390625 33.2998046875 260.099609375 58.5 c 0,63,64
 252.900390625 82.7998046875 252.900390625 82.7998046875 252.900390625 373.5 c 0,65,66
 252.900390625 534.599609375 252.900390625 534.599609375 256.5 585.900390625 c 1,67,-1
 256.5 585 l 1,68,69
 257.400390625 585 257.400390625 585 259.200195312 614.700195312 c 1,70,71
 145.799804688 605.700195312 145.799804688 605.700195312 116.099609375 605.700195312 c 0,72,73
 81.900390625 605.700195312 81.900390625 605.700195312 63 616.5 c 0,74,75
 32.400390625 634.5 32.400390625 634.5 32.400390625 664.200195312 c 0,76,77
 32.400390625 685.799804688 32.400390625 685.799804688 50.400390625 702.450195312 c 128,-1,78
 68.400390625 719.099609375 68.400390625 719.099609375 97.2001953125 722.700195312 c 0,22,23
EndSplineSet
Validated: 1
EndChar

StartChar: uni0419
Encoding: 1049 1049 123
Width: 737
VWidth: 911
Flags: MW
LayerCount: 2
Fore
SplineSet
189.900390625 702.900390625 m 0
 151.200195312 761.400390625 151.200195312 761.400390625 151.200195312 813.599609375 c 0
 151.200195312 849.599609375 151.200195312 849.599609375 158.400390625 857.700195312 c 0
 178.200195312 879.299804688 178.200195312 879.299804688 199.799804688 879.299804688 c 0
 216.900390625 879.299804688 216.900390625 879.299804688 224.099609375 873 c 0
 225 872.099609375 225 872.099609375 240.299804688 846.900390625 c 0
 247.5 836.099609375 247.5 836.099609375 256.049804688 810 c 0
 264.599609375 783.900390625 264.599609375 783.900390625 270 775.799804688 c 0
 275.400390625 768.599609375 275.400390625 768.599609375 288.900390625 761.400390625 c 0
 302.400390625 754.200195312 302.400390625 754.200195312 316.799804688 754.200195312 c 0
 324.900390625 754.200195312 324.900390625 754.200195312 333 756 c 0
 358.200195312 761.400390625 358.200195312 761.400390625 373.5 779.400390625 c 0
 386.099609375 793.799804688 386.099609375 793.799804688 388.799804688 800.099609375 c 0
 396.900390625 821.700195312 396.900390625 821.700195312 396.900390625 839.700195312 c 0
 396.900390625 859.5 396.900390625 859.5 414 876.599609375 c 0
 430.200195312 894.599609375 430.200195312 894.599609375 452.700195312 894.599609375 c 0
 476.099609375 894.599609375 476.099609375 894.599609375 492.299804688 879.299804688 c 0
 503.099609375 868.5 503.099609375 868.5 510.299804688 850.5 c 0
 517.5 833.400390625 517.5 833.400390625 517.5 814.5 c 0
 517.5 801 517.5 801 513 777.599609375 c 0
 504.900390625 737.099609375 504.900390625 737.099609375 482.400390625 708.299804688 c 0
 466.200195312 688.5 466.200195312 688.5 435.599609375 669.599609375 c 0
 386.099609375 640.799804688 386.099609375 640.799804688 292.5 639 c 1
 225 647.099609375 225 647.099609375 189.900390625 702.900390625 c 0
EndSplineSet
Refer: 156 886 S 1 0 0 1 0 0 2
Validated: 32769
EndChar

StartChar: uni042B
Encoding: 1067 1067 125
Width: 722
VWidth: 911
Flags: MW
LayerCount: 2
Fore
SplineSet
161.099609375 281.700195312 m 1,0,1
 159.299804688 266.400390625 159.299804688 266.400390625 159.299804688 193.5 c 2,2,-1
 159.299804688 112.5 l 1,3,-1
 196.200195312 114.299804688 l 2,4,5
 257.400390625 117 257.400390625 117 285.75 124.650390625 c 128,-1,6
 314.099609375 132.299804688 314.099609375 132.299804688 346.5 153 c 128,-1,7
 378.900390625 173.700195312 378.900390625 173.700195312 390.150390625 190.349609375 c 128,-1,8
 401.400390625 207 401.400390625 207 401.400390625 216.900390625 c 0,9,10
 401.400390625 225 401.400390625 225 381.599609375 243 c 0,11,12
 351.900390625 270.900390625 351.900390625 270.900390625 330.75 276.75 c 128,-1,13
 309.599609375 282.599609375 309.599609375 282.599609375 249.299804688 282.599609375 c 0,14,15
 237.599609375 282.599609375 237.599609375 282.599609375 226.799804688 283.5 c 0,16,17
 183.599609375 283.5 183.599609375 283.5 161.099609375 281.700195312 c 1,0,1
153.900390625 441 m 2,18,-1
 153.900390625 414.900390625 l 1,19,20
 181.799804688 421.200195312 181.799804688 421.200195312 240.299804688 421.200195312 c 0,21,22
 325.799804688 421.200195312 325.799804688 421.200195312 380.25 404.549804688 c 128,-1,23
 434.700195312 387.900390625 434.700195312 387.900390625 480.599609375 347.400390625 c 0,24,25
 511.200195312 319.5 511.200195312 319.5 526.950195312 294.299804688 c 128,-1,26
 542.700195312 269.099609375 542.700195312 269.099609375 542.700195312 235.799804688 c 0,27,28
 542.700195312 216.900390625 542.700195312 216.900390625 537.299804688 197.099609375 c 0,29,30
 522.900390625 141.299804688 522.900390625 141.299804688 478.799804688 99 c 0,31,32
 448.200195312 70.2001953125 448.200195312 70.2001953125 395.099609375 46.349609375 c 128,-1,33
 342 22.5 342 22.5 293.400390625 15.2998046875 c 0,34,35
 250.200195312 8.099609375 250.200195312 8.099609375 177.299804688 8.099609375 c 0,36,37
 130.5 8.099609375 130.5 8.099609375 99.900390625 11.7001953125 c 0,38,39
 55.7998046875 17.099609375 55.7998046875 17.099609375 45 45.900390625 c 0,40,41
 37.7998046875 64.7998046875 37.7998046875 64.7998046875 35.099609375 160.200195312 c 128,-1,42
 32.400390625 255.599609375 32.400390625 255.599609375 32.400390625 455.400390625 c 128,-1,43
 32.400390625 655.200195312 32.400390625 655.200195312 38.7001953125 684 c 0,44,45
 45 719.099609375 45 719.099609375 72 723.599609375 c 0,46,47
 76.5 724.5 76.5 724.5 82.7998046875 724.5 c 0,48,49
 108 724.5 108 724.5 122.400390625 703.799804688 c 0,50,51
 133.200195312 690.299804688 133.200195312 690.299804688 138.599609375 663.299804688 c 128,-1,52
 144 636.299804688 144 636.299804688 148.950195312 565.650390625 c 128,-1,53
 153.900390625 495 153.900390625 495 153.900390625 441 c 2,18,-1
630.900390625 -1.7998046875 m 128,-1,55
 606.599609375 -1.7998046875 606.599609375 -1.7998046875 590.400390625 20.7001953125 c 0,56,57
 582.299804688 30.599609375 582.299804688 30.599609375 578.700195312 51.2998046875 c 0,58,59
 573.299804688 72 573.299804688 72 570.599609375 118.799804688 c 128,-1,60
 567.900390625 165.599609375 567.900390625 165.599609375 567.900390625 368.099609375 c 128,-1,61
 567.900390625 570.599609375 567.900390625 570.599609375 569.700195312 618.299804688 c 128,-1,62
 571.5 666 571.5 666 579.599609375 687.599609375 c 0,63,64
 587.700195312 710.099609375 587.700195312 710.099609375 601.200195312 720 c 0,65,66
 611.099609375 728.099609375 611.099609375 728.099609375 625.049804688 728.099609375 c 128,-1,67
 639 728.099609375 639 728.099609375 650.700195312 716.400390625 c 0,68,69
 681.299804688 689.400390625 681.299804688 689.400390625 685.799804688 576.900390625 c 0,70,71
 687.599609375 520.200195312 687.599609375 520.200195312 688.5 310.5 c 0,72,73
 689.400390625 186.299804688 689.400390625 186.299804688 690.299804688 37.7998046875 c 1,74,75
 687.599609375 54.900390625 687.599609375 54.900390625 684.900390625 32.400390625 c 1,76,77
 679.5 46.7998046875 679.5 46.7998046875 673.200195312 19.7998046875 c 1,78,54
 655.200195312 -1.7998046875 655.200195312 -1.7998046875 630.900390625 -1.7998046875 c 128,-1,55
EndSplineSet
Validated: 1
EndChar

StartChar: uni041C
Encoding: 1052 1052 129
Width: 852
VWidth: 1087
Flags: MW
LayerCount: 2
Fore
SplineSet
102.599609375 18 m 0,0,1
 80.099609375 18 80.099609375 18 69.2998046875 27 c 0,2,3
 61.2001953125 34.2001953125 61.2001953125 34.2001953125 58.5 45.900390625 c 0,4,5
 56.7001953125 56.7001953125 56.7001953125 56.7001953125 54.900390625 87.2998046875 c 0,6,7
 49.5 167.400390625 49.5 167.400390625 49.5 362.700195312 c 0,8,9
 49.5 477.900390625 49.5 477.900390625 52.2001953125 524.700195312 c 0,10,11
 54.900390625 567 54.900390625 567 62.099609375 585 c 0,12,13
 71.099609375 608.400390625 71.099609375 608.400390625 99.900390625 617.400390625 c 0,14,15
 113.400390625 621.900390625 113.400390625 621.900390625 127.799804688 621.900390625 c 0,16,17
 144.900390625 621.900390625 144.900390625 621.900390625 163.799804688 615.599609375 c 0,18,19
 176.400390625 611.099609375 176.400390625 611.099609375 198 593.099609375 c 0,20,21
 222.299804688 573.299804688 222.299804688 573.299804688 261 533.700195312 c 0,22,23
 332.099609375 461.700195312 332.099609375 461.700195312 388.799804688 388.799804688 c 0,24,25
 402.299804688 370.799804688 402.299804688 370.799804688 411.299804688 360.900390625 c 1,26,27
 421.200195312 376.200195312 421.200195312 376.200195312 437.400390625 406.799804688 c 0,28,29
 481.5 488.700195312 481.5 488.700195312 534.599609375 566.099609375 c 0,30,31
 568.799804688 615.599609375 568.799804688 615.599609375 589.5 636.299804688 c 0,32,33
 608.400390625 657 608.400390625 657 625.5 662.400390625 c 0,34,35
 635.400390625 666 635.400390625 666 647.099609375 666 c 0,36,37
 668.700195312 666 668.700195312 666 688.5 657 c 0,38,39
 716.400390625 644.400390625 716.400390625 644.400390625 727.200195312 620.099609375 c 0,40,41
 747.900390625 576 747.900390625 576 780.299804688 344.700195312 c 0,42,43
 801.900390625 193.5 801.900390625 193.5 802.799804688 92.7001953125 c 0,44,45
 802.799804688 64.7998046875 802.799804688 64.7998046875 795.599609375 49.5 c 0,46,47
 790.200195312 37.7998046875 790.200195312 37.7998046875 780.299804688 32.400390625 c 0,48,49
 772.200195312 27 772.200195312 27 754.200195312 24.2998046875 c 0,50,51
 743.400390625 23.400390625 743.400390625 23.400390625 742.5 23.400390625 c 0,52,53
 703.799804688 23.400390625 703.799804688 23.400390625 679.5 70.2001953125 c 0,54,55
 653.400390625 123.299804688 653.400390625 123.299804688 622.799804688 350.099609375 c 0,56,57
 616.5 399.599609375 616.5 399.599609375 612.900390625 409.5 c 1,58,-1
 612.900390625 410.400390625 l 1,59,60
 596.700195312 387.900390625 596.700195312 387.900390625 575.099609375 349.200195312 c 0,61,62
 529.200195312 270 529.200195312 270 497.700195312 237.599609375 c 0,63,64
 460.799804688 198 460.799804688 198 417.599609375 198 c 0,65,66
 386.099609375 198 386.099609375 198 356.400390625 218.700195312 c 0,67,68
 321.299804688 243 321.299804688 243 260.099609375 315.900390625 c 0,69,70
 250.200195312 327.599609375 250.200195312 327.599609375 229.5 352.799804688 c 0,71,72
 191.700195312 398.700195312 191.700195312 398.700195312 171 424.799804688 c 1,73,-1
 163.799804688 280.799804688 l 2,74,75
 153 60.2998046875 153 60.2998046875 147.599609375 44.099609375 c 0,76,77
 145.799804688 38.7001953125 145.799804688 38.7001953125 143.099609375 35.099609375 c 0,78,79
 132.299804688 18 132.299804688 18 105.299804688 18 c 0,80,81
 104.400390625 18 104.400390625 18 102.599609375 18 c 0,0,1
EndSplineSet
Validated: 1
EndChar

StartChar: uni03FA
Encoding: 1018 1018 134
Width: 852
VWidth: 1087
Flags: MW
LayerCount: 2
Fore
SplineSet
102.599609375 18 m 0,0,1
 80.099609375 18 80.099609375 18 69.2998046875 27 c 0,2,3
 61.2001953125 34.2001953125 61.2001953125 34.2001953125 58.5 45.900390625 c 0,4,5
 56.7001953125 56.7001953125 56.7001953125 56.7001953125 54.900390625 87.2998046875 c 0,6,7
 49.5 167.400390625 49.5 167.400390625 49.5 362.700195312 c 0,8,9
 49.5 477.900390625 49.5 477.900390625 52.2001953125 524.700195312 c 0,10,11
 54.900390625 567 54.900390625 567 62.099609375 585 c 0,12,13
 71.099609375 608.400390625 71.099609375 608.400390625 99.900390625 617.400390625 c 0,14,15
 113.400390625 621.900390625 113.400390625 621.900390625 127.799804688 621.900390625 c 0,16,17
 144.900390625 621.900390625 144.900390625 621.900390625 163.799804688 615.599609375 c 0,18,19
 176.400390625 611.099609375 176.400390625 611.099609375 198 593.099609375 c 0,20,21
 222.299804688 573.299804688 222.299804688 573.299804688 261 533.700195312 c 0,22,23
 332.099609375 461.700195312 332.099609375 461.700195312 388.799804688 388.799804688 c 0,24,25
 402.299804688 370.799804688 402.299804688 370.799804688 411.299804688 360.900390625 c 1,26,27
 421.200195312 376.200195312 421.200195312 376.200195312 437.400390625 406.799804688 c 0,28,29
 481.5 488.700195312 481.5 488.700195312 534.599609375 566.099609375 c 0,30,31
 568.799804688 615.599609375 568.799804688 615.599609375 589.5 636.299804688 c 0,32,33
 608.400390625 657 608.400390625 657 625.5 662.400390625 c 0,34,35
 635.400390625 666 635.400390625 666 647.099609375 666 c 0,36,37
 668.700195312 666 668.700195312 666 688.5 657 c 0,38,39
 716.400390625 644.400390625 716.400390625 644.400390625 727.200195312 620.099609375 c 0,40,41
 747.900390625 576 747.900390625 576 780.299804688 344.700195312 c 0,42,43
 801.900390625 193.5 801.900390625 193.5 802.799804688 92.7001953125 c 0,44,45
 802.799804688 64.7998046875 802.799804688 64.7998046875 795.599609375 49.5 c 0,46,47
 790.200195312 37.7998046875 790.200195312 37.7998046875 780.299804688 32.400390625 c 0,48,49
 772.200195312 27 772.200195312 27 754.200195312 24.2998046875 c 0,50,51
 743.400390625 23.400390625 743.400390625 23.400390625 742.5 23.400390625 c 0,52,53
 703.799804688 23.400390625 703.799804688 23.400390625 679.5 70.2001953125 c 0,54,55
 653.400390625 123.299804688 653.400390625 123.299804688 622.799804688 350.099609375 c 0,56,57
 616.5 399.599609375 616.5 399.599609375 612.900390625 409.5 c 1,58,-1
 612.900390625 410.400390625 l 1,59,60
 596.700195312 387.900390625 596.700195312 387.900390625 575.099609375 349.200195312 c 0,61,62
 529.200195312 270 529.200195312 270 497.700195312 237.599609375 c 0,63,64
 460.799804688 198 460.799804688 198 417.599609375 198 c 0,65,66
 386.099609375 198 386.099609375 198 356.400390625 218.700195312 c 0,67,68
 321.299804688 243 321.299804688 243 260.099609375 315.900390625 c 0,69,70
 250.200195312 327.599609375 250.200195312 327.599609375 229.5 352.799804688 c 0,71,72
 191.700195312 398.700195312 191.700195312 398.700195312 171 424.799804688 c 1,73,-1
 163.799804688 280.799804688 l 2,74,75
 153 60.2998046875 153 60.2998046875 147.599609375 44.099609375 c 0,76,77
 145.799804688 38.7001953125 145.799804688 38.7001953125 143.099609375 35.099609375 c 0,78,79
 132.299804688 18 132.299804688 18 105.299804688 18 c 0,80,81
 104.400390625 18 104.400390625 18 102.599609375 18 c 0,0,1
EndSplineSet
Validated: 1
EndChar

